<svg width="1440" height="1024" viewBox="0 0 1440 1024" fill="none" xmlns="http://www.w3.org/2000/svg">
<g clip-path="url(#clip0_95_3)">
<rect width="1440" height="1024" fill="#F3FBFE"/>
<path d="M1368.14 953.034C1360.65 946.786 1353.39 947.57 1353.15 946.396C1353.15 945.227 1368.46 940.539 1370.95 938.822C1373.45 937.027 1373.92 932.42 1367.91 934.45C1362.05 936.402 1352.21 943.429 1351.74 943.429C1351.9 943.039 1354.24 939.682 1357.13 936.869C1360.02 934.06 1363.84 930.934 1368.45 927.89C1372.98 924.768 1377.12 922.816 1377.35 919.771C1377.51 916.727 1373.22 916.256 1367.83 919.458C1363.45 922.036 1355.96 932.108 1353.22 935.854C1354.32 934.291 1356.27 931.405 1358.69 927.423C1362.6 921.098 1365.72 914.539 1366.89 908.372C1368.06 902.206 1364.47 898.532 1360.64 899.158C1356.81 899.783 1353.07 905.092 1351.2 911.417C1349.24 917.741 1346.36 926.254 1343.31 932.733C1340.19 939.134 1338.08 943.429 1338.08 942.337C1338.08 941.164 1338.62 939.447 1339.56 935.387C1340.57 931.328 1343.54 918.367 1345.88 912.042C1348.15 905.717 1351.97 895.488 1349.63 892.991C1347.29 890.414 1341.51 891.818 1338.93 897.834C1336.35 903.769 1335.18 920.632 1334.72 927.269C1334.33 933.906 1331.59 945.15 1330.89 945.853C1330.11 946.632 1325.97 948.195 1325.82 946.165C1325.66 944.058 1329.17 939.061 1331.2 935.392C1333.23 931.722 1334.01 926.725 1331.9 925.633C1330.11 924.695 1326.75 931.799 1325.97 933.439C1326.28 932.189 1327.61 927.975 1329.33 922.584C1331.36 916.183 1332.76 910.715 1332.29 906.736C1331.9 902.831 1326.21 902.99 1326.21 902.99L1326.91 900.806C1327.69 898.541 1328.86 896.357 1328.31 894.558C1327.84 892.841 1325.42 892.918 1323.08 897.136C1320.81 900.964 1317.38 912.44 1316.76 913.613C1316.76 912.675 1315.66 905.413 1315.19 902.056C1314.72 898.622 1318.24 894.327 1321.2 890.422C1324.25 886.517 1321.59 882.222 1319.49 883.708C1317.38 885.189 1313.01 892.529 1311.91 892.61C1310.9 892.61 1311.29 890.345 1309.49 887.377C1307.7 884.487 1304.5 880.74 1301.53 882.145C1298.56 883.472 1298.4 887.142 1299.11 891.514C1299.89 895.886 1303.72 900.806 1305.2 904.398C1306.68 907.914 1307.07 912.44 1306.29 914.705C1305.59 916.97 1304.73 925.247 1304.57 928.917C1304.5 932.587 1301.22 938.598 1300.59 936.646C1299.97 934.693 1300.75 928.681 1300.83 925.089C1300.98 921.573 1301.22 911.502 1301.22 906.192C1301.14 900.806 1298.33 899.089 1297.39 900.181C1296.53 901.272 1296.14 902.056 1296.14 900.647C1296.14 899.239 1296.3 895.415 1295.2 894.871C1294.03 894.323 1291.46 894.558 1290.75 899.166C1290.05 903.85 1290.13 918.919 1291.23 921.651C1292.39 924.46 1294.58 931.568 1292.71 931.568C1290.91 931.645 1289.27 927.975 1288.41 924.541C1287.55 921.107 1287.86 908.145 1287.71 903.46C1287.48 898.776 1285.68 896.434 1283.34 898.541C1281 900.729 1280.92 908.847 1281.15 914.08C1281.39 919.231 1284.51 923.372 1282.94 923.213C1281.78 923.136 1279.66 920.323 1277.87 918.371V918.293C1276.7 911.421 1274.67 905.096 1273.34 900.493C1270.76 891.514 1258.11 878.788 1248.67 876.522C1239.3 874.257 1228.76 876.989 1228.76 876.989L1231.02 874.412C1233.21 871.834 1244.84 860.123 1246.48 856.217C1248.04 852.394 1247.1 849.426 1245 849.503C1242.89 849.58 1241.25 850.985 1236.49 858.247C1231.72 865.351 1226.33 876.908 1225.87 876.908C1225.55 876.596 1225.94 874.566 1227.04 870.194C1228.13 865.822 1230.47 857.78 1233.52 850.672C1236.64 843.646 1243.59 834.354 1245.15 830.53C1246.71 826.706 1243.82 822.488 1240.39 824.128C1236.96 825.768 1233.83 829.827 1231.57 836.7C1229.39 843.491 1225.4 863.561 1225.32 861.45C1225.24 859.343 1227.27 843.025 1227.82 834.747C1228.44 826.47 1228.83 822.646 1226.65 814.292C1224.46 806.015 1216.65 805.077 1213.53 809.997C1210.48 814.917 1211.11 824.599 1211.81 834.281C1212.51 843.885 1211.74 854.659 1211.81 864.34C1211.89 873.945 1211.42 879.332 1210.64 878.865C1209.78 878.398 1206.73 850.445 1205.25 842.481C1203.77 834.516 1203.92 821.636 1202.91 814.292C1201.97 806.876 1197.99 805.548 1193.93 808.516C1189.87 811.56 1191.12 819.212 1191.2 828.037C1191.28 836.858 1195.49 846.073 1197.52 852.556C1199.63 858.958 1202.67 873.872 1202.21 880.744C1201.74 887.617 1198.46 892.614 1198.23 890.893C1197.99 889.176 1199.16 876.137 1199.09 871.684C1199.01 867.235 1198.46 861.531 1196.98 861.377C1195.5 861.141 1193.16 862.238 1193.31 867.937C1193.55 873.636 1193.7 883.476 1193.07 883.866C1192.45 884.256 1192.53 881.913 1192.06 874.42C1191.67 867.003 1189.87 848.809 1188.93 842.797C1187.92 836.785 1186.2 832.101 1183.08 831.942C1180.03 831.707 1178.39 836.55 1178.39 836.55L1178.47 831.865C1178.63 827.181 1177.22 819.764 1175.66 819.841C1174.02 819.919 1173.31 822.261 1172.69 830.302C1171.99 838.344 1172.84 852.398 1172.69 852.398C1172.53 852.398 1172.53 851.618 1171.44 849.195C1170.42 846.853 1165.35 838.421 1164.88 837.483C1164.41 836.546 1166.13 816.013 1165.9 812.575C1165.66 809.06 1163.16 808.28 1160.59 811.715C1158.01 815.149 1157.38 827.331 1157.08 827.485C1156.6 827.485 1154.26 824.205 1150.91 821.161C1147.55 818.116 1141.3 816.164 1139.51 817.804C1137.63 819.444 1138.1 824.595 1139.04 827.644C1139.9 830.688 1142.94 835.921 1147.63 840.134C1152.39 844.352 1156.29 850.283 1158.71 854.736C1161.13 859.266 1164.72 877.692 1165.43 882.766C1166.21 887.84 1166.05 893.539 1164.57 892.212C1163.08 890.885 1160.12 881.828 1158.16 874.878C1156.13 867.929 1152.78 859.262 1150.67 853.173C1148.56 847.007 1144.03 847.628 1143.8 849.426C1143.64 851.22 1142.94 853.563 1142.71 852.783C1142.47 851.923 1141.38 848.878 1140.2 845.992C1139.11 843.183 1136.07 840.37 1134.82 842.322C1133.49 844.275 1135.29 850.522 1137.16 856.222C1139.04 861.921 1144.11 872.853 1148.01 879.177C1151.92 885.502 1152.85 888.782 1151.92 889.094C1150.98 889.33 1149.18 887.767 1145.12 881.207C1140.99 874.647 1137.08 863.873 1134.9 857.862C1132.79 851.85 1127.71 847.713 1126.78 850.445C1125.76 853.177 1126.78 863.561 1129.9 870.275C1133.1 876.989 1142.47 887.686 1141.84 888.075C1141.14 888.388 1138.72 886.358 1136.3 884.406C1133.8 882.376 1131.15 880.659 1128.81 880.894C1126.39 881.13 1124.75 882.77 1126.15 885.112C1127.48 887.454 1131.85 890.422 1140.44 894.639C1148.95 898.934 1155.35 904.008 1155.35 904.634C1155.2 905.182 1153.87 905.1 1149.58 905.1C1145.29 905.1 1137.63 905.726 1133.11 909.16C1128.57 912.594 1120.07 920.948 1119.91 930.942C1119.83 940.86 1122.1 951.479 1124.99 957.491C1125.92 959.443 1126.78 962.488 1127.72 965.845C1127.72 965.865 1127.73 965.886 1127.73 965.906C1125.21 963.929 1121.91 962.224 1118.2 961.1C1111.6 959.106 1099.18 960.409 1098.26 959.796C1097.33 959.184 1097.05 956.793 1097.44 954.763C1097.84 952.737 1100.83 950.05 1103.26 948.288C1105.68 946.526 1106.08 943.486 1105.02 943.048C1103.96 942.605 1101.67 944.326 1100.44 945.601C1099.2 946.876 1096.82 948.069 1097.05 946.392C1097.26 944.72 1099.07 940.356 1101.49 937.847C1103.92 935.339 1104.75 932.164 1104.67 929.388C1104.58 926.611 1100.26 926.834 1098.24 927.581C1096.21 928.328 1094.4 932.737 1093.92 932.075C1093.43 931.413 1094.31 927.943 1094.24 924.058C1094.18 920.173 1093.14 918.427 1090.68 918.817C1088.22 919.207 1088.48 923.477 1088.48 927.618C1088.48 931.758 1090.68 947.679 1090.68 950.659C1090.68 953.638 1089.45 957 1088.29 952.343C1087.12 947.683 1088.09 942.508 1088.68 936.358C1089.26 930.208 1086.47 930.427 1084.74 930.342C1083.02 930.252 1080.01 932.152 1079.7 934.941C1079.39 937.726 1078.82 942.37 1078.11 941.615C1077.69 941.172 1075.21 935.278 1072.77 929.652C1073.1 927.545 1073.53 926.12 1074.17 924.845C1075.35 922.475 1076.91 917.583 1072.84 916.028C1070.26 915.046 1068.63 917.051 1067.66 919.109C1065.24 915.488 1061.67 912.809 1059.99 913.808C1058.13 914.912 1059.41 918.095 1061.18 919.998C1061.9 920.774 1063.96 924.151 1066.3 928.109C1066.26 934.714 1066.39 944.371 1065.89 944.505C1065.16 944.704 1062.39 941.728 1060.8 937.502C1059.21 933.273 1058.95 929.043 1058.75 925.475C1058.55 921.906 1055.45 919.856 1054.52 920.916C1053.59 921.971 1053.92 930.695 1055.77 934.791C1056.74 936.942 1058.38 939.784 1060.24 942.629C1057.79 941.03 1054.49 940.839 1054.68 942.297C1054.96 944.416 1055.95 950.2 1058.35 953.306C1060.75 956.411 1061.39 962.269 1060.47 962.058C1059.55 961.847 1057.08 960.012 1055.39 955.213C1053.7 950.415 1050.94 942.297 1049.95 939.122C1048.97 935.948 1045.01 935.948 1045.08 939.122C1045.15 942.297 1050.66 951.191 1050.66 951.191C1050.66 951.191 1049.03 949.778 1046.21 948.154C1043.39 946.53 1036.68 946.884 1037.74 949.425C1038.8 951.966 1043.74 956.622 1043.74 956.622C1043.74 956.622 1043.04 956.269 1041.7 955.563C1040.36 954.856 1035.13 954.576 1036.82 956.902C1038.52 959.232 1056.37 969.677 1056.37 969.677C1056.37 969.677 1055.46 969.677 1050.45 970.594C1045.44 971.512 1035.63 977.158 1032.81 984.076C1029.98 990.993 1027.02 1007.58 1030.76 1011.67C1034.5 1015.76 1043.04 1017.25 1044.52 1017.6C1046 1017.96 1045.3 1019.58 1047.63 1021.2C1049.96 1022.83 1055.25 1023.87 1055.25 1023.87C1055.25 1023.87 1135.36 1023.8 1137.51 1023.35C1139.66 1022.9 1141.47 1022.34 1144.07 1018.26C1146.67 1014.19 1148.93 1002.77 1147.12 994.63C1146.36 991.204 1144.01 988.533 1141.47 986.365C1141.54 986.389 1141.62 986.426 1141.69 986.454C1145.6 987.705 1149.27 988.172 1149.89 988.874C1150.91 989.966 1148.95 994.963 1150.59 1000.97C1152.31 1006.99 1159.11 1009.33 1159.41 1009.88C1159.8 1010.5 1159.8 1011.28 1158.55 1014.87C1157.3 1018.47 1159.41 1020.96 1159.41 1020.96C1159.41 1020.96 1259.82 1021.28 1260.45 1020.96C1261.07 1020.73 1260.91 1019.95 1260.45 1016.04C1259.98 1012.14 1256.93 1009.41 1254.59 1001.6C1252.56 995.121 1253.34 988.172 1255.37 982.549C1256.93 985.204 1258.8 987.705 1260.37 989.263C1263.65 992.308 1262.94 994.415 1261.93 996.993C1260.91 999.57 1261.77 1003.63 1263.72 1006.21C1265.68 1008.79 1265.44 1009.17 1264.58 1011.05C1263.72 1012.93 1261.54 1014.96 1264.58 1017.53C1267.63 1020.11 1275.44 1022.37 1275.44 1022.37C1275.44 1022.37 1338.06 1022.76 1340.32 1022.37C1342.51 1021.98 1351.26 1021.59 1362.97 1011.99C1374.6 1002.31 1377.1 990.205 1377.8 980.678C1378.58 971.232 1375.54 959.362 1368.12 953.038L1368.14 953.034ZM1070.4 969.218C1069.02 968.228 1065.91 960.032 1064.79 956.533C1063.73 953.257 1063.75 950.18 1062.84 946.388C1063.73 947.626 1064.64 948.812 1065.51 949.859C1069.15 954.219 1071.06 959.573 1071.59 962.809C1072.12 966.048 1071.79 970.209 1070.4 969.218ZM1082.42 969.819C1080.49 969.235 1075.3 954.402 1074.12 950.549C1072.99 946.888 1072.02 944.582 1072.17 938.136C1073.48 940.385 1074.56 942.236 1075.16 943.214C1077.53 947.066 1081.68 956.326 1082.42 959.663C1083.16 962.995 1084.34 970.404 1082.42 969.819ZM1186.14 889.793C1185.67 892.37 1183.64 895.805 1182.16 894.867C1180.67 893.929 1178.96 885.81 1179.58 880.578C1180.28 875.268 1181.38 863.167 1181.38 863.167C1181.38 863.167 1184.97 872.849 1185.51 878.394C1186.06 883.858 1186.6 887.296 1186.14 889.793H1186.14ZM1219.79 877.923C1218.93 879.015 1216.98 879.717 1216.28 879.717C1216.28 879.717 1216.12 873.705 1216.59 870.661C1217.06 867.616 1217.61 856.217 1218.31 855.982C1219.01 855.982 1219.01 861.292 1219.79 864.961C1220.57 868.631 1220.65 876.831 1219.79 877.923ZM1288.42 941.481C1286.01 940.466 1282.49 938.124 1277.96 937.032C1278.67 933.752 1278.9 930.317 1278.74 926.96C1281.16 929.615 1283.66 932.27 1284.76 933.52C1287.33 936.329 1292.48 943.202 1288.42 941.485V941.481ZM1320.51 930.159C1319.81 936.094 1318.33 941.245 1317.31 942.65C1316.3 944.131 1314.03 944.367 1313.72 944.367C1313.72 944.367 1314.03 941.947 1314.89 937.575C1315.75 933.126 1320.04 919.775 1320.51 919.775C1320.99 919.852 1321.22 924.224 1320.51 930.159ZM1345.89 944.367C1345.19 945.305 1343.7 945.617 1342.3 945.227C1342.3 945.227 1341.91 944.915 1342.3 944.054C1342.69 943.194 1348.15 932.81 1348.78 932.81C1349.01 933.358 1346.59 943.429 1345.89 944.367H1345.89Z" fill="#72C7F2"/>
<path d="M1370.17 1023.48C1368.9 1022.89 1365.28 1020.74 1361.36 1012.03C1357.45 1003.33 1356.08 997.362 1348.85 996.287C1341.61 995.211 1336.91 997.07 1331.73 990.908C1326.54 984.746 1325.47 982.205 1320.87 982.497C1316.28 982.789 1312.27 987.388 1307.86 991.886C1303.46 996.384 1297.79 991.497 1296.13 985.334C1294.46 979.172 1295.44 973.108 1290.16 973.599C1284.88 974.086 1280.96 981.425 1274.02 985.14C1267.07 988.858 1262.96 977.902 1258.95 973.01C1254.94 968.119 1247.41 967.238 1244.09 972.032C1240.76 976.826 1242.42 981.226 1241.06 986.215C1239.69 991.204 1234.6 991.789 1229.02 991.302C1223.45 990.815 1212.88 989.934 1212.4 997.853C1211.91 1005.78 1214.26 1007.05 1213.57 1008.91C1212.88 1010.77 1204.57 1004.51 1203.2 996.778C1201.83 989.053 1207.9 986.702 1206.14 977.707C1204.38 968.707 1202.42 964.599 1210.25 959.513C1218.07 954.426 1223.55 952.665 1224.23 946.502C1224.92 940.34 1227.75 931.832 1235.58 929.778C1243.41 927.724 1251.42 933.594 1258.27 933.2C1265.12 932.81 1271.38 923.811 1276.76 918.919C1282.14 914.027 1296.03 913.443 1301.6 918.822C1307.18 924.2 1306.88 925.67 1308.65 926.059C1310.41 926.449 1311.58 917.843 1310.01 914.519C1308.45 911.194 1306.39 907.476 1296.61 905.227C1286.83 902.978 1281.75 894.567 1280.28 884.491C1278.81 874.416 1280.38 868.453 1275 865.222C1269.62 861.994 1260.81 862.384 1255.82 853.876C1250.84 845.367 1254.46 837.248 1250.84 829.519C1247.22 821.794 1243.5 817.686 1239.39 813.676C1235.28 809.665 1235.67 797.832 1236.65 795.482C1237.63 793.135 1238.51 800.47 1241.64 805.163C1244.77 809.86 1248.29 809.957 1252.6 809.957C1256.9 809.957 1269.13 815.336 1272.65 821.498C1276.17 827.66 1278.12 829.422 1285.17 831.277C1292.21 833.136 1292.7 840.082 1292.7 845.753C1292.7 851.424 1294.36 852.698 1300.52 853.38C1306.68 854.066 1316.27 856.413 1316.56 867.17C1316.86 877.927 1315.78 878.613 1319.21 880.862C1322.63 883.111 1329.61 884.646 1331.34 891.928C1333.07 899.211 1333.79 901.443 1336.68 904.906C1339.56 908.369 1342.66 910.098 1345.18 910.386C1347.71 910.674 1352.32 901.374 1352.75 898.707C1353.19 896.04 1351.6 892.797 1345.47 887.605C1339.34 882.413 1342.95 873.689 1347.49 868.859C1352.03 864.028 1359.17 860.277 1360.54 855.881C1361.91 851.485 1359.39 847.519 1354.7 843.553C1350.01 839.587 1338.91 831.151 1337.39 823.438C1335.88 815.726 1340.28 808.585 1343.16 804.619C1346.04 800.653 1346.41 796.257 1344.46 793.371C1342.51 790.488 1336.31 784.935 1335.95 776.642C1335.59 768.349 1339.48 763.088 1346.98 756.528C1354.48 749.968 1358.66 746.144 1358.88 741.386C1359.1 736.629 1358.59 735.691 1359.38 734.319C1360.17 732.951 1363.71 735.906 1364.07 744.703C1364.43 753.499 1362.91 758.257 1361.47 761.647C1360.03 765.036 1359.02 769.002 1366.74 775.059C1374.45 781.115 1377.05 784.144 1377.55 790.342C1378.06 796.541 1376.9 804.546 1384.55 813.343C1392.19 822.139 1399.4 828.05 1398.25 837.569C1397.09 847.084 1392.34 851.27 1396.23 859.92C1400.12 868.571 1403.94 874.124 1402.36 882.486C1400.77 890.848 1398.68 892.724 1394.07 898.058C1389.45 903.392 1388.73 911.973 1391.54 919.183C1394.35 926.392 1395.43 935.55 1392.55 942.471C1389.67 949.393 1385.92 953.432 1381.09 959.127C1376.26 964.822 1373.01 970.014 1372.94 976.213C1372.87 982.412 1375.03 993.445 1377.56 995.247C1380.08 997.05 1382.6 992.004 1383.61 987.1C1384.62 982.196 1382.31 966.552 1385.2 959.777C1388.08 952.997 1398.11 946.007 1401.86 935.985C1405.61 925.962 1405.56 915.809 1404.6 906.716C1403.65 897.619 1422.97 873.19 1437.18 866.346C1451.39 859.502 1457.83 861.073 1464.74 862.717C1471.66 864.361 1477.86 863.509 1481.81 859.49C1485.76 855.471 1489.45 856.064 1491.03 859.689C1492.62 863.314 1492.88 870.495 1482.2 880.444C1471.53 890.394 1460.59 892.371 1457.96 901.659C1455.32 910.95 1456.9 917.34 1460.2 920.701C1463.49 924.062 1463.75 932.23 1459.28 936.318C1454.79 940.401 1430.57 953.846 1424.41 965.31C1418.24 976.773 1418.89 982.939 1411.54 986.398C1404.19 989.861 1392.65 989.662 1388.55 997.054C1384.45 1004.45 1383.47 1014.6 1379.55 1019.94C1375.64 1025.29 1370.18 1023.48 1370.18 1023.48H1370.17Z" fill="#46846A"/>
<path d="M1758.14 811.034C1750.65 804.786 1743.39 805.57 1743.15 804.396C1743.15 803.227 1758.46 798.539 1760.95 796.822C1763.45 795.027 1763.92 790.42 1757.91 792.45C1752.05 794.402 1742.21 801.429 1741.74 801.429C1741.9 801.039 1744.24 797.682 1747.13 794.869C1750.02 792.06 1753.84 788.934 1758.45 785.89C1762.98 782.768 1767.12 780.816 1767.35 777.771C1767.51 774.727 1763.22 774.256 1757.83 777.458C1753.45 780.036 1745.96 790.108 1743.22 793.854C1744.32 792.291 1746.27 789.405 1748.69 785.423C1752.6 779.098 1755.72 772.539 1756.89 766.372C1758.06 760.206 1754.47 756.532 1750.64 757.158C1746.81 757.783 1743.07 763.092 1741.2 769.417C1739.24 775.741 1736.36 784.254 1733.31 790.733C1730.19 797.134 1728.08 801.429 1728.08 800.337C1728.08 799.164 1728.62 797.447 1729.56 793.387C1730.57 789.328 1733.54 776.367 1735.88 770.042C1738.15 763.717 1741.97 753.488 1739.63 750.991C1737.29 748.414 1731.51 749.818 1728.93 755.834C1726.35 761.769 1725.18 778.632 1724.72 785.269C1724.33 791.906 1721.59 803.15 1720.89 803.853C1720.11 804.632 1715.97 806.195 1715.82 804.165C1715.66 802.058 1719.17 797.061 1721.2 793.392C1723.23 789.722 1724.01 784.725 1721.9 783.633C1720.11 782.695 1716.75 789.799 1715.97 791.439C1716.28 790.189 1717.61 785.975 1719.33 780.584C1721.36 774.183 1722.76 768.715 1722.29 764.736C1721.9 760.831 1716.21 760.99 1716.21 760.99L1716.91 758.806C1717.69 756.541 1718.86 754.357 1718.31 752.558C1717.84 750.841 1715.42 750.918 1713.08 755.136C1710.81 758.964 1707.38 770.44 1706.76 771.613C1706.76 770.675 1705.66 763.413 1705.19 760.056C1704.72 756.622 1708.24 752.327 1711.2 748.422C1714.25 744.517 1711.59 740.222 1709.49 741.708C1707.38 743.189 1703.01 750.529 1701.91 750.61C1700.9 750.61 1701.29 748.345 1699.49 745.377C1697.7 742.487 1694.5 738.74 1691.53 740.145C1688.56 741.472 1688.4 745.142 1689.11 749.514C1689.89 753.886 1693.72 758.806 1695.2 762.398C1696.68 765.914 1697.07 770.44 1696.29 772.705C1695.59 774.97 1694.73 783.247 1694.57 786.917C1694.5 790.587 1691.22 796.598 1690.59 794.646C1689.97 792.693 1690.75 786.681 1690.83 783.089C1690.98 779.573 1691.22 769.502 1691.22 764.192C1691.14 758.806 1688.33 757.089 1687.39 758.181C1686.53 759.272 1686.14 760.056 1686.14 758.647C1686.14 757.239 1686.3 753.415 1685.2 752.871C1684.03 752.323 1681.46 752.558 1680.75 757.166C1680.05 761.85 1680.13 776.919 1681.23 779.651C1682.39 782.46 1684.58 789.568 1682.71 789.568C1680.91 789.645 1679.27 785.975 1678.41 782.541C1677.55 779.107 1677.86 766.145 1677.71 761.46C1677.48 756.776 1675.68 754.434 1673.34 756.541C1671 758.729 1670.92 766.847 1671.15 772.08C1671.39 777.231 1674.51 781.372 1672.94 781.213C1671.78 781.136 1669.66 778.323 1667.87 776.371V776.293C1666.7 769.421 1664.67 763.096 1663.34 758.493C1660.76 749.514 1648.11 736.788 1638.67 734.522C1629.3 732.257 1618.76 734.989 1618.76 734.989L1621.02 732.412C1623.21 729.834 1634.84 718.123 1636.48 714.217C1638.04 710.394 1637.1 707.426 1635 707.503C1632.89 707.58 1631.25 708.985 1626.49 716.247C1621.72 723.351 1616.33 734.908 1615.87 734.908C1615.55 734.596 1615.94 732.566 1617.04 728.194C1618.13 723.822 1620.47 715.78 1623.52 708.672C1626.64 701.646 1633.59 692.354 1635.15 688.53C1636.71 684.706 1633.82 680.488 1630.39 682.128C1626.96 683.768 1623.83 687.827 1621.57 694.7C1619.39 701.491 1615.4 721.561 1615.32 719.45C1615.24 717.343 1617.27 701.025 1617.82 692.747C1618.44 684.47 1618.83 680.646 1616.65 672.292C1614.46 664.015 1606.65 663.077 1603.53 667.997C1600.48 672.917 1601.11 682.599 1601.81 692.281C1602.51 701.885 1601.74 712.659 1601.81 722.34C1601.89 731.945 1601.42 737.332 1600.64 736.865C1599.78 736.398 1596.73 708.445 1595.25 700.481C1593.77 692.516 1593.92 679.636 1592.91 672.292C1591.97 664.876 1587.99 663.548 1583.93 666.516C1579.87 669.56 1581.12 677.212 1581.2 686.037C1581.28 694.858 1585.49 704.073 1587.52 710.556C1589.63 716.958 1592.67 731.872 1592.21 738.744C1591.74 745.617 1588.46 750.614 1588.23 748.893C1587.99 747.176 1589.16 734.137 1589.09 729.684C1589.01 725.235 1588.46 719.531 1586.98 719.377C1585.5 719.141 1583.16 720.238 1583.31 725.937C1583.55 731.636 1583.7 741.476 1583.07 741.866C1582.45 742.256 1582.53 739.913 1582.06 732.42C1581.67 725.003 1579.87 706.809 1578.93 700.797C1577.92 694.785 1576.2 690.101 1573.08 689.942C1570.03 689.707 1568.39 694.55 1568.39 694.55L1568.47 689.865C1568.63 685.181 1567.22 677.764 1565.66 677.841C1564.02 677.919 1563.31 680.261 1562.69 688.302C1561.99 696.344 1562.84 710.398 1562.69 710.398C1562.53 710.398 1562.53 709.618 1561.44 707.195C1560.42 704.853 1555.35 696.421 1554.88 695.483C1554.41 694.546 1556.13 674.013 1555.9 670.575C1555.66 667.06 1553.16 666.28 1550.59 669.715C1548.01 673.149 1547.38 685.331 1547.08 685.485C1546.6 685.485 1544.26 682.205 1540.91 679.161C1537.55 676.116 1531.3 674.164 1529.51 675.804C1527.63 677.444 1528.1 682.595 1529.04 685.644C1529.9 688.688 1532.94 693.921 1537.63 698.134C1542.39 702.352 1546.29 708.283 1548.71 712.736C1551.13 717.266 1554.72 735.692 1555.43 740.766C1556.21 745.84 1556.05 751.539 1554.57 750.212C1553.08 748.885 1550.12 739.828 1548.16 732.878C1546.13 725.929 1542.78 717.262 1540.67 711.173C1538.56 705.007 1534.03 705.628 1533.8 707.426C1533.64 709.22 1532.94 711.563 1532.71 710.783C1532.47 709.923 1531.38 706.878 1530.2 703.992C1529.11 701.183 1526.07 698.37 1524.82 700.322C1523.49 702.275 1525.29 708.522 1527.16 714.222C1529.04 719.921 1534.11 730.853 1538.01 737.177C1541.92 743.502 1542.85 746.782 1541.92 747.094C1540.98 747.33 1539.18 745.767 1535.12 739.207C1530.99 732.647 1527.08 721.873 1524.9 715.862C1522.79 709.85 1517.71 705.713 1516.78 708.445C1515.76 711.177 1516.78 721.561 1519.9 728.275C1523.1 734.989 1532.47 745.686 1531.84 746.075C1531.14 746.388 1528.72 744.358 1526.3 742.406C1523.8 740.376 1521.15 738.659 1518.81 738.894C1516.39 739.13 1514.75 740.77 1516.15 743.112C1517.48 745.454 1521.85 748.422 1530.44 752.639C1538.95 756.934 1545.35 762.008 1545.35 762.634C1545.2 763.182 1543.87 763.1 1539.58 763.1C1535.29 763.1 1527.63 763.726 1523.11 767.16C1518.57 770.594 1510.07 778.948 1509.91 788.942C1509.83 798.86 1512.1 809.479 1514.99 815.491C1515.92 817.443 1516.78 820.488 1517.72 823.845C1517.72 823.865 1517.73 823.886 1517.73 823.906C1515.21 821.929 1511.91 820.224 1508.2 819.1C1501.6 817.106 1489.18 818.409 1488.26 817.796C1487.33 817.184 1487.05 814.793 1487.44 812.763C1487.84 810.737 1490.83 808.05 1493.26 806.288C1495.68 804.526 1496.08 801.486 1495.02 801.048C1493.96 800.605 1491.67 802.326 1490.44 803.601C1489.2 804.876 1486.82 806.069 1487.05 804.392C1487.26 802.72 1489.07 798.356 1491.49 795.847C1493.92 793.339 1494.75 790.164 1494.67 787.388C1494.58 784.611 1490.26 784.834 1488.24 785.581C1486.21 786.328 1484.4 790.737 1483.92 790.075C1483.43 789.413 1484.31 785.943 1484.24 782.058C1484.18 778.173 1483.14 776.427 1480.68 776.817C1478.22 777.207 1478.48 781.477 1478.48 785.618C1478.48 789.758 1480.68 805.679 1480.68 808.659C1480.68 811.638 1479.45 815 1478.29 810.343C1477.12 805.683 1478.09 800.508 1478.68 794.358C1479.26 788.208 1476.47 788.427 1474.74 788.342C1473.02 788.252 1470.01 790.152 1469.7 792.941C1469.39 795.726 1468.82 800.37 1468.11 799.615C1467.69 799.172 1465.21 793.278 1462.77 787.652C1463.1 785.545 1463.53 784.12 1464.17 782.845C1465.35 780.475 1466.91 775.583 1462.84 774.028C1460.26 773.046 1458.63 775.051 1457.66 777.109C1455.24 773.488 1451.67 770.809 1449.99 771.808C1448.13 772.912 1449.41 776.095 1451.18 777.998C1451.9 778.774 1453.96 782.151 1456.3 786.109C1456.26 792.714 1456.39 802.371 1455.89 802.505C1455.16 802.704 1452.39 799.728 1450.8 795.502C1449.21 791.273 1448.95 787.043 1448.75 783.475C1448.55 779.906 1445.45 777.856 1444.52 778.916C1443.59 779.971 1443.92 788.695 1445.77 792.791C1446.74 794.942 1448.38 797.784 1450.24 800.629C1447.79 799.03 1444.49 798.839 1444.68 800.297C1444.96 802.416 1445.95 808.2 1448.35 811.306C1450.75 814.411 1451.39 820.269 1450.47 820.058C1449.55 819.847 1447.08 818.012 1445.39 813.213C1443.7 808.415 1440.94 800.297 1439.95 797.122C1438.97 793.948 1435.01 793.948 1435.08 797.122C1435.15 800.297 1440.66 809.191 1440.66 809.191C1440.66 809.191 1439.03 807.778 1436.21 806.154C1433.39 804.53 1426.68 804.884 1427.74 807.425C1428.8 809.966 1433.74 814.622 1433.74 814.622C1433.74 814.622 1433.04 814.269 1431.7 813.563C1430.36 812.856 1425.13 812.576 1426.82 814.902C1428.52 817.232 1446.37 827.677 1446.37 827.677C1446.37 827.677 1445.46 827.677 1440.45 828.594C1435.44 829.512 1425.63 835.158 1422.81 842.076C1419.98 848.993 1417.02 865.579 1420.76 869.671C1424.5 873.763 1433.04 875.249 1434.52 875.602C1436 875.955 1435.3 877.579 1437.63 879.203C1439.96 880.826 1445.25 881.87 1445.25 881.87C1445.25 881.87 1525.36 881.805 1527.51 881.354C1529.66 880.9 1531.47 880.335 1534.07 876.264C1536.67 872.192 1538.93 860.773 1537.12 852.63C1536.36 849.204 1534.01 846.533 1531.47 844.365C1531.54 844.389 1531.62 844.426 1531.69 844.454C1535.6 845.705 1539.27 846.172 1539.89 846.874C1540.91 847.966 1538.95 852.963 1540.59 858.975C1542.31 864.987 1549.11 867.329 1549.41 867.877C1549.8 868.502 1549.8 869.282 1548.55 872.874C1547.3 876.467 1549.41 878.963 1549.41 878.963C1549.41 878.963 1649.82 879.276 1650.45 878.963C1651.07 878.728 1650.91 877.948 1650.45 874.043C1649.98 870.138 1646.93 867.406 1644.59 859.6C1642.56 853.121 1643.34 846.172 1645.37 840.549C1646.93 843.204 1648.8 845.705 1650.37 847.263C1653.65 850.308 1652.94 852.415 1651.93 854.993C1650.91 857.57 1651.77 861.63 1653.72 864.207C1655.68 866.785 1655.44 867.175 1654.58 869.05C1653.72 870.926 1651.54 872.955 1654.58 875.529C1657.63 878.107 1665.44 880.372 1665.44 880.372C1665.44 880.372 1728.06 880.761 1730.32 880.372C1732.51 879.982 1741.26 879.592 1752.97 869.988C1764.6 860.306 1767.1 848.205 1767.8 838.678C1768.58 829.232 1765.54 817.362 1758.12 811.038L1758.14 811.034ZM1460.4 827.218C1459.02 826.228 1455.91 818.032 1454.79 814.533C1453.73 811.257 1453.75 808.18 1452.84 804.388C1453.73 805.626 1454.64 806.812 1455.51 807.859C1459.15 812.219 1461.06 817.573 1461.59 820.809C1462.12 824.048 1461.79 828.209 1460.4 827.218ZM1472.42 827.819C1470.49 827.235 1465.3 812.402 1464.12 808.549C1462.99 804.888 1462.02 802.582 1462.17 796.136C1463.48 798.385 1464.56 800.236 1465.16 801.214C1467.53 805.066 1471.68 814.326 1472.42 817.663C1473.16 820.995 1474.34 828.404 1472.42 827.819ZM1576.14 747.793C1575.67 750.37 1573.64 753.805 1572.16 752.867C1570.67 751.929 1568.96 743.81 1569.58 738.578C1570.28 733.268 1571.38 721.167 1571.38 721.167C1571.38 721.167 1574.97 730.849 1575.51 736.394C1576.06 741.858 1576.6 745.296 1576.14 747.793H1576.14ZM1609.79 735.923C1608.93 737.015 1606.98 737.717 1606.28 737.717C1606.28 737.717 1606.12 731.705 1606.59 728.661C1607.06 725.616 1607.61 714.217 1608.31 713.982C1609.01 713.982 1609.01 719.292 1609.79 722.961C1610.57 726.631 1610.65 734.831 1609.79 735.923ZM1678.42 799.481C1676.01 798.466 1672.49 796.124 1667.96 795.032C1668.67 791.752 1668.9 788.317 1668.74 784.96C1671.16 787.615 1673.66 790.27 1674.76 791.52C1677.33 794.329 1682.48 801.202 1678.42 799.485V799.481ZM1710.51 788.159C1709.81 794.094 1708.33 799.245 1707.31 800.65C1706.3 802.131 1704.03 802.367 1703.72 802.367C1703.72 802.367 1704.03 799.947 1704.89 795.575C1705.75 791.126 1710.04 777.775 1710.51 777.775C1710.99 777.852 1711.22 782.224 1710.51 788.159ZM1735.89 802.367C1735.19 803.305 1733.7 803.617 1732.3 803.227C1732.3 803.227 1731.91 802.915 1732.3 802.054C1732.69 801.194 1738.15 790.81 1738.78 790.81C1739.01 791.358 1736.59 801.429 1735.89 802.367H1735.89Z" fill="#72C7F2"/>
<path d="M184.173 1020.06C184.173 1020.06 183.885 1016.47 184.604 1007.13C185.322 997.787 183.528 986.794 180.004 980.039C176.485 973.285 171.382 965.312 166.28 962.223C161.177 959.134 154.321 955.496 152.871 953.012C151.422 950.532 152.043 947.118 150.286 944.95C148.528 942.778 144.444 942.47 137.466 941.747C130.488 941.025 125.938 935.029 123.717 931.769C121.493 928.514 121.651 926.236 117.153 926.703C112.655 927.17 111.62 929.236 106.4 929.959C101.179 930.681 98.3378 929.285 94.9767 926.959C91.6155 924.633 86.8092 923.289 81.5889 925.77C76.3685 928.25 75.2319 931.144 69.3377 932.232C63.4435 933.316 60.7562 927.065 58.3287 926.545C55.9012 926.029 53.3681 926.598 50.2667 928.457C47.1654 930.316 42.4078 929.801 38.9452 927.008C35.4825 924.215 32.0686 920.184 27.1608 920.496C22.253 920.809 21.9932 922.408 17.2884 924.889C12.5836 927.369 8.75965 927.162 5.34572 924.527C1.93584 921.893 0.433867 920.444 -3.28858 921.426C-7.01103 922.408 -9.02449 924.268 -12.5927 922.924C-16.1609 921.58 -17.2975 916.254 -16.9362 912.329C-16.5749 908.4 -14.3017 904.421 -11.2003 903.492C-8.09894 902.562 -4.27503 904.527 -1.53495 907.06C1.20513 909.593 3.63267 910.368 5.80443 910.263C7.9762 910.161 10.1479 907.214 8.95852 905.505C7.76913 903.8 5.18331 901.267 1.09958 899.51C-2.98415 897.752 -5.87846 894.289 -5.4644 889.532C-5.05034 884.774 -3.19118 884.62 -1.94902 882.862C-0.706846 881.104 -2.00177 878.778 -3.86096 876.659C-5.72016 874.54 -10.0637 870.095 -10.6847 866.373C-11.3058 862.65 -8.72005 858.928 -4.68909 858.619C-0.658134 858.311 -0.138519 863.324 4.56224 865.338C9.26705 867.355 14.4346 868.078 14.6944 873.558C14.9542 879.038 13.5051 881.932 14.4874 884.774C15.4698 887.616 19.448 888.135 22.5006 888.237C25.5492 888.338 29.1174 891.492 29.4787 896.972C29.84 902.453 28.9631 903.228 31.5977 907.259C34.2322 911.29 39.7124 909.276 45.3995 907.259C51.0867 905.241 54.3424 905.708 56.7211 909.686C59.0999 913.669 61.5275 915.735 65.4569 915.581C69.3864 915.426 72.642 912.171 76.3117 908.911C79.9814 905.651 85.8228 904.88 88.8227 906.378C91.8226 907.876 95.748 912.528 99.6247 914.545C103.501 916.563 108.462 913.356 108.567 910.977C108.669 908.598 107.691 906.171 103.814 906.171C99.9372 906.171 97.5057 902.448 96.8359 898.572C96.1621 894.695 96.6816 890.51 92.2366 889.268C87.7916 888.026 83.6551 888.44 79.8312 890.818C76.0073 893.197 68.6679 893.351 64.4258 889.215C60.1878 885.078 61.016 878.206 56.7739 875.981C52.5359 873.757 51.448 874.431 45.9719 873.554C40.4918 872.677 35.584 867.505 34.1348 862.646C32.6856 857.787 33.1524 850.809 30.9806 846.88C28.8089 842.95 25.6548 841.452 21.8836 838.765C18.1084 836.078 14.9583 831.84 13.7161 826.774C12.474 821.708 14.8 815.659 19.6104 814.575C24.4207 813.491 29.7953 814.267 31.4475 818.557C33.0996 822.848 33.4122 827.809 39.2536 830.602C45.0951 833.394 50.3155 836.029 51.3993 843.267C52.4832 850.505 52.7957 855.518 55.7428 858.672C58.6899 861.826 65.0997 861.619 69.7517 861.567C74.4038 861.514 76.3685 864.822 78.4875 867.769C80.6065 870.716 85.3641 874.54 90.893 871.593C96.4259 868.646 95.1837 861.668 92.5979 858.774C90.0121 855.879 88.4127 851.487 89.0297 847.144C89.6508 842.8 91.0959 840.632 90.7347 836.703C90.3734 832.773 88.8755 831.121 83.1883 829.518C77.5011 827.914 71.3512 821.091 69.1794 814.888C67.0076 808.685 67.99 801.24 70.7828 798.09C73.5757 794.936 79.9855 795.042 83.034 799.02C86.0826 803.002 87.2193 807.808 94.3029 814.681C101.386 821.557 104.898 826.932 103.505 833.443C102.109 839.954 99.369 843.884 99.7302 849.263C100.092 854.637 104.744 856.655 107.017 863.373C109.29 870.091 108.36 874.228 108.153 879.087C107.946 883.946 109.55 890.408 113.065 894.699C116.581 898.99 122.783 898.316 127.643 900.386C132.502 902.453 135.189 907.157 136.894 911.448C138.599 915.739 142.942 917.805 148.678 918.633C154.414 919.461 158.863 921.012 161.084 928.453C163.308 935.898 166.718 940.189 169.819 941.581C172.921 942.973 174.057 941.272 173.595 938.788C173.128 936.308 171.942 929.123 174.471 921.783C177.004 914.444 178.141 910.721 177.626 906.792C177.11 902.863 176.383 900.122 171.423 898.986C166.462 897.849 167.96 891.439 161.652 889.889C155.344 888.338 149.762 892.889 143.458 886.682C137.15 880.479 139.735 872.726 142.63 869.933C145.524 867.14 155.758 866.417 159.533 871.585C163.308 876.753 162.533 877.427 166.203 877.995C169.872 878.563 173.079 872.62 172.304 868.845C171.528 865.07 169.101 859.074 162.379 857.682C155.66 856.285 146.718 851.373 144.079 847.809C141.444 844.241 140.823 836.439 137.101 834.576C133.378 832.717 126.348 829.769 124.643 825.166C122.938 820.567 124.541 810.329 122.938 806.712C121.334 803.095 118.854 802.421 116.061 798.752C113.268 795.082 114.044 791.205 114.612 787.897C115.18 784.589 116.836 780.298 114.872 778.126C112.907 775.954 108.462 773.941 103.757 772.492C99.0523 771.042 98.8453 765.408 99.1051 762.412C99.3649 759.412 102.105 755.434 100.449 752.073C98.7965 748.712 90.3166 748.351 86.4399 746.077C82.5632 743.804 79.9773 738.685 80.0301 732.535C80.0829 726.385 87.7835 724.161 93.6249 726.227C99.4664 728.293 104.739 726.694 108.616 728.192C112.493 729.69 115.127 731.24 115.18 739.355C115.233 747.47 113.938 752.848 117.352 758.584C120.762 764.32 130.017 771.818 132.806 777.245C135.599 782.673 134.718 788.615 134.097 795.131C133.476 801.642 136.524 807.589 141.436 809.241C146.348 810.893 149.344 811.62 149.551 817.51C149.758 823.404 149.652 826.193 151.41 828.519C153.168 830.845 155.648 832.035 156.683 831.828C157.718 831.621 159.371 825.885 159.269 818.854C159.168 811.823 158.08 804.329 155.031 798.074C151.983 791.818 149.758 785.977 150.74 779.36C151.723 772.743 156.943 765.867 158.132 759.563C159.322 753.254 157.824 750.88 155.445 747.571C153.066 744.263 152.242 738.214 154.101 732.527C155.961 726.84 158.185 724.258 156.996 720.381C155.806 716.505 153.428 714.694 148.776 710.769C144.124 706.839 142.005 703.738 143.04 699.553C144.075 695.368 152.965 693.504 159.168 696.399C165.37 699.293 169.556 702.187 168.419 711.698C167.282 721.21 165.37 725.76 166.401 732.994C167.437 740.232 174.001 743.589 174.93 752.637C175.86 761.682 172.551 767.523 169.71 772.642C166.868 777.761 165.472 783.549 167.591 791.356C169.71 799.162 172.551 802.316 170.639 809.655C168.727 816.995 168.622 824.541 172.499 830.589C176.375 836.638 182.269 844.651 183.715 853.488C185.164 862.326 183.922 869.048 185.679 870.858C187.437 872.669 191.16 864.81 190.072 857.523C188.988 850.237 186.97 843.673 189.917 838.655C192.864 833.642 195.345 833.898 196.38 827.025C197.415 820.149 196.226 815.083 198.19 812.554C200.155 810.021 207.442 808.47 209.926 817.567C212.406 826.664 210.803 833.642 207.653 840.726C204.499 847.809 203.415 851.272 203.723 859.334C204.032 867.396 204.86 871.325 200.622 878.255C196.384 885.18 191.732 891.021 191.111 898.933C190.49 906.841 191.151 919.474 188.521 926.829C185.886 934.189 182.984 937.631 183.053 949.103C183.122 960.579 187.709 965.235 188.927 980.356C190.141 995.477 190.344 1005.6 189.873 1011.27C189.402 1016.94 189.199 1021.53 186.767 1022.07C184.336 1022.61 184.157 1020.05 184.157 1020.05L184.173 1020.06Z" fill="#2881B5"/>
<path d="M192.787 1019.79C192.787 1019.79 194.017 971.287 195.195 959.868C196.372 948.449 198.73 942.742 203.622 935.126C208.517 927.515 210.689 922.348 210.6 915.37C210.511 908.391 212.946 903.334 215.183 898.856C217.424 894.379 217.347 889.528 216.454 885.046C215.556 880.569 213.916 876.164 218.244 870.12C222.571 864.075 224.885 859.521 224.365 856.683C223.842 853.846 221.231 850.009 217.753 845.605C214.274 841.201 211.785 832.855 213.174 825.495C214.566 818.135 215.203 813.094 212.885 809.44C210.567 805.787 205.12 802.137 205.294 795.009C205.469 787.881 209.496 783.728 209.565 777.948C209.634 772.167 206.849 770.149 206.5 764.714C206.151 759.278 208.103 753.782 212.768 747.514C217.432 741.247 218.199 738.811 216.6 733.518C214.996 728.224 219.595 722.026 226.139 723.629C232.687 725.232 231.782 732.405 229.622 738.113C227.463 743.82 225.79 748.7 227.743 756.567C229.691 764.438 230.945 770.214 226.699 777.529C222.453 784.84 219.039 790.763 221.962 797.794C224.889 804.829 229.135 806.152 227.95 815.554C226.764 824.955 226.488 830.736 229.691 833.171C232.894 835.607 236.028 831.15 235.192 824.188C234.355 817.222 232.894 814.23 235.61 807.613C238.325 800.997 241.597 795.565 241.39 786.164C241.183 776.762 241.041 770.844 247.033 766.106C253.02 761.369 255.878 763.46 260.542 756.498C265.207 749.532 264.862 744.45 272.034 742.988C279.207 741.527 285.406 747.794 281.156 756.429C276.91 765.063 270.569 765.063 269.944 775.439C269.319 785.815 267.853 791.039 261.586 795.285C255.318 799.531 253.576 805.73 254.344 815.411C255.111 825.093 253.857 833.447 250.723 838.047C247.589 842.642 242.438 847.655 243.132 859.078C243.83 870.497 245.36 875.027 242.295 880.248C239.231 885.472 236.166 890.835 237.664 899.538C239.162 908.241 240.554 914.371 234.704 919.177C228.855 923.983 222.936 926.768 217.294 935.472C211.651 944.175 206.22 951.072 203.922 964.93C201.625 978.789 200.439 1000.59 199.676 1010.68C198.909 1020.78 197.728 1023.57 195.637 1023.92C193.546 1024.27 192.787 1021.92 192.787 1020.85V1019.79V1019.79Z" fill="#2881B5"/>
<path d="M202.952 1017.16C202.952 1017.16 203.809 981.866 207.706 967.005C211.603 952.143 216.486 947.938 223.326 943.635C230.166 939.332 239.011 939.978 242.961 933.552C246.911 927.126 248.149 922.583 254.815 921.109C261.476 919.636 266.079 923.586 271.324 917.748C276.573 911.911 274.332 907.961 274.214 902.124C274.097 896.286 275.923 892.393 277.576 889.446C279.228 886.499 280.23 882.075 279.699 876.355C279.167 870.635 278.4 865.212 280.937 859.017C283.474 852.827 290.785 847.46 290.196 842.151C289.608 836.841 286.421 833.305 288.016 829.12C289.608 824.935 294.621 821.748 300.044 823.754C305.468 825.759 305.411 828.471 305.585 832.599C305.764 836.727 309.535 838.022 309.478 843.153C309.417 848.284 308.593 850.935 302.224 858.132C295.855 865.326 295.563 868.687 297.154 874.114C298.745 879.537 299.042 884.494 297.215 889.978C295.388 895.462 294.325 901.121 294.974 903.955C295.624 906.784 300.872 901.361 302.346 895.406C303.819 889.45 303.88 879.529 308.301 873.672C312.722 867.81 317.796 864.981 322.216 858.258C326.637 851.536 327.997 846.819 333.952 843.929C339.907 841.038 346.337 842.808 347.161 848.528C347.985 854.248 345.392 857.609 339.968 862.443C334.545 867.278 328.411 873.412 327.173 882.61C325.935 891.809 325.346 896.351 320.629 901.361C315.912 906.37 312.787 908.907 310.664 914.391C308.54 919.875 305.297 922.587 297.572 923.768C289.847 924.95 283.92 928.368 282.548 931.14C281.176 933.913 282.65 936.389 286.129 935.683C289.608 934.976 294.325 931.554 301.282 933.028C308.24 934.501 315.612 936.568 323.041 935.208C330.469 933.852 335.543 927.012 337.545 922.469C339.546 917.927 343.029 911.915 349.28 914.627C355.532 917.338 356.064 922.94 354.058 926.184C352.053 929.427 347.515 931.018 347.275 933.848C347.04 936.677 353.997 936.206 360.188 931.842C366.378 927.479 365.968 924.532 373.162 922.644C380.355 920.756 386.96 923.943 387.43 930.901C387.901 937.859 386.428 943.164 377.168 945.762C367.909 948.356 353.876 949.42 343.971 953.84C334.066 958.261 325.574 960.266 314.488 957.851C303.401 955.431 286.831 953.84 274.332 955.078C261.829 956.317 253.106 955.963 244.849 954.372C236.592 952.781 223.03 953.073 218.43 962.276C213.831 971.474 211.53 982.029 210.291 990.935C209.053 999.837 208.404 1019.42 207.344 1021.54C206.285 1023.66 203.687 1021.66 203.216 1020.24C202.745 1018.82 202.948 1017.17 202.948 1017.17L202.952 1017.16Z" fill="#2881B5"/>
<path d="M134.953 882.795C134.778 883.148 132.752 897.133 126.156 904.083C119.559 911.032 107.422 920.795 95.6376 924.578C84.0075 928.309 77.5733 928.991 64.1409 936.696C65.2613 935.104 66.2639 933.111 66.6699 930.659C67.3599 926.466 67.4736 920.88 67.0555 915.25C75.434 909.084 86.159 901.732 92.1019 897.007C101.093 889.863 105.932 879.564 107.625 865.579C109.314 851.595 106.241 835.305 106.241 835.305C106.241 835.305 104.089 845.908 103.322 852.979C102.555 860.046 100.403 869.805 94.7161 878.411C89.0289 887.017 77.7561 894.669 66.0001 903.847C65.8134 903.993 65.6388 904.152 65.4561 904.298C65.4561 904.294 65.4561 904.286 65.4561 904.281C64.8553 901.886 63.4427 899.439 61.6281 896.975C61.8636 891.425 61.7296 886.083 61.2871 882.799C61.1938 882.101 61.0071 881.541 60.8244 880.973C62.781 879.024 64.8269 877.506 66.5075 876.406C70.0838 874.068 74.6506 873.142 74.7074 874.254C74.7683 875.367 76.1728 877.421 77.6991 876.657C79.2214 875.894 80.0455 871.263 74.6506 871.38C69.5804 871.49 64.3722 874.266 59.7405 878.691C57.3536 875.432 53.1359 875.927 51.979 877.023C50.4689 878.456 51.3417 880.124 54.029 880.205C55.4173 880.246 56.3022 880.477 56.9923 881.931C55.6933 883.692 54.5527 885.69 53.6231 887.963C51.8369 886.164 50.0386 884.391 48.3093 882.637C49.0116 878.488 51.3823 872.858 57.857 867.966C65.7484 862.007 72.4951 861.743 82.3147 856.223C92.1303 850.702 101.162 837.464 108.697 822.915C116.235 808.367 115.796 790.485 114.745 791.183C113.694 791.885 108.169 809.414 101.069 817.216C93.9691 825.018 83.8004 830.892 69.69 839.392C55.5796 847.893 51.6177 853.365 45.5408 861.743C43.9779 863.899 42.7358 866.594 41.8143 869.537C41.7006 868.977 41.5951 868.405 41.4814 867.828C42.5287 866.225 44.4569 862.762 47.4527 855.492C49.1536 851.372 50.0143 847.174 50.4567 843.127C53.1562 841.836 55.9328 841.385 58.0599 841.475C61.7093 841.629 62.8744 842.794 62.6389 840.387C62.4157 838.053 58.5064 836.498 50.7084 840.074C50.8992 836.88 50.883 833.831 50.7937 831.038C55.6934 827.21 61.5997 823.995 66.7957 820.569C76.7655 814.001 83.2159 806.848 85.5581 793.128C87.9045 779.407 83.2118 765.922 77.1146 752.786C71.0174 739.649 69.2598 727.691 69.2598 727.691C69.2598 727.691 67.6198 740.709 65.5049 750.91C63.394 761.111 67.2666 775.774 65.9757 790.197C64.6848 804.62 61.2749 808.569 51.2402 818.263C50.9966 818.499 50.7855 818.722 50.546 818.957C50.4933 816.627 50.3431 814.212 49.9412 811.452C51.6096 808.63 55.5918 800.037 56.087 795.851C56.1195 795.584 56.0871 795.308 56.1074 795.036C57.3658 794.155 58.7257 793.432 59.7852 793.059C61.8067 792.344 62.9961 793.773 64.7213 792.941C66.4466 792.109 66.0163 789.718 63.5928 789.194C61.6403 788.772 59.1073 789.49 56.0384 791.678C55.6893 788.593 54.6338 785.598 52.8314 783.43C50.2172 780.28 45.9346 781.291 45.3988 782.659C44.8629 784.027 46.4705 784.798 48.5489 784.619C50.5258 784.449 53.4931 786.909 53.7854 793.428C53.7651 793.448 53.7449 793.456 53.7246 793.477C51.297 795.628 49.2349 799.428 47.9196 802.249C47.2904 799.992 46.5638 797.581 45.5977 794.796C40.491 780.056 40.3732 766.591 43.7425 750.926C47.1077 735.257 52.1008 724.232 51.1712 703.342C50.2416 682.453 33.8783 663.999 33.4114 665.042C32.9487 666.085 33.6428 669.106 34.4547 678.503C35.2666 687.905 33.525 698.812 29.8107 715.062C26.0964 731.311 18.0873 741.988 17.5068 756.264C16.9263 770.541 23.194 784.351 28.7635 791.894C32.8878 797.479 41.3394 811.098 45.3013 824.405C45.2242 824.49 45.1389 824.58 45.0618 824.665C44.4529 822.193 43.365 818.864 41.522 816.826C38.3314 813.287 34.7347 812.763 32.3559 813.749C31.9744 813.908 31.7065 814.082 31.4061 814.257C30.9028 803.889 27.7324 796.708 19.4025 781.778C10.2608 765.39 0.09616 762.626 0.152991 763.182C0.209823 763.738 0.871413 764.846 2.70219 767.509C4.53297 770.172 7.61812 777.463 10.1349 784.826C12.6517 792.19 11.8034 807.169 11.2919 826.983C10.7845 846.797 13.7072 856.194 23.2305 870.292C27.9109 877.218 34.3329 882.657 40.3124 886.915C40.7305 889.94 41.5221 892.716 42.7602 894.933C45.001 898.956 48.6706 903.644 51.9141 907.484C52.6245 910.963 53.554 913.391 54.2522 914.816C53.826 915.307 53.4566 915.818 53.0547 916.318C51.301 912.944 47.4243 905.779 43.6085 900.746C38.4694 893.963 36.529 891.344 33.7564 890.516C30.9839 889.684 28.2601 890.329 27.4279 891.762C26.5957 893.195 25.995 894.624 27.2453 895.777C28.4915 896.93 29.5063 894.299 31.4913 893.699C33.4764 893.098 35.368 894.299 37.7224 897.486C40.0769 900.673 43.3528 904.042 47.3716 910.135C49.7666 913.768 51.1022 916.297 51.8572 917.856C51.7192 918.043 51.5608 918.225 51.4269 918.412C49.4784 915.441 46.1619 911.162 42.3095 909.449C36.1393 906.709 33.1272 907.395 32.3722 909.79C31.6172 912.189 34.6332 911.572 37.5113 911.231C40.3894 910.89 47.5867 916.52 49.0927 920.385C49.2632 920.823 49.3525 921.055 49.4865 921.396C46.5678 926.222 44.8223 931.297 45.0699 936.545C45.3541 942.59 46.4136 947.887 47.4122 951.699C39.4558 945.809 32.0961 938.072 29.2911 927.456C25.6417 913.65 29.2912 905.365 23.2752 892.055C17.2592 878.74 12.534 874.404 8.22705 870.41C3.92005 866.416 0.798353 864.293 0.173209 864.731C-0.451935 865.169 0.611621 869.351 3.42071 874.404C6.2298 879.458 8.04029 885.702 8.10118 894.437C8.16207 903.173 7.07415 923.454 10.0253 932.474C12.9724 941.494 21.1278 948.87 29.8879 954.508C34.4669 957.455 38.6521 959.615 42.2324 961.425C40.7183 964.466 39.7075 967.092 39.4031 968.728C38.307 974.578 38.9484 981.519 39.5857 991.116C40.223 1000.71 39.2204 1002.54 38.579 1012.77C37.9376 1023.01 41.4124 1041.56 41.5017 1041.83C41.5017 1041.83 49.109 1035.1 49.2552 1034.21C49.4013 1033.33 49.5474 1032.3 48.3702 1024.78C47.7125 1020.58 47.534 1012.31 47.9481 1004.09C50.8952 1001.39 56.9923 995.398 60.7797 988.68C65.521 980.261 64.9852 965.424 56.6919 958.239C56.7893 957.78 56.8462 957.5 56.8462 957.5C56.8462 957.5 57.4673 956.522 63.4467 953.534C69.4262 950.542 76.3758 947.465 94.0544 942.716C111.733 937.966 126.245 928.467 131.876 914.219C137.502 899.97 135.131 882.466 134.953 882.82V882.795ZM65.0095 923.109C65.0095 930.846 63.0692 935.721 61.4982 938.437C60.4022 939.176 59.3062 939.898 58.2751 940.743V922.139C59.9151 920.685 62.0462 918.98 64.6117 917.048C64.8431 918.976 65.0056 920.974 65.0056 923.105L65.0095 923.109ZM53.3957 904.395C53.1765 901.821 53.2536 898.793 53.7002 895.716C54.1264 896.013 54.6338 896.337 54.9748 896.601C56.2413 897.584 57.4551 898.866 58.5795 900.38C58.2101 904.606 57.5849 908.613 57.1019 911.268C56.7934 910.744 56.5539 910.322 56.1724 909.68C55.121 907.919 54.2198 906.149 53.3917 904.395H53.3957ZM62.1802 906.981C61.5916 907.488 61.0354 908.008 60.4631 908.524C60.6904 907.237 60.8933 905.897 61.0557 904.497C61.4495 905.292 61.8351 906.104 62.1802 906.981ZM55.1696 889.538C55.8516 887.675 56.7732 886.055 57.7921 884.581C58.0843 885.957 58.3563 887.748 58.6526 890.135C58.7825 891.202 58.8434 892.359 58.8677 893.553C57.6986 892.217 56.4605 890.885 55.1656 889.554C55.1656 889.55 55.1656 889.542 55.1696 889.538ZM41.3191 867.053C40.6168 863.436 39.9713 859.588 39.8699 855.451C41.0471 853.377 42.8697 850.345 45.0374 847.438C45.5611 846.736 46.1822 846.277 46.7667 845.717C45.4799 855.325 42.7033 863.46 41.3191 867.053ZM53.2334 797.682C53.3105 797.569 53.4445 797.463 53.5338 797.349C52.8234 801.255 50.9642 805.561 49.45 808.618C49.243 807.547 48.9791 806.39 48.6909 805.192C50.0061 802.927 52.2835 799.046 53.2334 797.682ZM47.4407 837.919C47.4041 839.356 47.2701 840.756 47.1483 842.161C43.5923 844.954 41.2623 849.025 39.9267 851.997C40.0688 849.362 40.4544 846.63 41.2217 843.776C42.2203 840.058 44.4042 836.973 47.1727 834.217C47.2823 835.459 47.4691 836.729 47.4407 837.919ZM31.4913 818.625C32.4291 818.629 33.7565 818.357 35.6522 817.853C39.5979 816.81 40.5275 819.014 42.2081 823.366C42.8413 825.01 43.1904 825.903 43.434 826.54C37.9985 833.068 34.7551 839.396 34.9662 846.456C35.1773 853.633 38.6399 866.842 40.5762 873.731C36.1149 867.568 34.1583 862.125 32.5711 855.63C30.6673 847.828 31.4305 830.762 31.4873 818.621L31.4913 818.625ZM51.7151 894.377C51.4066 896.017 51.297 897.669 51.2524 899.361C50.3674 897.007 49.6854 894.783 49.178 892.769C50.1035 893.35 50.9194 893.869 51.7151 894.377ZM54.5648 910.553C55.2305 911.308 55.8151 911.954 56.3469 912.538C56.0221 912.879 55.7055 913.22 55.3929 913.565C55.1534 912.733 54.8692 911.698 54.5648 910.553ZM52.6447 927.753V946.203C51.1102 947.895 49.7017 949.629 48.4027 951.395C48.1429 949.008 47.8952 946.028 47.7613 942.492C47.4933 935.392 49.3038 931.585 52.6447 927.753ZM57.2156 982.7C56.355 990.328 51.0778 997.708 48.086 1001.37C48.4595 995.808 49.1252 990.49 50.136 986.731C51.4066 982.006 52.9938 975.118 54.305 969.203C56.558 971.838 58.0031 975.69 57.2156 982.7Z" fill="#274C3D"/>
<path d="M171.55 -16.7874C171.55 -16.7874 192.763 -15.5502 211.077 -12.3342C229.39 -9.11407 238.128 -6.22568 241.48 -4.3519C244.831 -2.47406 244.896 -2.6607 245.493 -2.98907C246.086 -3.31746 250.182 -8.52676 265.423 -11.8161C280.664 -15.1054 286.802 -14.5164 294.779 -9.7246C302.76 -4.9288 312.712 9.46074 314.228 12.8271C315.743 16.1934 315.477 19.9521 313.365 21.205C311.253 22.4578 304.986 22.0555 300.503 17.9644C296.021 13.8694 291.733 9.18173 283.82 5.54695C275.907 1.91217 267.263 3.42417 264.356 4.94028C261.452 6.4564 260.132 8.23755 260.594 8.83055C261.056 9.42355 268.903 15.6319 280.708 19.6632C292.514 23.6946 301.415 31.9496 306.821 39.1467C312.227 46.3438 313.145 51.0249 312.153 52.9402C311.161 54.8515 303.376 53.9894 297.973 47.5879C292.567 41.1865 290.522 39.4679 288.347 37.8832C286.173 36.2985 284.917 38.5424 285.771 41.3115C286.626 44.0847 289.458 51.4748 293.745 56.5561C298.028 61.6375 300.734 63.2267 301.852 67.3153C302.969 71.4079 301.981 74.4395 299.67 75.3634C297.36 76.2873 289.381 74.0367 284.83 67.9647C280.284 61.8926 275.537 53.5107 272.176 47.5045C268.815 41.4982 260.379 30.475 257.146 27.3064C253.917 24.1377 250.157 20.7048 248.376 19.6481C246.594 18.5914 244.946 18.4563 244.747 19.1827C244.547 19.9092 247.316 25.6917 248.567 29.3988C249.819 33.106 249.156 35.2813 247.97 36.072C246.78 36.8627 242.295 36.1329 238.341 29.9963C234.388 23.8598 226.48 13.2956 221.137 8.87113C215.798 4.44663 207.88 1.2097 195.938 0.868231C183.995 0.530822 182.94 0.9238 183.268 1.84957C183.596 2.77535 192.359 21.3208 205.089 26.936C217.819 32.5512 229.429 33.0872 240.707 37.516C251.984 41.9448 260.229 48.4173 263.854 53.3683C267.48 58.3193 269.555 62.0351 269.372 67.8805C269.194 73.7259 268.141 75.1986 264.634 75.5411C261.126 75.8836 256.979 73.7739 254.121 68.3972C251.263 63.0206 248.227 56.7629 244.722 53.6631C241.217 50.5632 233.916 48.102 228.013 48.5077C222.111 48.9135 222.866 53.5296 223.332 55.8681C223.797 58.2066 232.14 78.4892 236.808 84.2772C241.481 90.0652 245.743 96.0883 253.628 99.719C261.512 103.35 264.086 103.465 266.422 106.097C268.758 108.729 267.823 111.944 266.182 112.584C264.546 113.224 261.567 112.524 258.235 110.65C254.904 108.776 252.862 108.016 250.93 107.722C248.998 107.428 248.18 110.351 248.65 112.105C249.116 113.859 251.506 120.112 252.087 125.081C252.668 130.05 252.544 144.314 251.267 147.082C249.987 149.85 245.732 150.695 242.825 145.655C239.918 140.615 239.926 129.83 239.224 123.018C238.519 116.205 235.197 101.09 231.582 93.2122C227.97 85.3344 222.934 78.0199 219.531 74.0473C216.128 70.0708 215.35 68.2272 213.152 64.6777C210.955 61.1283 210.671 60.4907 208.545 59.3525C206.418 58.2144 203.431 63.8183 203.425 71.1982C203.42 78.5782 203.907 90.4279 204.683 101.141C205.454 111.854 204.924 120.647 207.511 125.532C210.097 130.417 221.181 144.182 228.65 150.33C236.115 156.473 242.326 161.803 243.729 164.84C245.131 167.874 241.799 171.72 234.332 168.828C226.865 165.937 223.242 162.975 217.624 157.572C212.006 152.169 209.272 149.057 208.456 149.134C207.644 149.206 209.699 169.772 209.246 178.5C208.798 187.227 206.658 193.591 203.872 194.693C201.087 195.795 199.055 193.472 197.784 188.539C196.509 183.605 196.983 172.402 196.578 171.476C196.173 170.546 193.728 177.454 190.012 179.887C186.296 182.319 181.016 180.461 182.531 174.308C184.045 168.155 189.45 154.58 191.776 149.418C194.101 144.256 194.216 142.109 194.51 140.481C194.799 138.858 193.047 125.107 192.024 113.899C191.001 102.694 189.468 83.6829 187.198 68.6819C184.931 53.6808 181.142 39.4379 178.68 31.1753C176.218 22.9127 167.872 10.8503 167.398 10.4724C166.923 10.0905 161.69 27.6516 161.58 45.3098C161.474 62.968 160.906 96.1896 162.485 102.284C164.063 108.378 166.541 111.4 171.817 119.113C177.093 126.825 178.849 128.503 178.846 132.692C178.843 136.882 173.062 138.302 170.295 135.702C167.533 133.102 166.024 131.591 164.853 127.401C163.683 123.211 161.964 120.445 161.355 120.274C160.751 120.107 157.806 133.262 158.973 142.481C160.139 151.701 160.3 158.907 159.461 163.432C158.622 167.958 154.678 170.634 152.333 168.875C149.988 167.111 148.573 153.536 147.906 148.843C147.24 144.149 147.492 143.228 146.737 142.891C145.983 142.553 141.785 148.761 136.478 150.527C131.171 152.293 127.637 150.038 129.836 146.236C132.035 142.434 138.847 136.167 140.992 133.489C143.137 130.811 143.89 128.721 144.481 125.292C145.072 121.862 144.584 111.299 146.558 104.29C148.532 97.2848 149.952 93.2712 150.114 87.917C150.276 82.5628 144.211 83.5042 139.17 87.6736C134.129 91.843 129.165 96.9583 124.123 97.8194C119.084 98.6804 114.912 98.0481 115.544 93.7984C116.176 89.5487 118.541 86.0838 125.868 81.2868C133.194 76.4898 144.85 69.8042 147.217 63.2703C149.584 56.7365 147.621 49.1765 147.389 43.5866C147.158 37.9966 148.5 35.0058 149.368 29.8876C150.236 24.7693 151.895 22.0955 150.556 20.9132C149.217 19.731 142.912 31.7746 139.913 41.7707C136.914 51.7668 134.707 56.807 127.772 64.3565C120.837 71.9101 111.226 80.4846 103.267 90.8709C95.3067 101.257 88.0581 110.621 85.3713 121.169C82.6886 131.718 79.8512 148.4 79.8507 149.191C79.8501 149.983 85.5222 154.079 87.9715 157.576C90.4209 161.073 89.7453 163.345 88.5794 164.631C87.4134 165.917 83.6722 163.832 81.5874 161.497C79.5025 159.165 78.7686 157.934 78.2771 158.303C77.7857 158.673 79.4954 168.981 76.7315 173.821C73.9677 178.666 69.5527 176.516 68.3904 172.711C67.2281 168.907 67.9657 164.86 67.3533 164.121C66.7408 163.386 64.4058 170.192 61.7063 170.251C59.0067 170.309 55.8788 167.73 57.9688 162.949C60.0587 158.165 68.2215 153.51 68.7755 150.872C69.3294 148.234 72.1009 132.839 74.1935 124.437C76.2861 116.036 77.3916 114.072 77.5766 110.942C77.7615 107.813 72.4886 107.318 67.6389 111.244C62.7892 115.166 59.3523 118.906 56.4019 123.503C53.4555 128.1 50.6936 130.306 48.7293 129.753C46.7649 129.2 46.2182 121.653 49.6006 114.726C52.979 107.795 59.487 100.87 69.9791 97.1959C80.4712 93.5216 90.1675 90.0333 96.8593 81.6961C103.551 73.3589 110.863 61.4013 115.899 52.3241C120.935 43.2469 130.394 25.2829 132.301 20.9285C134.204 16.5742 135.308 15.7143 133.409 14.7956C131.51 13.8768 128.131 16.2044 123.158 22.1478C118.185 28.0952 115.24 31.775 108.242 36.8604C101.244 41.9458 98.8484 47.8343 97.9857 50.8417C97.1229 53.8491 99.6363 58.6328 99.8158 62.9277C99.9954 67.2227 100.732 69.6751 97.5402 71.942C94.3479 74.2089 90.5451 73.0411 90.3651 69.2983C90.1852 65.5554 91.6578 61.1398 90.8631 59.9133C90.0683 58.6868 87.8558 64.6363 84.906 68.3728C81.9602 72.1135 80.3627 75.1162 76.8631 75.7267C73.3675 76.3371 69.8097 73.2048 72.6958 67.6861C75.5819 62.1674 84.851 54.3842 84.8521 52.8498C84.8532 51.3153 81.1096 52.5386 74.5454 52.8423C67.9812 53.1461 66.2648 52.1625 66.0202 47.9284C65.7756 43.6943 74.7353 42.7834 81.2992 42.9099C87.8631 43.0364 88.8455 43.0979 90.381 41.6295C91.9165 40.1571 94.9831 37.5857 95.2324 35.3775C95.4775 33.1694 86.5236 31.6285 77.8722 32.8482C69.2208 34.0679 65.1731 34.8647 52.529 44.9148C39.8849 54.9648 37.4269 57.8492 35.4638 61.282C33.5006 64.7148 28.7139 65.7547 27.5501 63.9759C26.3864 62.197 26.76 56.1853 37.2567 46.1906C47.7533 36.1999 57.4536 27.2479 70.4012 24.1315C83.3488 21.011 97.087 24.8244 102.853 22.7421C108.623 20.6597 118.689 10.3602 120.899 8.09264C123.109 5.82504 123.6 5.88632 123.418 4.78205C123.236 3.67776 111.583 2.86959 105.139 4.68354C98.6955 6.49751 96.614 10.7543 94.1196 13.5048C91.6251 16.2552 89.4914 19.8381 86.7927 18.6955C84.0941 17.5488 84.6645 14.6955 86.5375 12.4114C88.4105 10.1273 89.7588 9.29615 89.2927 8.36216C88.8265 7.42816 85.5539 8.56651 85.7634 5.14056C85.9729 1.71053 89.7664 -1.24601 98.9623 -3.26503C108.158 -5.28403 118.393 -6.88826 128.416 -6.62125C138.442 -6.35424 144.155 -7.75468 151.432 -11.6952C158.709 -15.6356 159.696 -15.7405 163.54 -16.4643C167.385 -17.1882 171.533 -16.7874 171.533 -16.7874L171.55 -16.7874Z" fill="#5D917E"/>
<path d="M1081.8 109.556C1082.06 110.549 1086.6 110.667 1088.3 110.402C1090.04 110.139 1091.59 108.378 1092.37 108.378C1093.15 108.341 1094.41 108.366 1096.54 108.79C1098.64 109.212 1098.43 107.161 1100.49 105.975C1102.51 104.788 1104.04 104.867 1107.93 104.752C1111.86 104.643 1110.86 103.453 1112.62 102.053C1114.37 100.693 1115.02 100.336 1117.72 100.396C1120.43 100.459 1120.45 98.5373 1121.95 98.3795C1123.4 98.2196 1124.87 96.3733 1128.54 96.0151C1132.2 95.6569 1134.09 94.8121 1134.87 96.4216C1135.62 97.9886 1134.92 98.5013 1134.71 99.5106C1134.5 100.52 1132.22 100.714 1131.73 101.002C1131.24 101.29 1131.17 102.737 1131.55 103.7C1131.93 104.663 1132.31 104.914 1132.28 106.327C1132.28 107.701 1131.45 107.812 1130.98 107.869C1130.51 107.885 1130.47 109.294 1130.37 110.463C1130.27 111.633 1130.77 111.858 1131.11 112.112C1131.46 112.325 1131.49 114.639 1131.1 115.444C1130.7 116.285 1129.31 116.607 1129.17 117.775C1128.99 118.981 1129.74 118.902 1130.02 119.66C1130.26 120.38 1129.33 123.86 1129.3 124.33C1129.28 124.8 1130.14 125.512 1130.7 126.09C1131.22 126.706 1132.3 126.368 1133.12 125.59C1133.91 124.805 1136.13 124.412 1137.05 123.322C1138 122.234 1137.33 120.044 1137.79 118.028C1138.25 116.052 1139.6 117.26 1139.87 116.449C1140.19 115.64 1139.87 114.213 1140.24 111.684C1140.65 109.193 1142.81 108.366 1143.06 108.103C1143.34 107.882 1145.11 105.584 1145.19 104.055C1145.27 102.527 1147.97 101.062 1148.06 101.656C1148.15 102.209 1149.45 103.569 1150.22 104.475C1151 105.341 1150.19 106.669 1150.03 108.229C1149.91 109.752 1151.99 109.038 1152.49 109.849C1153 110.66 1152.55 111.775 1152.28 113.915C1152.01 116.096 1152.88 116.654 1153.45 117.037C1154.06 117.422 1155.37 117.844 1155.86 118.927C1156.32 119.97 1157.01 120.279 1157.99 120.293C1158.97 120.267 1159.81 119.095 1160.19 117.233C1160.52 115.409 1161.96 115.484 1162.09 114.547C1162.18 113.609 1162.72 112.267 1162.1 111.332C1161.48 110.438 1161.12 109.753 1161.4 107.374C1161.68 104.994 1162.31 102.677 1161.64 102.053C1160.93 101.467 1161.22 98.1083 1161.46 96.4745C1161.7 94.8003 1160.58 94.5873 1159.82 93.9953C1159.07 93.3668 1159.89 91.9581 1160.44 90.3407C1161 88.7234 1159.77 88.1474 1159.87 87.0185C1160.01 85.8874 1162.19 84.55 1163.91 84.0131C1165.66 83.4782 1166.8 83.5372 1167.83 82.5705C1168.86 81.6037 1168.24 80.6327 1168.86 79.291C1169.52 77.9919 1170.2 77.6737 1171.41 76.8752C1172.67 76.0383 1172.47 74.6539 1172.78 72.5925C1173.12 70.5331 1174.16 70.0753 1175.16 68.9889C1176.12 67.9006 1176.3 65.833 1176.94 65.5533C1177.55 65.2717 1177.19 66.1555 1177.14 67.1324C1177.09 68.1094 1177.32 68.9467 1177.73 70.106C1178.14 71.2656 1178.35 71.667 1178.47 74.6932C1178.59 77.679 1178.01 80.3969 1178.58 81.5606C1179.15 82.7281 1184.4 78.9609 1185.99 77.0438C1187.59 75.1266 1187.31 74.3683 1187.81 72.3131C1188.27 70.2964 1189.06 70.9268 1189.77 68.6102C1190.44 66.2509 1190.28 65.5759 1191.12 65.1117C1191.97 64.6478 1192.32 66.3119 1193.25 67.9661C1194.18 69.6244 1194.33 69.7865 1194.42 71.0879C1194.51 72.3487 1196.34 73.5003 1196.43 74.6029C1196.54 75.6692 1195.57 76.871 1194.72 78.16C1193.91 79.4511 1194.3 80.1788 1194.24 81.3504C1194.18 82.522 1192.46 85.4527 1192.46 85.4527C1192.46 85.4527 1191.28 87.0376 1191.2 88.4849C1191.13 89.9321 1191.79 90.7511 1191.52 92.2651C1191.24 93.8198 1189.77 94.1337 1188.81 95.3801C1187.88 96.6246 1188.44 101.597 1188.03 102.754C1187.61 103.907 1183.11 103.755 1180.11 105.009C1177.1 106.303 1176.38 108.03 1173.73 110.677C1171.12 113.366 1168.97 113.291 1168.48 114.363C1168.03 115.401 1167.97 117.357 1167.57 118.275C1167.13 119.195 1165.36 120.083 1164.2 120.453C1163.04 120.788 1163.2 121.462 1163.14 122.675C1163.08 123.887 1162.52 124.837 1161.55 126.201C1160.61 127.563 1157.56 128.153 1156.83 129.407C1156.1 130.662 1157.56 131.327 1157.88 132.559C1158.17 133.83 1157.33 134.1 1156.84 135.172C1156.4 136.206 1155.43 137.529 1155.41 138.666C1155.42 139.805 1156.31 140.908 1157.31 141.354C1158.31 141.76 1161.62 140.635 1163.09 139.46C1164.56 138.321 1165.49 137.154 1166.18 135.974C1166.86 134.754 1170.06 134.489 1170.35 133.366C1170.61 132.241 1172.85 130.634 1173.95 130.456C1175.06 130.318 1174.08 131.129 1173.73 132.404C1173.43 133.681 1172.98 135.58 1172.48 136.847C1171.99 138.114 1170.29 138.225 1169.75 140.314C1169.25 142.406 1170.15 141.746 1169.85 143.693C1169.56 145.637 1166.45 145.793 1166.02 148.002C1165.59 150.215 1165.45 149.814 1164.78 150.722C1164.11 151.63 1162.12 152.819 1161.36 153.918C1160.56 155.014 1162.1 155.448 1161.77 156.452C1161.48 157.498 1159.53 157.432 1158.73 158.371C1157.97 159.311 1158.63 160.248 1159.36 162.167C1160.08 164.128 1158.55 164.95 1159.14 166.351C1159.73 167.792 1162.57 168.334 1163.94 167.544C1165.36 166.755 1166.86 166.362 1168.13 166.152C1169.36 165.98 1170.42 164.271 1171.3 161.886C1172.13 159.498 1174.79 157.283 1175.7 156.468C1176.64 155.655 1177.73 153.477 1177.88 152.151C1178.07 150.787 1178.96 149.5 1180.22 150.195C1181.47 150.887 1182.16 150.455 1182.61 151.653C1183.1 152.853 1182.18 159.943 1180.92 160.78C1179.62 161.575 1178.14 162.912 1178.67 164.191C1179.15 165.432 1178.74 168.118 1178.24 170.169C1177.78 172.186 1176.79 171.585 1176.61 172.868C1176.42 174.151 1177.14 174.034 1177.46 176.091C1177.82 178.187 1177.19 181.216 1177.69 182.181C1178.15 183.148 1178.8 183.413 1180.11 182.347C1181.38 181.275 1182.34 180.187 1183.81 179.913C1185.27 179.636 1186.78 177.755 1187.48 175.592C1188.19 173.393 1189.85 172.382 1190.84 170.706C1191.83 169.03 1191.42 167.049 1191.8 165.695C1192.19 164.341 1193.69 163.322 1194.36 162.654C1195.06 162.023 1195.7 160.098 1195.57 158.168C1195.4 156.2 1195.74 155.746 1195.95 153.952C1196.12 152.197 1197.08 151.068 1197.77 151.421C1198.41 151.767 1197.8 152.325 1197.95 153.902C1198.06 155.517 1197.35 156.419 1197.82 157.818C1198.34 159.218 1200 161.931 1202.24 161.929C1204.52 161.93 1206.77 160.006 1207.75 158.569C1208.72 157.169 1209.08 153.265 1209.24 150.883C1209.41 148.461 1210.1 148.066 1210.84 146.572C1211.59 145.083 1211.35 142.912 1211.35 142.912C1211.35 142.912 1211.15 141.491 1211.5 140.725C1211.85 139.958 1212.65 139.097 1213 137.429C1213.36 135.761 1212.7 134.942 1211.42 133.152C1210.14 131.362 1211.54 130.061 1211.63 128.455C1211.71 126.85 1211.1 125.721 1209.95 125.348C1208.79 124.975 1208.62 123.633 1208.89 122.98C1209.2 122.289 1209.47 120.185 1209.46 118.851C1209.42 117.475 1208.09 117.329 1206.43 116.889C1204.76 116.449 1204.34 115.565 1204.38 114.665C1204.43 113.765 1204.44 112.001 1205.06 110.7C1205.72 109.442 1206.76 109.727 1207.16 107.984C1207.57 106.201 1206.78 105.493 1206.84 104.439C1206.89 103.385 1207.51 102.08 1208.18 100.55C1208.85 99.0154 1208.05 97.7992 1208.46 95.1134C1208.87 92.3912 1211.19 90.0769 1211.5 87.1904C1211.8 84.3447 1211.97 85.6053 1212.84 84.0042C1213.7 82.4395 1213.29 78.4586 1214.2 76.6242C1215.16 74.7514 1215.56 74.5772 1216.17 72.6496C1216.74 70.7565 1217.14 70.6592 1217.52 68.679C1217.89 66.6986 1218.91 66.1253 1219.25 66.928C1219.57 67.7287 1219.69 68.284 1219.62 69.7312C1219.54 71.1785 1219.71 71.7764 1220.34 73.9273C1220.97 76.0779 1222.15 77.7078 1222.34 79.2099C1222.54 80.6715 1222.66 81.4619 1223.81 83.4445C1224.97 85.3866 1224.8 84.8698 1225.21 86.7731C1225.66 88.6785 1228.33 93.9146 1228.22 96.0673C1228.1 98.2199 1229.9 100.703 1230.62 103.29C1231.31 105.915 1229.92 109.411 1230.35 110.921C1230.74 112.433 1231.23 113.439 1231.24 114.773C1231.22 116.064 1230.7 116.98 1231.48 119.333C1232.26 121.687 1232.85 123.015 1232.33 124.906C1231.83 126.839 1229.3 128.825 1226.39 131.146C1223.49 133.466 1221.63 136.662 1220.61 139.003C1219.59 141.304 1218.28 144.492 1217.14 149.883C1216.04 155.236 1214.52 161.003 1214.27 164.282C1214.06 167.605 1212.47 171.131 1213.24 172.228C1214.04 173.327 1216.07 172.847 1218.74 170.514C1221.45 168.184 1221.47 169.913 1222.18 168.417C1222.88 166.961 1223.13 165.133 1223.62 164.02C1224.11 162.948 1225.98 163.123 1226.38 160.713C1226.74 158.301 1227.33 155.352 1228.47 154.509C1229.61 153.666 1230.04 151.493 1230.82 150.082C1231.56 148.71 1233.58 146.657 1233.86 147.456C1234.13 148.254 1233.76 149.373 1232.95 151.214C1232.19 153.056 1233.2 155.503 1233.03 157.181C1232.83 158.857 1231.87 159.982 1231.76 161.35C1231.64 162.718 1233.31 163.862 1233.36 166.689C1233.45 169.556 1232.32 169.342 1232.04 171.051C1231.75 172.764 1233.72 174.082 1233.54 175.405C1233.39 176.691 1232.84 176.82 1232.71 178.578C1232.54 180.296 1233.42 180.615 1234.25 182.853C1235.11 185.092 1234.53 185.652 1234.71 186.682C1234.86 187.669 1235.69 189.126 1237.09 189.276C1238.49 189.427 1240.38 187.801 1242.05 185.771C1243.73 183.74 1244.95 182.86 1245.44 182.418C1245.94 181.973 1245.96 180.015 1245.62 177.643C1245.26 175.312 1246.35 174.035 1246.92 175.085C1247.49 176.135 1247.43 177.424 1247.59 178.766C1247.76 180.108 1247.28 183.221 1248.12 185.147C1248.97 187.073 1249.92 186.809 1250.9 187.645C1251.87 188.48 1254.99 187.232 1255.59 186.397C1256.18 185.566 1258.45 184.115 1258.86 182.331C1259.26 180.548 1259.77 175.359 1259.08 173.595C1258.38 171.832 1258.85 170.445 1259.46 170.79C1260.07 171.135 1261.13 171.897 1261.56 172.546C1262 173.194 1262.1 175.789 1261.99 177.86C1261.89 179.932 1262.11 180.143 1263.7 181.242C1265.29 182.345 1266.43 181.461 1267.92 183.107C1269.4 184.753 1270.88 186.399 1272.28 186.708C1273.67 187.016 1275.1 183.793 1275.4 182.399C1275.71 181.004 1276.34 174.879 1275.93 172.191C1275.52 169.503 1273.82 167.61 1274.24 165.591C1274.65 163.572 1275.76 160.414 1273.59 158.419C1271.42 156.424 1271.94 152.529 1270.31 150.639C1268.68 148.75 1266.69 144.805 1267.33 144.603C1267.96 144.4 1268.8 144.992 1269.91 146.306C1271.01 147.619 1273.87 148.552 1276.98 147.616C1280.09 146.681 1280.19 147.548 1283.2 148.566C1286.21 149.584 1286.98 148.372 1285.77 145.956C1284.56 143.539 1284.59 141.5 1284.03 138.65C1283.47 135.796 1280.51 135.406 1278.64 133.821C1276.76 132.232 1276.64 128.461 1274.77 128.21C1272.9 127.954 1271.26 127.869 1270.04 127.102C1268.83 126.336 1266.26 126.044 1263.55 125.196C1260.85 124.348 1258.75 120.987 1257.06 119.602C1255.37 118.222 1254.8 116.347 1254.87 115.724C1254.98 115.064 1254.66 112.812 1254 111.915C1253.35 110.979 1252.79 105.812 1252.69 102.397C1252.56 98.9791 1252.04 97.5378 1250.74 95.3932C1249.45 93.2485 1249.64 89.6081 1248.59 87.0862C1247.54 84.5605 1246.52 84.6252 1246.07 81.9758C1245.62 79.3629 1244.68 77.042 1243.49 75.0573C1242.29 73.1133 1242.32 70.3708 1242.08 68.0823C1241.85 65.8343 1240.22 65.3963 1239.83 63.9246C1239.44 62.4124 1240.12 60.6835 1239.64 58.4233C1239.17 56.1226 1236.4 54.4135 1236.91 52.9075C1237.38 51.4034 1236.51 49.277 1236.24 47.6169C1235.97 45.9567 1236.49 45.8657 1237.34 44.6537C1238.14 43.4801 1239.34 43.1481 1242.12 43.2924C1244.89 43.4368 1245.26 43.22 1245.51 41.4283C1245.8 39.602 1246.99 38.6029 1248.34 39.8476C1249.68 41.0924 1249.51 42.2213 1249.85 45.3775C1250.24 48.495 1253.7 51.4226 1254.24 55.3327C1254.82 59.2448 1253.54 61.8857 1253.33 63.0493C1253.07 64.2513 1254.32 65.1777 1254.61 67.7459C1254.87 70.2674 1254.3 73.8065 1253.92 74.9659C1253.59 76.1234 1253.83 76.8834 1254.9 78.8577C1255.97 80.7956 1255.84 82.7112 1255.66 84.5436C1255.53 86.3779 1256.78 87.1505 1258.47 90.1C1260.12 93.088 1259.49 93.1729 1259.48 95.5262C1259.48 97.9201 1261.99 99.9697 1263.19 102.621C1264.34 105.307 1263.43 105.613 1263.48 106.831C1263.54 108.09 1264.73 109.25 1266.18 110.699C1267.64 112.149 1267.34 113.426 1268.13 114.76C1268.96 116.096 1271.99 116.647 1273.23 114.712C1274.43 112.774 1275.54 110.166 1275.45 108.278C1275.35 106.391 1276.23 101.494 1277.65 103.686C1279.06 105.877 1279.21 106.12 1279.88 108.273C1280.51 110.424 1281.68 110.562 1283.9 112.405C1286.12 114.207 1285.69 115.595 1287.14 117.317C1288.57 119.078 1291.45 120.402 1292.87 119.537C1294.25 118.629 1293.09 117.472 1293.35 113.286C1293.64 109.107 1292.74 106.942 1291.78 105.046C1290.81 103.191 1291.49 101.463 1290.76 99.7012C1290.03 97.9355 1288.7 97.1226 1288.06 95.9143C1287.41 94.7061 1287.82 91.5076 1289.75 91.3357C1291.64 91.1211 1294.25 93.6471 1295.71 95.0562C1297.21 96.5078 1299.43 96.6237 1302.46 97.1713C1305.49 97.7598 1304.44 99.156 1305.56 100.312C1306.67 101.427 1308.04 100.912 1310.54 101.042C1313.04 101.172 1315.56 101.694 1316.39 101.619C1317.22 101.544 1317.39 99.8292 1316.23 97.1798C1315.04 94.5283 1312.4 90.1558 1310.16 87.9217C1307.89 85.6452 1305.44 82.2252 1302.32 81.9044C1299.2 81.5471 1299.35 80.8478 1296.41 79.2845C1293.52 77.7233 1291.65 77.3906 1288.59 76.642C1285.57 75.8954 1286.36 74.2133 1287.19 74.098C1288.03 73.9462 1287.76 74.4812 1289.12 75.4138C1290.52 76.389 1292.31 76.0507 1294.37 75.5687C1296.47 75.0886 1298.69 75.5167 1300.8 74.9233C1302.91 74.3256 1302.91 72.7203 1301.39 70.995C1299.91 69.2718 1295.5 66.6887 1293.82 65.7397C1292.18 64.8293 1290.03 63.9737 1287.23 64.2996C1284.47 64.6276 1279.25 64.0023 1277.44 63.2013C1275.64 62.4004 1273.85 58.3482 1273.59 55.786C1273.29 53.2624 1272.48 50.7853 1271.83 48.1663C1271.22 45.5454 1268.62 41.2558 1267.73 38.6976C1266.89 36.105 1267.15 35.6875 1268.07 35.9308C1269 36.1378 1270.7 37.3603 1272.34 38.2707C1274.02 39.1832 1275.35 37.7603 1276.65 37.71C1277.94 37.6595 1281.86 38.5298 1283.87 40.5936C1285.89 42.6209 1290.58 48.9418 1292.33 51.5041C1294.07 54.103 1293.29 55.5135 1294.25 57.409C1295.22 59.264 1296.97 59.55 1298.72 61.3683C1300.47 63.1464 1302.48 65.8404 1305.57 68.2733C1308.63 70.6677 1312.7 73.7819 1314.3 73.7881C1315.87 73.8289 1316.4 71.9378 1316.33 69.5399C1316.3 67.1074 1315.24 64.8575 1314.66 63.1405C1314.13 61.3852 1311.31 57.5152 1311.34 56.9274C1311.44 56.4247 1312.41 55.9222 1313.35 56.6784C1314.33 57.4367 1315.43 58.9813 1316.34 60.2442C1317.29 61.5497 1320.45 61.2422 1322.04 62.268C1323.63 63.2939 1324.64 63.5779 1327.11 64.4135C1329.61 65.251 1329.02 67.6508 1331.79 68.7338C1334.55 69.8207 1334.14 67.9132 1335.61 67.6398C1337.11 67.3645 1340.04 67.5168 1340.36 65.18C1340.64 62.841 1337.06 57.7526 1335.54 55.32C1334.03 52.8469 1331.64 50.3735 1328.94 48.7819C1326.24 47.1497 1322.49 43.2311 1322.73 43.008C1322.98 42.7851 1325.58 41.8226 1328.1 42.3075C1330.59 42.7904 1331.52 42.8391 1335.14 42.6736C1338.76 42.508 1337.71 40.8478 1339.77 41.073C1341.84 41.2983 1346.18 40.8572 1348.52 39.5683C1350.9 38.2816 1354.89 36.1721 1355.08 34.7715C1355.27 33.3709 1350.78 29.1744 1349.28 28.7059C1347.77 28.197 1347.26 27.4631 1345.36 26.3073C1343.5 25.1496 1340.7 25.3579 1339.26 26.0671C1337.81 26.7359 1335.79 25.651 1333.21 25.3222C1330.64 25.0298 1330.38 26.2359 1327.41 26.1584C1324.39 26.0424 1323.79 24.7956 1320.96 24.8802C1318.13 24.9689 1316.55 24.4154 1316.9 23.8438C1317.2 23.2701 1319.14 22.2328 1322.58 20.2165C1325.98 18.2349 1326.3 16.4875 1326.17 15.3058C1326.07 14.0854 1322.46 13.4261 1320.36 13.7887C1318.27 14.1512 1317.9 14.368 1316.01 13.7981C1314.08 13.2262 1310.27 14.0484 1307.87 14.9846C1305.43 15.9186 1303.73 14.7285 1300.03 15.6381C1296.34 16.5841 1290.63 22.9944 1289.16 22.6414C1287.72 22.254 1285.49 20.8409 1283.32 20.2201C1281.19 19.5609 1280.1 18.8373 1276.61 18.8509C1273.11 18.8279 1275.15 19.0108 1271.9 18.7244C1268.66 18.438 1268.36 16.7759 1266.71 15.9831C1265.11 15.1924 1265.28 15.5957 1264.53 14.9672C1263.82 14.3408 1261.99 6.5225 1262.12 4.09421C1262.24 1.66593 1262.02 1.34562 1260.27 -0.3552C1258.52 -2.01549 1260.16 -7.97067 1259.04 -9.12614C1257.93 -10.2816 1256.46 -12.3575 1256.77 -13.8333C1257.09 -15.3453 1256.51 -17.0257 1255.8 -19.2576C1255.09 -21.453 1255.7 -21.9292 1255.95 -23.6804C1256.2 -25.4316 1255.19 -27.094 1254.48 -30.8947C1253.74 -34.6975 1254.75 -36.1364 1255.84 -38.2748C1256.97 -40.3745 1257.26 -42.1602 1257.55 -44.6573C1257.88 -47.1484 1259.51 -46.9861 1260.88 -48.2485C1262.27 -49.4685 1261.67 -51.5808 1261.25 -53.1719C1260.82 -54.7225 1262.54 -58.3202 1263.68 -60.0653C1264.87 -61.8084 1264.45 -63.4765 1264.81 -65.852C1265.13 -68.2296 1265.55 -74.9106 1265.55 -74.9106C1265.55 -74.9106 1265.38 -76.1349 1260.77 -76.3747C1256.16 -76.6146 1246.76 -77.0621 1246.32 -75.9878C1245.87 -74.9135 1246.71 -65.338 1245.55 -59.008C1244.4 -52.674 1240.38 -45.5904 1240.11 -43.2107C1239.83 -40.8717 1238.45 -40.1219 1238.04 -36.6113C1237.66 -33.1026 1235.58 -30.9747 1235.7 -29.3185C1235.77 -27.628 1236.2 -27.6056 1236.83 -23.8862C1237.46 -20.1665 1236.81 -19.1025 1236.91 -17.2925C1237.05 -15.4803 1238.94 -12.5205 1239.36 -9.36056C1239.82 -6.1985 1240.18 -4.61118 1239.68 -3.49865C1239.19 -2.3494 1239.62 -2.28648 1240.04 -1.20397C1240.49 -0.160093 1241.51 2.94951 1241.26 5.52574C1241 8.10195 1241.16 8.18722 1239.9 9.02417C1238.64 9.82057 1237.12 9.70488 1236.04 9.41285C1234.95 9.16135 1234.76 8.40319 1233.14 6.94956C1231.5 5.48998 1230.76 2.31356 1231.01 0.525689C1231.22 -1.26812 1230.88 -3.00932 1228.97 -4.75889C1227.06 -6.50441 1226.5 -8.497 1226.84 -10.5563C1227.14 -12.6178 1226.54 -16.1002 1225.38 -17.1037C1224.21 -18.1072 1223.57 -20.9248 1223.95 -22.7875C1224.32 -24.6095 1223.38 -25.4835 1222.42 -26.5943C1221.46 -27.7417 1221.87 -31.0172 1222.73 -34.0696C1223.6 -37.122 1224.8 -37.6895 1225.59 -39.1365C1226.37 -40.6241 1224.77 -41.6501 1225.31 -43.5451C1225.84 -45.4767 1227.95 -46.7817 1228.6 -48.7072C1229.28 -50.5942 1229.5 -56.3468 1230.52 -57.7451C1231.53 -59.1029 1230.91 -59.9605 1231.8 -62.1089C1232.74 -64.2958 1233.68 -65.6984 1233.64 -68.0538C1233.61 -70.4497 1234.56 -72.0466 1236.31 -74.8944C1238.03 -77.7481 1238.25 -82.0087 1237.89 -83.3607C1237.53 -84.7533 1235.37 -84.6665 1229.4 -84.5457C1223.43 -84.4252 1204.69 -83.7898 1203.28 -83.0786C1201.87 -82.3674 1202.45 -80.7681 1201.13 -77.15C1199.77 -73.5746 1198.4 -72.0365 1197.29 -71.1143C1196.14 -70.1537 1196.74 -70.2814 1196.26 -67.7942C1195.77 -65.2707 1194.67 -63.6818 1194.46 -59.6928C1194.25 -55.7038 1193.85 -53.2533 1193.36 -52.1811C1192.88 -51.1454 1193.43 -49.6657 1194.04 -47.8331C1194.69 -45.9947 1193.98 -40.7388 1193.21 -38.6978C1192.48 -36.6181 1193.13 -35.7222 1193.22 -34.4208C1193.27 -33.1256 1192.57 -27.7887 1192.66 -26.6456C1192.76 -25.4658 1192.15 -23.5748 1191.48 -22.0811C1190.86 -20.6218 1192.78 -17.6196 1192.52 -14.1453C1192.26 -10.6306 1191.59 -7.6451 1191.3 -5.69718C1190.96 -3.79191 1192.9 0.426613 1192.55 3.42854C1192.16 6.42838 1191.49 9.41406 1189.63 11.2399C1187.73 13.1003 1184.04 16.2821 1180.81 18.7038C1177.59 21.1255 1174.53 24.9255 1172.9 26.174C1171.22 27.4608 1171.49 28.4137 1170.78 30.6898C1170.07 32.9294 1167.07 34.1432 1165.97 35.6186C1164.92 37.0556 1165.88 38.9873 1165.02 40.3939C1164.16 41.7599 1164.26 43.7281 1163.51 44.6281C1162.75 45.4914 1159.45 44.8483 1157.95 46.6927C1156.4 48.5714 1155.72 47.951 1154.28 49.4447C1152.82 50.9788 1151.11 50.8084 1151.12 51.9881C1151.14 53.2042 1153.08 53.5816 1154.97 54.1473C1156.86 54.7172 1157.7 55.9356 1157.66 56.7586C1157.62 57.5815 1156.47 59.2453 1155.14 60.7047C1153.81 62.1273 1152.42 62.6401 1151.91 63.9107C1151.42 65.1775 1150.96 66.4098 1149.55 67.9054C1148.18 69.4032 1147.55 69.4111 1146.68 71.0487C1145.81 72.6499 1143.65 73.44 1142.37 74.6702C1141.13 75.8984 1138.5 76.7817 1135.64 77.3406C1132.79 77.936 1131.87 77.5752 1129.5 77.7653C1127.18 77.9575 1126.53 79.8466 1124.71 80.1422C1122.86 80.4764 1118.58 78.1365 1115.41 78.0487C1112.24 78.0017 1110.62 76.6251 1110.49 76.8136C1110.41 77.0041 1108.86 77.3544 1107.25 77.4292C1105.63 77.5039 1103.64 75.8314 1102.81 76.6907C1101.99 77.5094 1099.86 76.8908 1097.87 76.6695C1095.84 76.4867 1095.05 75.9738 1094.37 76.8006C1093.7 77.6681 1091.53 76.4942 1089.66 76.8322C1087.84 77.1684 1086.72 77.5817 1086.55 79.4952C1086.41 81.4106 1087.04 81.9519 1088.58 82.6616C1090.11 83.3672 1089.76 83.3489 1090 84.6583C1090.25 85.9637 1091.74 85.1795 1092.22 85.7169C1092.7 86.25 1095.47 85.8857 1096.63 86.2222C1097.83 86.5204 1096.43 87.6634 1096.71 88.385C1096.98 89.1431 1096.76 89.6438 1096.67 90.6592C1096.54 91.6322 1093.97 92.0108 1093.11 91.9659C1092.25 91.921 1091.88 94.5278 1090.76 95.6849C1089.67 96.8847 1088.11 96.1366 1087.57 97.4013C1087.03 98.666 1087.25 99.112 1086.17 100.271C1085.05 101.388 1084.9 101.266 1085.01 102.134C1085.12 102.965 1084.93 105.073 1083.94 106.119C1082.94 107.164 1081.5 108.54 1081.76 109.574L1081.8 109.556ZM1202.16 30.3577C1203.36 29.1641 1204.98 28.7406 1207.16 27.7153C1209.29 26.6879 1210.77 26.8423 1211.97 27.9655C1213.12 29.1231 1213.59 30.7163 1214.17 33.1407C1214.79 35.567 1213.91 37.4398 1214.21 39.1831C1214.51 40.8857 1211.81 41.6069 1210.47 42.4398C1209.09 43.2707 1209.03 43.7389 1208.78 45.4903C1208.5 47.2395 1207.9 48.2286 1207.09 49.4789C1206.28 50.7295 1205.83 50.9828 1205.25 50.7577C1204.72 50.5711 1204.46 47.8144 1204.59 46.9591C1204.75 46.1423 1204.7 43.4363 1204.7 43.4363C1204.37 42.9113 1203.07 41.547 1202.35 41.0015C1201.64 40.4562 1200.96 38.3804 1201.2 35.9623C1201.45 33.5037 1200.96 31.5557 1202.16 30.3661L1202.16 30.3577Z" fill="#161423"/>
<path d="M-19.7638 0.70662C-19.7638 0.70662 -15.7354 -4.12463 -7.66366 -8.63798C0.411269 -13.1541 1.66873 -12.7826 9.41922 -18.8868C17.1697 -24.991 18.8562 -26.7301 19.8957 -26.3039C20.9352 -25.8777 22.1983 -19.2352 24.6853 -17.0034C27.169 -14.7689 51.2083 -10.7973 54.1186 -8.53399C57.029 -6.27069 53.3287 -2.09936 49.5227 1.49152C45.7168 5.0824 42.1692 5.91445 40.3054 5.0042C38.4415 4.09394 35.9935 2.35976 33.3534 2.39902C30.7137 2.43227 28.9916 3.67109 28.687 3.93722C28.3824 4.20336 38.1188 15.1017 41.6961 16.6918C45.2734 18.2819 49.1991 20.0765 54.0696 17.167C58.9401 14.2574 60.4331 13.4618 63.9298 13.6071C67.4265 13.7523 70.6102 15.8561 71.1807 16.7032C71.7513 17.5504 68.133 21.8933 67.6307 24.017C67.1284 26.1408 69.7745 28.2052 71.3725 28.494C72.9705 28.7828 74.641 27.9962 75.5728 26.17C76.5047 24.3438 74.3013 18.353 74.1245 16.9922C73.9477 15.6314 80.7172 11.2325 80.6577 9.42997C80.5982 7.62745 76.1292 3.28242 71.2751 1.96536C66.421 0.648276 60.9467 -6.19365 58.0845 -9.08138C55.2223 -11.9691 53.4341 -13.8671 53.202 -14.7669C52.9668 -15.6639 66.6206 -22.2723 68.6834 -22.1181C70.7461 -21.964 69.4266 -19.8501 71.5526 -16.4718C73.6786 -13.0936 79.598 -9.45047 80.6504 -9.12602C81.7028 -8.80159 81.2162 -15.8173 79.8491 -17.382C78.482 -18.9468 77.0198 -21.2483 76.925 -21.991C76.8302 -22.7337 91.1672 -24.9295 94.1206 -24.0665C97.0773 -23.2063 94.8146 2.74382 95.4152 3.59306C96.0218 4.44269 103.745 -3.27177 105.233 -7.879C106.72 -12.4862 107.418 -19.5698 106.551 -21.979C105.685 -24.3882 104.114 -25.0855 104.876 -26.5762C105.637 -28.0669 122.259 -28.126 124.523 -26.7965C126.788 -25.4669 121.651 -10.3721 122.977 -9.32601C124.304 -8.27998 132.547 -15.8658 134.226 -19.1535C135.905 -22.4411 136.63 -23.3066 138.777 -23.5873C140.923 -23.8681 149.061 -21.9826 156.534 -18.3796C164.008 -14.7766 165.436 -10.6698 165.907 -9.60601C166.381 -8.53898 155.845 -1.83808 144.2 3.2129C132.558 8.26108 114.293 12.3798 108.922 14.5675C103.547 16.7581 95.4672 24.8407 94.0619 26.7527C92.6565 28.6647 92.7836 32.1949 94.5652 32.8039C96.35 33.41 108.133 28.0063 116.846 20.5125C125.554 13.0183 136.601 6.89502 146.394 5.85336C156.187 4.81171 172.248 4.47935 177.763 2.88371C183.278 1.29408 184.449 -0.135787 186.289 0.274961C188.129 0.685716 194.358 10.4362 195.137 13.787C195.913 17.1407 193.94 19.8081 192.847 20.0904C191.751 20.3756 186.371 18.2174 182.341 17.2999C178.311 16.3823 164.007 15.7046 155.982 17.6048C147.96 19.5021 144.574 21.7876 144.215 22.91C143.852 24.0353 155.163 28.6726 162.243 28.0002C169.322 27.3279 183.684 24.9919 188.52 24.0626C193.357 23.1334 194.703 22.3642 196.538 22.7745C198.378 23.1853 202.687 29.502 203.911 33.6795C205.135 37.8509 201.627 39.8415 200.342 39.7548C199.056 39.6681 196.398 38.6259 189.104 37.2016C181.81 35.7773 176.856 35.8024 176.892 37.383C176.927 38.9636 180.88 42.1029 184.83 43.0845C188.783 44.0692 195.188 45.3942 198.809 43.8761C202.432 42.3611 204.25 41.5422 205.4 42.7363C206.551 43.9304 209.568 51.4094 209.506 55.8683C209.444 60.3272 207.639 62.6678 206.556 63.0656C205.473 63.4633 201.401 61.1911 195.791 59.9347C190.185 58.6756 176.744 54.2477 169.309 49.6394C161.873 45.031 154.124 40.6912 147.624 38.6687C141.128 36.6435 131.031 35.7907 128.551 36.8547C126.072 37.9186 127.708 42.4317 130.252 45.5968C132.797 48.7618 137.686 53.7296 137.592 56.0107C137.499 58.2917 130.593 59.7061 127.814 57.4064C125.036 55.1067 120.359 47.8629 117.872 47.2878C115.388 46.7099 110.964 52.2206 111.37 54.0706C111.776 55.9207 120.824 66.154 125.476 67.6989C130.128 69.2437 137.1 68.54 141.497 65.1398C145.894 61.7396 146.682 59.6201 149.084 59.7217C151.482 59.826 163.376 73.1874 164.003 74.4035C164.624 75.6193 162.723 77.7211 155.319 78.6885C147.915 79.6558 145.922 80.5203 145.774 81.8592C145.627 83.1982 150.454 87.3379 154.012 87.6382C157.574 87.9357 160.419 87.5421 167.222 81.4857C174.031 75.4297 180.934 71.3777 183.652 71.9714C186.37 72.5651 197.275 87.5648 197.958 89.6085C198.641 91.6522 192.718 93.3048 187.945 92.7477C183.169 92.1933 179.435 92.702 176.475 94.8531C173.512 97.001 180.752 103.651 182.888 105.087C185.025 106.522 191.034 107.492 194.952 106.618C198.874 105.748 201.685 106.436 203.041 107.891C204.398 109.347 204.427 119.702 203.566 123.688C202.706 127.673 200.175 126.821 198.223 125.461C196.272 124.101 192.862 121.466 190.552 120.674C188.243 119.881 188.855 124.283 189.964 126.039C191.074 127.794 189.009 128.744 185.707 129.249C182.405 129.754 176.371 128.982 175.104 127.532C173.838 126.083 172.524 117.958 170.701 114.021C168.879 110.084 164.52 106.655 162.111 106.04C159.699 105.421 155.148 105.57 153.846 106.708C152.544 107.845 152.991 111.282 154.262 114.005C155.53 116.725 161.545 123.214 163.98 124.151C166.415 125.088 171.38 126.195 172.019 127.508C172.658 128.822 170.541 136.631 169.587 137.973C168.634 139.314 165.93 135.638 162.399 134.126C158.868 132.615 156.53 131.621 152.993 132.342C149.456 133.063 145.53 130.635 144.296 127.546C143.062 124.458 142.671 112.4 139.626 106.727C136.58 101.047 131.053 93.8215 123.381 85.4281C115.709 77.0348 107.348 69.0114 104.981 67.5905C102.612 66.1663 101.798 64.8531 98.974 65.743C96.1467 66.6357 95.3882 68.0843 96.1177 70.6019C96.8504 73.1167 95.7941 76.2955 94.9798 76.7808C94.1655 77.266 89.129 76.1479 87.2051 75.2336C85.2839 74.3224 88.4403 70.0722 88.4071 65.7758C88.3738 61.4795 85.7268 54.3272 82.2642 50.364C78.8016 46.4007 71.3619 39.8397 63.8844 38.3155C56.4068 36.7914 49.7328 37.8049 46.7655 38.4015C43.7982 38.9981 42.4264 40.9485 42.8685 41.6422C43.3106 42.3359 51.652 51.4111 53.7464 52.5723C55.8408 53.7335 59.4067 54.1067 63.4868 50.7908C67.5669 47.4749 68.9622 45.176 70.5696 45.6827C72.1771 46.1894 82.2761 58.4672 83.4024 60.2028C84.5286 61.9384 79.9684 64.4977 77.0948 66.1658C74.2179 67.8368 72.8482 68.191 72.7477 69.1891C72.6444 70.184 81.4558 78.6451 86.3177 81.725C91.1797 84.8049 96.8203 85.9155 102.51 90.7653C108.197 95.6179 118.567 104.691 126.775 114.494C134.983 124.296 144.15 131.915 151.562 136.911C158.975 141.907 165.915 150.007 170.695 152.553C175.476 155.099 175.922 157.028 175.659 158.416C175.4 159.802 161.671 172.006 159.233 171.507C156.798 171.004 156.398 168.624 152.35 162.904C148.303 157.19 144.182 151.749 142.359 150.504C140.536 149.258 138.931 151.395 138.932 153.079C138.934 154.763 143.144 160.385 147.304 165.023C151.466 169.664 156.118 174.42 158.49 175.684C160.861 176.948 163.098 178.669 163.837 179.358C164.575 180.048 163.368 182.64 159.36 186.006C155.355 189.369 154.239 190.078 152.936 189.351C151.633 188.623 148.923 183.307 147.127 180.941C145.325 178.575 144.527 177.202 143.624 176.855C142.721 176.507 140.915 179.487 140.324 181.943C139.73 184.396 139.651 187.67 140.413 189.611C141.176 191.551 142.325 193.482 142.292 194.511C142.259 195.541 138.67 198.009 132.385 197.694C126.099 197.379 124.601 197.347 123.138 195.821C121.672 194.298 122.167 191.196 123.439 187.682C124.711 184.168 127.47 175.482 128.259 172.185C129.049 168.889 129.555 166.711 129.044 164.754C128.533 162.798 127.182 161.174 126.282 160.292C125.382 159.411 122.32 164.087 121.329 168.227C120.338 172.366 120.419 173.76 119.122 175.097C117.819 176.433 112.537 175.507 110.433 173.941C108.33 172.375 107.398 171.385 107.168 170.585C106.939 169.785 115.172 157.051 117.325 148.357C119.477 139.663 119.661 135.901 118.928 133.534C118.197 131.17 117.143 129.349 115.657 128.645C114.172 127.941 112.369 130.919 111.899 137.339C111.43 143.759 109.034 155.532 107.916 157.844C106.797 160.155 102.564 157.911 99.8234 154.697C97.0828 151.483 94.4549 149.775 96.1762 145.863C97.9003 141.954 104.742 120.597 103.582 115.154C102.425 109.707 100.122 105.511 97.9499 103.31C95.7778 101.108 93.9487 99.7268 92.1748 99.5408C90.4009 99.3548 88.5541 107.052 88.4547 111.481C88.3548 115.917 87.256 137.808 89.7046 153.722C92.1559 169.639 96.2501 180.616 100.277 186.15C104.3 191.681 106.475 193.983 106.829 195.132C107.183 196.281 99.7483 201.64 98.2829 202.921C96.8175 204.201 91.1145 190.276 89.0215 189.363C86.9257 188.446 85.7988 198.805 85.6137 201.55C85.4285 204.296 82.2449 205.461 79.8761 204.788C77.5078 204.109 74.4077 202.78 73.1129 201.486C71.8181 200.192 74.481 192.697 77.1531 186.32C79.8248 179.949 83.6961 176.239 82.8419 172.304C81.9849 168.365 80.2743 161.78 79.0257 159.801C77.777 157.821 73.7817 163.415 72.6652 168.428C71.5486 173.44 70.8619 178.569 69.7387 178.578C68.6183 178.59 62.8181 172.508 62.5565 169.988C62.2948 167.469 66.1845 155.833 69.2575 151.209C72.3272 146.587 74.3441 144.825 75.5876 136.632C76.8311 128.438 77.6153 116.762 76.5441 114.791C75.473 112.821 74.8259 114.675 72.3395 119.595C69.8532 124.516 67.3196 126.243 65.5349 127.158C63.7501 128.072 58.3379 122.188 58.5223 120.393C58.7035 118.601 66.5365 111.407 67.0237 103.286C67.5081 95.1618 65.5733 87.8735 59.3546 82.2246C53.1359 76.5757 42.1028 68.0372 39.5444 67.4906C36.9829 66.9467 32.83 74.9229 33.0593 78.3695C33.2886 81.816 34.459 82.3596 34.3347 84.2041C34.2103 86.0485 23.0475 85.2053 18.555 83.0466C14.0624 80.8878 14.5935 79.9036 16.2831 75.476C17.976 71.0456 26.6635 56.3259 24.6364 52.0188C22.6064 47.7086 20.5541 46.5502 17.6261 45.9816C14.6981 45.413 9.89016 53.4356 8.64101 59.5647C7.39188 65.6938 12.1211 82.2446 13.7287 87.2688C15.3364 92.2929 19.0524 96.3457 23.0919 96.9892C27.1314 97.6328 31.8449 97.857 35.8723 95.9045C39.8998 93.9521 42.2383 92.2539 45.3395 95.8036C48.4407 99.3532 53.6994 107.961 53.0309 113.758C52.3624 119.555 47.7419 116.654 42.7152 116.868C37.6885 117.081 31.2393 116.462 28.2957 117.468C25.352 118.473 27.3196 123.709 29.4711 126.171C31.6226 128.634 36.0531 130.327 38.4409 130.672C40.8287 131.017 43.4773 130.269 44.3869 131.906C45.2966 133.542 43.32 142.314 42.1575 145.145C40.9982 147.973 37.2167 147.799 34.5265 145.762C31.8363 143.725 28.4309 141.555 26.4804 141.749C24.5272 141.94 25.6064 148.715 27.7045 152.327C29.8027 155.939 27.9682 157.994 23.8183 160.867C19.6689 163.735 14.6925 165.663 12.8939 164.814C11.0953 163.966 10.7568 153.366 12.0097 144.407C13.2594 135.45 12.5375 127 11.606 125.241C10.6744 123.483 4.90278 133.67 3.75761 145.866C2.61243 158.062 4.20852 171.492 3.58691 173.55C2.9653 175.609 -3.09394 176.815 -8.66313 175.63C-14.2355 174.449 -15.6477 172.658 -15.2717 170.661C-14.8957 168.665 -12.4181 164.233 -10.7821 155.544C-9.14612 146.855 -8.40217 143.027 -9.4746 142.149C-10.547 141.271 -14.5778 146.003 -16.2066 146.216C-17.8354 146.429 -23.1581 140.336 -23.09 138.162C-23.0219 135.988 -17.1387 136.14 -10.7897 130.594C-4.4408 125.047 -3.15904 119.24 -0.0779214 110.645C3.00601 102.053 1.20819 96.3586 -0.16044 91.5045C-1.52906 86.6504 -2.42494 84.4083 -3.73521 83.4327C-5.04228 82.4544 -15.6493 92.479 -19.3946 100.139C-23.14 107.798 -20.6589 114.101 -19.0632 118.004C-17.4704 121.905 -15.9392 123.14 -17.4168 124.736C-18.8945 126.332 -20.5699 128.401 -22.22 126.513C-23.87 124.624 -24.5017 121.998 -25.4739 122.096C-26.4462 122.193 -28.7819 129.221 -28.7966 135.436C-28.8113 141.651 -25.1466 157.967 -23.7482 161.127C-22.3471 164.291 -22.1339 164.71 -25.305 166.27C-28.4794 167.834 -34.9327 168.931 -37.4174 167.472C-39.9021 166.013 -40.3964 164.93 -40.1686 160.343C-39.9408 155.757 -41.3882 140.076 -42.5549 139.433C-43.7217 138.79 -49.0517 142.384 -51.3268 144.976C-53.6019 147.569 -54.9673 149.067 -57.7672 144.853C-60.5611 140.639 -61.6547 136.449 -60.8461 134.081C-60.0377 131.712 -56.1405 132.542 -50.7885 127.414C-45.4364 122.286 -39.1088 115.847 -37.4763 110.791C-35.8439 105.735 -36.981 104.608 -38.5342 104.908C-40.0874 105.207 -49.0001 111.631 -50.8202 111.101C-52.6435 110.574 -53.0773 106.266 -52.7987 103.297C-52.52 100.328 -52.9249 99.1725 -50.8878 97.6924C-48.8479 96.2155 -37.5836 93.1818 -32.4477 88.8417C-27.3089 84.5048 -17.2359 69.1965 -15.0149 64.9888C-12.7938 60.7811 -11.0997 58.3907 -12.7793 56.9859C-14.459 55.5811 -17.001 56.1339 -23.704 63.3528C-30.4071 70.5717 -35.7627 79.3329 -43.1518 85.9413C-50.541 92.5496 -62.112 101.296 -65.3476 100.188C-68.5832 99.0794 -73.047 92.2422 -73.6534 86.8692C-74.2601 81.5021 -72.0499 79.8707 -68.3226 79.6392C-64.592 79.4049 -57.8244 73.6448 -49.0627 63.4173C-40.3009 53.1898 -33.7973 46.6033 -26.6281 43.212C-19.4556 39.818 -3.4645 37.3474 -2.16442 34.849C-0.867551 32.3533 -8.13361 32.3462 -11.8393 31.0492C-15.5479 29.749 -17.3684 29.2249 -17.0543 26.9828C-16.7433 24.7436 -13.5942 15.1848 -10.6688 14.8962C-7.7433 14.6076 -5.38919 20.4214 -0.802645 20.6492C3.78391 20.877 6.46337 20.6563 7.36618 18.0526C8.26899 15.4489 7.31615 11.5884 4.19962 8.71371C1.08309 5.83899 -19.9857 3.37132 -20.6823 2.91697C-21.3793 2.46863 -19.777 0.723842 -19.777 0.723842L-19.7638 0.70662Z" fill="#2881B5"/>
<path d="M1276.18 104.061C1284.69 102.792 1286.3 85.9848 1300.02 60.5854C1309.37 43.2763 1319.73 29.3161 1325.38 22.1697C1326.15 24.1405 1327.35 26.6812 1329.04 29.5309C1322.61 40.8725 1311.63 60.3698 1304.66 73.5356C1294.31 93.0734 1283.87 130.054 1281.64 147.243C1279.41 164.433 1288.43 165.723 1292.74 160.6C1297.06 155.476 1297.72 133.871 1306.91 104.22C1312.45 86.338 1325.07 64.8005 1334.23 50.3791C1324.11 74.5105 1313.7 112.269 1308.76 137.373C1302.68 168.218 1300.19 210.273 1298.56 228.598C1296.92 246.924 1308.03 248.981 1310.67 242.388C1313.3 235.796 1312.83 192.506 1323.63 145.645C1332.09 108.969 1344.26 66.8085 1349.14 50.2095C1351.12 51.4044 1353.27 52.4511 1355.51 53.4009C1354.35 65.0073 1351.44 90.888 1346.83 112.465C1340.68 141.247 1323.4 171.783 1323.98 178.082C1324.56 184.382 1336.67 188.428 1342.24 175.191C1345.49 167.492 1353.28 143.611 1359.28 124.81C1357.21 134.622 1355.44 142.828 1354.38 147.344C1350.04 165.859 1342.1 207.641 1342.48 224.82C1342.86 242 1354.81 245.439 1356.3 235.255C1357.8 225.071 1360.94 197.685 1364.6 179.033C1368.25 160.377 1375.29 132.207 1380.12 109.191C1382.02 100.15 1383.07 88.9099 1383.66 78.5777C1384.46 87.087 1385.16 95.1891 1385.46 99.9302C1386.29 113.465 1383.66 145.409 1381.49 168.102C1379.31 190.796 1373.53 214.194 1374.16 221.506C1374.79 228.818 1383.88 231.104 1389.43 222.894C1394.99 214.684 1397.12 196.439 1400.26 177.532C1403.39 158.624 1407.96 117.883 1405.67 93.8479C1404.33 79.8554 1400.36 63.5614 1397.28 52.3562C1398.93 51.5 1400.53 50.5662 1402.06 49.5479C1406.03 59.3463 1413.14 78.1251 1416.27 93.9989C1420.72 116.605 1419.96 135.135 1418.14 150.427C1416.31 165.719 1412.06 181.668 1412.35 192.217C1412.65 202.767 1418.39 210.549 1423.73 209.767C1429.06 208.985 1428.64 202.578 1427.87 193.655C1427.1 184.733 1426.08 167.854 1428.45 153.39C1430.83 138.926 1431.34 110.294 1430.57 93.6074C1430.37 89.1079 1428.43 82.1015 1425.73 74.2843C1428.4 79.8738 1430.69 84.9095 1432.06 88.4492C1437.8 103.27 1438.42 124.954 1438.66 135.061C1438.9 145.169 1442.64 156.421 1448.18 150.367C1453.73 144.314 1454.46 133.682 1452.64 117.217C1450.82 100.752 1443.79 67.5605 1433.23 48.1628C1428.32 39.1555 1424.08 33.6265 1420.93 30.2548C1421.55 29.3503 1422.15 28.4488 1422.72 27.5584C1432.95 34.3683 1441.21 49.9962 1445.6 57.2947C1450.32 65.1541 1456.93 69.3765 1458.33 63.9114C1459.73 58.4463 1459.28 51.458 1451.87 39.1729C1446.61 30.4446 1434.24 22.9654 1427.49 19.354C1431.17 12.3327 1432.96 7.15317 1432.96 7.15317C1432.96 7.15317 1428.85 4.73423 1411.25 -0.575193C1393.65 -5.88378 1323.06 -19.1187 1322.47 -17.6551C1322.13 -16.7934 1321.83 -6.81519 1322.4 3.29352C1318.15 6.4277 1312.03 11.657 1305.62 19.7424C1294 34.3899 1280.84 58.4786 1276.51 72.9866C1272.18 87.4907 1267.66 105.338 1276.18 104.069L1276.18 104.061Z" fill="#5D917E"/>
</g>
<defs>
<clipPath id="clip0_95_3">
<rect width="1440" height="1024" fill="white"/>
</clipPath>
</defs>
</svg>
