<svg width="272" height="236" viewBox="0 0 272 236" fill="none" xmlns="http://www.w3.org/2000/svg">
<path d="M52.0992 29.522C52.0992 29.522 55.9489 24.6524 63.6624 20.1033C71.3791 15.5513 72.5807 15.9257 79.9873 9.77307C87.3939 3.62044 89.0056 1.86752 89.9989 2.29708C90.9923 2.72663 92.1994 9.4219 94.576 11.6714C96.9496 13.9237 119.922 17.9268 122.703 20.2081C125.485 22.4893 121.949 26.6938 118.311 30.3132C114.674 33.9326 111.284 34.7712 109.503 33.8537C107.722 32.9363 105.382 31.1883 102.86 31.2279C100.337 31.2614 98.6913 32.51 98.4002 32.7783C98.1091 33.0465 107.413 44.0314 110.832 45.6341C114.251 47.2368 118.002 49.0457 122.657 46.1131C127.311 43.1804 128.738 42.3785 132.079 42.5249C135.421 42.6713 138.463 44.7918 139.008 45.6457C139.554 46.4996 136.096 50.8769 135.616 53.0175C135.136 55.1582 137.665 57.239 139.192 57.5301C140.719 57.8212 142.315 57.0283 143.206 55.1876C144.096 53.3469 141.991 47.3086 141.822 45.9369C141.653 44.5653 148.122 40.1315 148.065 38.3147C148.008 36.4978 143.737 32.1183 139.099 30.7908C134.46 29.4632 129.228 22.567 126.493 19.6563C123.758 16.7457 122.049 14.8326 121.827 13.9256C121.603 13.0215 134.651 6.36068 136.622 6.51607C138.593 6.67146 137.332 8.80214 139.364 12.2072C141.396 15.6123 147.052 19.2843 148.058 19.6113C149.064 19.9384 148.599 12.867 147.292 11.2898C145.986 9.71257 144.588 7.39285 144.498 6.64426C144.407 5.89567 158.108 3.68238 160.931 4.55225C163.756 5.41929 161.594 31.5754 162.168 32.4314C162.747 33.2878 170.128 25.5121 171.549 20.8683C172.971 16.2245 173.638 9.08462 172.81 6.65632C171.982 4.22802 170.481 3.52515 171.208 2.02263C171.936 0.520116 187.821 0.460484 189.984 1.80058C192.148 3.14067 187.239 18.3554 188.507 19.4098C189.775 20.4641 197.652 12.818 199.256 9.50427C200.861 6.19051 201.554 5.31821 203.605 5.03521C205.656 4.75221 213.433 6.65273 220.575 10.2843C227.717 13.9159 229.081 18.0553 229.532 19.1275C229.985 20.203 219.916 26.9571 208.788 32.0482C197.663 37.1365 180.207 41.2879 175.075 43.493C169.939 45.701 162.217 53.8478 160.874 55.7749C159.531 57.7021 159.653 61.2603 161.355 61.8741C163.061 62.4851 174.321 57.0384 182.648 49.4852C190.969 41.9315 201.526 35.7596 210.884 34.7097C220.243 33.6597 235.591 33.3247 240.862 31.7164C246.132 30.1142 247.251 28.673 249.009 29.087C250.768 29.501 256.72 39.3289 257.465 42.7063C258.206 46.0866 256.321 48.7752 255.276 49.0598C254.229 49.3472 249.087 47.1718 245.236 46.247C241.385 45.3222 227.716 44.6391 220.047 46.5544C212.381 48.4668 209.145 50.7704 208.802 51.9018C208.455 53.036 219.265 57.7101 226.03 57.0324C232.796 56.3546 246.52 54.0001 251.142 53.0635C255.764 52.1269 257.05 51.3515 258.803 51.7651C260.562 52.1792 264.679 58.546 265.849 62.7567C267.019 66.9613 263.667 68.9676 262.439 68.8802C261.21 68.7929 258.67 67.7423 251.7 66.3068C244.729 64.8712 239.995 64.8965 240.029 66.4896C240.063 68.0828 243.84 71.247 247.615 72.2363C251.393 73.2289 257.513 74.5645 260.973 73.0343C264.436 71.5073 266.173 70.6818 267.273 71.8854C268.372 73.089 271.256 80.6274 271.196 85.1217C271.137 89.616 269.412 91.9752 268.377 92.3761C267.342 92.777 263.451 90.4867 258.09 89.2204C252.733 87.9512 239.888 83.4883 232.782 78.8433C225.677 74.1984 218.271 69.8241 212.06 67.7856C205.852 65.7442 196.203 64.8846 193.834 65.9571C191.464 67.0295 193.027 71.5784 195.459 74.7686C197.891 77.9588 202.563 82.966 202.473 85.2652C202.384 87.5644 195.784 88.9899 193.129 86.672C190.475 84.3541 186.004 77.0527 183.628 76.473C181.254 75.8906 177.026 81.445 177.414 83.3097C177.803 85.1745 186.449 95.4891 190.895 97.0462C195.34 98.6033 202.003 97.894 206.205 94.4668C210.406 91.0396 211.16 88.9033 213.455 89.0056C215.746 89.1108 227.113 102.578 227.712 103.804C228.306 105.029 226.489 107.148 219.413 108.123C212.338 109.098 210.433 109.969 210.292 111.319C210.151 112.669 214.764 116.841 218.165 117.144C221.569 117.444 224.287 117.047 230.788 110.943C237.295 104.838 243.892 100.754 246.489 101.353C249.086 101.951 259.508 117.07 260.161 119.13C260.813 121.19 255.153 122.855 250.592 122.294C246.028 121.735 242.46 122.248 239.631 124.416C236.799 126.581 243.718 133.284 245.76 134.731C247.801 136.178 253.544 137.155 257.288 136.275C261.036 135.398 263.722 136.091 265.018 137.558C266.315 139.024 266.342 149.462 265.52 153.479C264.698 157.497 262.279 156.637 260.414 155.267C258.55 153.896 255.291 151.24 253.084 150.442C250.877 149.643 251.461 154.08 252.522 155.849C253.582 157.619 251.609 158.576 248.453 159.085C245.298 159.594 239.531 158.816 238.321 157.355C237.111 155.894 235.855 147.705 234.113 143.736C232.371 139.768 228.206 136.311 225.904 135.691C223.6 135.068 219.25 135.218 218.006 136.365C216.762 137.511 217.189 140.975 218.404 143.72C219.615 146.462 225.363 153.002 227.69 153.946C230.018 154.891 234.762 156.007 235.372 157.331C235.983 158.654 233.96 166.525 233.049 167.878C232.137 169.23 229.554 165.524 226.179 164.001C222.805 162.477 220.57 161.476 217.19 162.203C213.81 162.93 210.059 160.482 208.88 157.369C207.7 154.255 207.327 142.102 204.416 136.384C201.506 130.659 196.225 123.376 188.893 114.916C181.561 106.456 173.571 98.3691 171.309 96.9369C169.045 95.5014 168.267 94.1778 165.569 95.0747C162.867 95.9745 162.142 97.4347 162.839 99.9723C163.539 102.507 162.53 105.711 161.752 106.2C160.973 106.689 156.16 105.562 154.322 104.641C152.486 103.722 155.502 99.4383 155.47 95.1079C155.439 90.7774 152.909 83.5684 149.6 79.5736C146.291 75.5789 139.182 68.9658 132.036 67.4295C124.89 65.8933 118.512 66.9149 115.677 67.5162C112.841 68.1175 111.53 70.0835 111.952 70.7827C112.375 71.4819 120.346 80.6291 122.348 81.7995C124.349 82.9699 127.757 83.3461 131.656 80.0039C135.555 76.6616 136.888 74.3445 138.424 74.8552C139.961 75.366 149.612 87.7412 150.688 89.4906C151.764 91.24 147.406 93.8196 144.66 95.501C141.911 97.1852 140.602 97.5422 140.506 98.5483C140.407 99.5511 148.828 108.079 153.474 111.184C158.12 114.288 163.51 115.407 168.948 120.296C174.383 125.187 184.292 134.332 192.136 144.212C199.98 154.093 208.74 161.772 215.823 166.808C222.907 171.844 229.54 180.008 234.108 182.574C238.676 185.141 239.102 187.084 238.851 188.484C238.604 189.88 225.483 202.181 223.154 201.678C220.827 201.172 220.444 198.772 216.577 193.007C212.708 187.248 208.771 181.764 207.029 180.508C205.286 179.253 203.753 181.407 203.754 183.104C203.755 184.802 207.779 190.468 211.754 195.143C215.731 199.821 220.177 204.614 222.443 205.889C224.709 207.163 226.848 208.897 227.553 209.592C228.258 210.287 227.105 212.9 223.275 216.292C219.448 219.682 218.381 220.397 217.136 219.664C215.891 218.931 213.301 213.573 211.585 211.188C209.863 208.802 209.101 207.419 208.238 207.068C207.375 206.718 205.649 209.722 205.084 212.197C204.516 214.669 204.441 217.97 205.169 219.926C205.898 221.882 206.996 223.828 206.964 224.866C206.933 225.904 203.503 228.391 197.497 228.073C191.49 227.756 190.059 227.724 188.66 226.186C187.259 224.65 187.733 221.524 188.948 217.982C190.164 214.44 192.8 205.685 193.554 202.362C194.309 199.04 194.793 196.845 194.304 194.872C193.816 192.9 192.525 191.263 191.665 190.375C190.805 189.486 187.879 194.199 186.932 198.372C185.985 202.545 186.062 203.949 184.822 205.297C183.577 206.644 178.53 205.71 176.52 204.132C174.51 202.553 173.619 201.556 173.399 200.749C173.18 199.943 181.048 187.107 183.105 178.345C185.162 169.582 185.338 165.79 184.637 163.404C183.938 161.021 182.931 159.186 181.512 158.476C180.092 157.767 178.369 160.768 177.921 167.239C177.472 173.71 175.182 185.577 174.114 187.907C173.045 190.237 168.999 187.975 166.38 184.735C163.761 181.495 161.25 179.774 162.895 175.831C164.542 171.89 171.08 150.365 169.972 144.878C168.867 139.388 166.666 135.159 164.59 132.94C162.514 130.721 160.766 129.328 159.071 129.141C157.376 128.953 155.611 136.712 155.516 141.176C155.421 145.647 154.37 167.712 156.71 183.752C159.053 199.796 162.965 210.86 166.813 216.438C170.659 222.013 172.737 224.332 173.075 225.491C173.413 226.65 166.308 232.051 164.908 233.342C163.508 234.632 158.058 220.597 156.058 219.676C154.055 218.752 152.978 229.193 152.801 231.96C152.624 234.728 149.582 235.902 147.318 235.224C145.055 234.539 142.092 233.2 140.855 231.896C139.618 230.591 142.162 223.037 144.716 216.609C147.269 210.188 150.969 206.448 150.152 202.481C149.333 198.512 147.699 191.874 146.505 189.879C145.312 187.884 141.494 193.523 140.427 198.575C139.36 203.627 138.704 208.797 137.63 208.806C136.56 208.818 131.017 202.687 130.767 200.148C130.517 197.609 134.234 185.88 137.171 181.219C140.104 176.561 142.031 174.785 143.22 166.526C144.408 158.268 145.158 146.498 144.134 144.512C143.11 142.526 142.492 144.396 140.116 149.355C137.74 154.314 135.319 156.055 133.613 156.977C131.908 157.899 126.735 151.968 126.912 150.159C127.085 148.352 134.57 141.101 135.036 132.916C135.499 124.727 133.65 117.381 127.707 111.687C121.764 105.994 111.221 97.3872 108.776 96.8362C106.328 96.288 102.359 104.328 102.578 107.801C102.798 111.275 103.916 111.823 103.797 113.682C103.678 115.542 93.011 114.692 88.7177 112.516C84.4245 110.34 84.932 109.348 86.5467 104.885C88.1645 100.419 96.4665 85.5829 94.5293 81.2417C92.5894 76.8972 90.6281 75.7296 87.83 75.1565C85.0319 74.5834 80.4374 82.6697 79.2437 88.8475C78.0499 95.0252 82.5693 111.707 84.1056 116.771C85.6419 121.835 89.1931 125.92 93.0534 126.569C96.9136 127.218 101.418 127.444 105.267 125.476C109.115 123.508 111.35 121.796 114.314 125.374C117.277 128.952 122.303 137.628 121.664 143.471C121.025 149.314 116.61 146.39 111.806 146.605C107.002 146.82 100.839 146.197 98.0262 147.21C95.2132 148.224 97.0935 153.501 99.1495 155.983C101.206 158.465 105.439 160.171 107.721 160.519C110.003 160.867 112.534 160.113 113.404 161.763C114.273 163.412 112.384 172.254 111.273 175.107C110.165 177.957 106.551 177.782 103.981 175.729C101.41 173.676 98.1554 171.488 96.2915 171.684C94.425 171.877 95.4563 178.706 97.4613 182.346C99.4664 185.987 97.7133 188.058 93.7476 190.954C89.7822 193.845 85.0267 195.788 83.3079 194.933C81.589 194.077 81.2656 183.393 82.4629 174.363C83.6571 165.335 82.9673 156.818 82.0771 155.046C81.1868 153.273 75.6713 163.542 74.5769 175.834C73.4826 188.126 75.0078 201.663 74.4138 203.738C73.8198 205.813 68.0294 207.028 62.7073 205.835C57.3822 204.644 56.0326 202.839 56.392 200.826C56.7513 198.814 59.1189 194.347 60.6823 185.589C62.2458 176.831 62.9567 172.973 61.9319 172.088C60.907 171.203 57.0551 175.972 55.4986 176.187C53.9421 176.401 48.8555 170.26 48.9206 168.069C48.9857 165.878 54.6078 166.031 60.6751 160.44C66.7423 154.849 67.9672 148.996 70.9116 140.333C73.8587 131.674 72.1406 125.933 70.8327 121.041C69.5248 116.148 68.6687 113.888 67.4166 112.905C66.1675 111.919 56.0311 122.023 52.452 129.744C48.8728 137.464 51.2438 143.816 52.7687 147.751C54.2909 151.683 55.7541 152.927 54.342 154.536C52.9299 156.145 51.3288 158.23 49.752 156.327C48.1751 154.423 47.5715 151.777 46.6424 151.875C45.7133 151.973 43.4812 159.056 43.4672 165.321C43.4531 171.586 46.9553 188.031 48.2916 191.217C49.6305 194.405 49.8343 194.827 46.8038 196.4C43.7703 197.976 37.6034 199.082 35.2289 197.612C32.8544 196.141 32.3821 195.049 32.5997 190.426C32.8174 185.803 31.4342 169.998 30.3193 169.35C29.2043 168.702 24.1108 172.324 21.9366 174.937C19.7625 177.551 18.4576 179.061 15.782 174.813C13.1121 170.566 12.067 166.342 12.8397 163.955C13.6123 161.568 17.3365 162.404 22.4511 157.235C27.5657 152.066 33.6125 145.577 35.1726 140.48C36.7326 135.384 35.6459 134.248 34.1617 134.55C32.6774 134.852 24.1601 141.328 22.4208 140.793C20.6784 140.262 20.2638 135.919 20.5301 132.927C20.7964 129.935 20.4095 128.77 22.3562 127.278C24.3056 125.789 35.07 122.731 39.9781 118.357C44.8888 113.986 54.5149 98.5557 56.6374 94.3146C58.7599 90.0735 60.3789 87.6641 58.7737 86.2481C57.1686 84.8322 54.7394 85.3894 48.3338 92.6656C41.9281 99.9418 36.8102 108.773 29.7489 115.433C22.6876 122.094 11.63 130.91 8.53797 129.793C5.44591 128.676 1.18021 121.784 0.600728 116.369C0.0208613 110.959 2.13306 109.315 5.69499 109.081C9.25999 108.845 15.7273 103.039 24.1003 92.7306C32.4734 82.422 38.6884 75.7831 45.5395 72.3649C52.3937 68.9439 67.6753 66.4538 68.9177 63.9355C70.157 61.42 63.2133 61.4128 59.672 60.1055C56.1281 58.795 54.3883 58.2667 54.6885 56.0069C54.9856 53.7499 57.995 44.1152 60.7907 43.8243C63.5863 43.5334 65.836 49.3934 70.219 49.623C74.6021 49.8526 77.1626 49.6301 78.0254 47.0058C78.8881 44.3814 77.9776 40.4902 74.9993 37.5927C72.0211 34.6952 51.8872 32.2079 51.2214 31.7499C50.5553 31.298 52.0866 29.5394 52.0866 29.5394L52.0992 29.522Z" fill="#2881B5"/>
</svg>
