<svg width="289" height="290" viewBox="0 0 289 290" fill="none" xmlns="http://www.w3.org/2000/svg">
<path d="M167.169 289.476C165.898 288.888 162.277 286.736 158.364 278.033C154.451 269.33 153.083 263.362 145.845 262.287C138.607 261.211 133.911 263.07 128.727 256.908C123.543 250.746 122.467 248.205 117.872 248.497C113.277 248.789 109.266 253.388 104.862 257.886C100.461 262.384 94.7862 257.497 93.1259 251.334C91.4616 245.172 92.4399 239.108 87.1587 239.599C81.8774 240.086 77.9642 247.425 71.0186 251.14C64.073 254.858 59.965 243.902 55.9543 239.01C51.9437 234.119 44.4135 233.238 41.0888 238.032C37.7642 242.826 39.4245 247.226 38.0565 252.215C36.6885 257.204 31.6021 257.789 26.0246 257.302C20.451 256.815 9.8844 255.934 9.39727 263.853C8.91015 271.777 11.2565 273.048 10.5705 274.907C9.88445 276.766 1.57084 270.507 0.202828 262.778C-1.16518 255.053 4.89952 252.702 3.13775 243.707C1.37598 234.707 -0.580591 230.599 7.24588 225.513C15.0724 220.426 20.5484 218.665 21.2345 212.502C21.9205 206.34 24.7539 197.832 32.5804 195.778C40.4069 193.724 48.4241 199.594 55.2723 199.2C62.1204 198.81 68.38 189.811 73.7587 184.919C79.1374 180.027 93.0285 179.443 98.602 184.822C104.176 190.2 103.883 191.67 105.645 192.059C107.407 192.449 108.58 183.843 107.013 180.519C105.446 177.194 103.392 173.476 93.6132 171.227C83.8341 168.978 78.7477 160.567 77.2782 150.491C75.8087 140.416 77.3757 134.453 71.997 131.222C66.6183 127.994 57.8134 128.384 52.8245 119.876C47.8355 111.367 51.4565 103.248 47.8356 95.5194C44.2187 87.7944 40.5002 83.6863 36.3921 79.6756C32.284 75.6649 32.6737 63.8319 33.652 61.4816C34.6304 59.1352 35.5112 66.4705 38.641 71.1631C41.7708 75.8598 45.2903 75.9573 49.5973 75.9573C53.9043 75.9573 66.1271 81.3359 69.6466 87.498C73.1661 93.6602 75.1226 95.422 82.1656 97.2771C89.2086 99.1363 89.6958 106.082 89.6958 111.753C89.6958 117.424 91.3602 118.698 97.5223 119.38C103.684 120.066 113.269 122.413 113.565 133.17C113.857 143.927 112.781 144.613 116.208 146.862C119.63 149.111 126.612 150.646 128.341 157.928C130.07 165.211 130.793 167.443 133.675 170.906C136.557 174.369 139.659 176.098 142.184 176.386C144.708 176.674 149.32 167.374 149.754 164.707C150.189 162.04 148.601 158.797 142.472 153.605C136.342 148.413 139.947 139.689 144.489 134.859C149.032 130.028 156.168 126.277 157.54 121.881C158.908 117.485 156.387 113.519 151.699 109.553C147.014 105.587 135.908 97.1512 134.394 89.4384C132.879 81.7256 137.276 74.5851 140.162 70.6191C143.044 66.6531 143.405 62.2568 141.461 59.3706C139.512 56.4884 133.314 50.9352 132.953 42.6419C132.591 34.3486 136.484 29.0877 143.982 22.5277C151.479 15.9678 155.661 12.1439 155.88 7.38632C156.095 2.62873 155.592 1.69095 156.383 0.318884C157.175 -1.04913 160.711 1.90613 161.068 10.7028C161.429 19.4995 159.915 24.257 158.474 27.6466C157.033 31.0362 156.022 35.0022 163.739 41.0588C171.452 47.1154 174.05 50.1437 174.553 56.3423C175.056 62.541 173.903 70.5461 181.547 79.3428C189.191 88.1395 196.401 94.0499 195.248 103.569C194.095 113.084 189.337 117.27 193.23 125.92C197.123 134.571 200.943 140.124 199.36 148.486C197.773 156.848 195.682 158.724 191.067 164.058C186.451 169.392 185.732 177.973 188.542 185.183C191.355 192.392 192.435 201.55 189.552 208.471C186.67 215.393 182.919 219.432 178.089 225.127C173.258 230.822 170.015 236.014 169.941 242.213C169.868 248.412 172.032 259.445 174.557 261.247C177.082 263.05 179.603 258.004 180.614 253.1C181.624 248.196 179.315 232.552 182.201 225.777C185.083 218.997 195.106 212.007 198.857 201.985C202.607 191.962 202.559 181.809 201.605 172.716C200.651 163.619 219.973 139.19 234.181 132.346C248.389 125.502 254.827 127.073 261.744 128.717C268.661 130.361 274.856 129.509 278.81 125.49C282.764 121.471 286.454 122.064 288.033 125.689C289.616 129.314 289.876 136.495 279.204 146.444C268.532 156.394 257.592 158.371 254.957 167.659C252.323 176.95 253.902 183.34 257.198 186.701C260.494 190.062 260.754 198.23 256.276 202.318C251.795 206.401 227.572 219.846 221.41 231.31C215.244 242.773 215.894 248.939 208.542 252.398C201.187 255.861 189.646 255.662 185.55 263.054C181.454 270.446 180.472 280.603 176.554 285.945C172.637 291.291 167.177 289.476 167.177 289.476H167.169Z" fill="#46846A"/>
</svg>
