<svg width="91" height="301" viewBox="0 0 91 301" fill="none" xmlns="http://www.w3.org/2000/svg">
<path d="M0.787354 296.793C0.787354 296.793 2.01732 248.287 3.19454 236.868C4.37175 225.449 6.73026 219.742 11.6218 212.126C16.5174 204.515 18.6891 199.348 18.5998 192.37C18.5105 185.391 20.9462 180.334 23.1829 175.856C25.4237 171.379 25.3466 166.528 24.4535 162.046C23.5564 157.569 21.9164 153.164 26.2437 147.12C30.571 141.075 32.8848 136.521 32.3652 133.683C31.8416 130.846 29.2314 127.009 25.7525 122.605C22.2736 118.201 19.7852 109.855 21.1735 102.495C22.5659 95.1353 23.2032 90.0936 20.8853 86.4401C18.5674 82.7867 13.1198 79.1373 13.2943 72.0091C13.4689 64.8808 17.4958 60.7281 17.5648 54.9475C17.6338 49.167 14.849 47.1495 14.4999 41.7139C14.1508 36.2784 16.1034 30.7821 20.7676 24.5144C25.4318 18.2467 26.199 15.811 24.5996 10.5176C22.9962 5.22419 27.5954 -0.974475 34.1391 0.628979C40.6869 2.23243 39.7817 9.40537 37.6221 15.1129C35.4625 20.8203 33.79 25.6997 35.7426 33.5668C37.6911 41.4379 38.9455 47.2144 34.6994 54.5294C30.4533 61.8403 27.0393 67.763 29.962 74.7938C32.8888 81.8287 37.1349 83.152 35.9496 92.5536C34.7643 101.955 34.4883 107.736 37.6911 110.171C40.8939 112.607 44.0278 108.15 43.1916 101.188C42.3553 94.222 40.894 91.2302 43.6097 84.6134C46.3254 77.9966 49.5973 72.5652 49.3902 63.1637C49.1832 53.7622 49.0411 47.8436 55.0327 43.1063C61.0203 38.369 63.8781 40.4596 68.5424 33.4978C73.2066 26.5319 72.8615 21.4495 80.0345 19.9882C87.2074 18.5268 93.406 24.7945 89.1559 33.4287C84.9098 42.063 78.5691 42.063 77.9439 52.4388C77.3188 62.8146 75.8533 68.039 69.5856 72.2851C63.318 76.5312 61.5765 82.7299 62.3437 92.4115C63.1109 102.093 61.8566 110.447 58.7227 115.047C55.5889 119.642 50.4376 124.655 51.1317 136.078C51.8299 147.497 53.3603 152.027 50.2955 157.248C47.2306 162.472 44.1659 167.835 45.6638 176.538C47.1617 185.241 48.554 191.371 42.7045 196.177C36.8549 200.983 30.9363 203.768 25.2938 212.472C19.6512 221.175 14.2198 228.072 11.9222 241.93C9.62459 255.789 8.43926 277.588 7.6761 287.684C6.90888 297.783 5.72762 300.568 3.63704 300.917C1.54646 301.266 0.787354 298.916 0.787354 297.852V296.789V296.793Z" fill="#2881B5"/>
</svg>
