<svg width="186" height="200" viewBox="0 0 186 200" fill="none" xmlns="http://www.w3.org/2000/svg">
<path d="M0.952123 194.162C0.952123 194.162 1.80864 158.866 5.70564 144.005C9.60264 129.143 14.4861 124.938 21.3261 120.635C28.1662 116.332 37.0115 116.978 40.9613 110.552C44.911 104.126 46.1492 99.583 52.8147 98.1095C59.4761 96.6359 64.0794 100.586 69.3242 94.7483C74.5729 88.9109 72.3321 84.9612 72.2144 79.1238C72.0967 73.2864 73.9234 69.3935 75.5756 66.4464C77.2277 63.4992 78.2304 59.0745 77.6986 53.3549C77.1668 47.6352 76.3996 42.2119 78.9367 36.0173C81.4738 29.8267 88.7848 24.4603 88.1962 19.1506C87.6076 13.841 84.4209 10.3052 86.0163 6.11998C87.6075 1.93477 92.6209 -1.25183 98.0442 0.753501C103.468 2.75883 103.411 5.47051 103.585 9.5989C103.764 13.7273 107.535 15.0222 107.478 20.1533C107.417 25.2843 106.593 27.9351 100.224 35.1324C93.8549 42.3256 93.5626 45.6867 95.1539 51.1141C96.7452 56.5374 97.0416 61.4939 95.2149 66.9782C93.3881 72.4624 92.3246 78.1211 92.9741 80.9546C93.6236 83.7839 98.8723 78.3607 100.346 72.4056C101.819 66.4505 101.88 56.5294 106.301 50.6717C110.722 44.8099 115.796 41.9806 120.216 35.2582C124.637 28.5359 125.997 23.8189 131.952 20.9286C137.907 18.0384 144.337 19.8082 145.161 25.5279C145.985 31.2475 143.392 34.6087 137.968 39.4434C132.545 44.2781 126.411 50.4119 125.173 59.6104C123.935 68.809 123.346 73.3514 118.629 78.3607C113.912 83.3699 110.787 85.907 108.664 91.3912C106.54 96.8754 103.297 99.5871 95.572 100.768C87.847 101.95 81.9204 105.368 80.5483 108.14C79.1762 110.913 80.6498 113.389 84.1287 112.683C87.6076 111.976 92.3246 108.554 99.2824 110.028C106.24 111.501 113.612 113.568 121.041 112.208C128.469 110.852 133.543 104.012 135.545 99.4694C137.546 94.927 141.029 88.915 147.28 91.6267C153.532 94.3383 154.064 99.9403 152.058 103.184C150.053 106.427 145.515 108.018 145.275 110.848C145.04 113.677 151.997 113.206 158.188 108.842C164.378 104.479 163.968 101.532 171.162 99.6439C178.355 97.7563 184.96 100.943 185.43 107.901C185.901 114.859 184.428 120.164 175.168 122.762C165.909 125.356 151.876 126.42 141.971 130.84C132.066 135.261 123.574 137.266 112.488 134.851C101.401 132.431 84.8309 130.84 72.3321 132.078C59.8292 133.317 51.1057 132.963 42.8489 131.372C34.5922 129.781 21.0297 130.073 16.4305 139.276C11.8312 148.474 9.52952 159.029 8.29141 167.935C7.0533 176.837 6.40379 196.415 5.3443 198.538C4.2848 200.662 1.68683 198.656 1.21594 197.239C0.745056 195.823 0.94806 194.171 0.94806 194.171L0.952123 194.162Z" fill="#2881B5"/>
</svg>
