<svg width="276" height="214" viewBox="0 0 276 214" fill="none" xmlns="http://www.w3.org/2000/svg">
<path d="M138.136 0.21429C138.136 0.21429 158.408 1.46131 175.909 4.70287C193.41 7.94853 201.76 10.8599 204.963 12.7485C208.166 14.6413 208.228 14.4532 208.799 14.1222C209.365 13.7912 213.279 8.54051 227.844 5.22509C242.409 1.90968 248.274 2.50337 255.898 7.33316C263.525 12.167 273.035 26.6708 274.483 30.0639C275.932 33.4569 275.677 37.2455 273.659 38.5083C271.641 39.771 265.652 39.3655 261.368 35.242C257.084 31.1145 252.987 26.3896 245.425 22.726C237.863 19.0623 229.603 20.5863 226.824 22.1145C224.049 23.6426 222.787 25.4379 223.229 26.0356C223.671 26.6333 231.169 32.891 242.451 36.9543C253.733 41.0177 262.239 49.3382 267.405 56.5925C272.571 63.8467 273.448 68.565 272.5 70.4955C271.553 72.422 264.113 71.553 258.95 65.1007C253.783 58.6484 251.829 56.9162 249.751 55.3189C247.673 53.7216 246.473 55.9834 247.289 58.7745C248.106 61.5697 250.813 69.0184 254.909 74.1401C259.002 79.2619 261.589 80.8636 262.657 84.9847C263.725 89.1098 262.78 92.1655 260.572 93.0967C258.364 94.0279 250.739 91.7595 246.39 85.6392C242.046 79.519 237.509 71.0705 234.297 65.0166C231.086 58.9627 223.024 47.8519 219.935 44.6581C216.849 41.4643 213.255 38.0042 211.553 36.9391C209.851 35.8739 208.276 35.7378 208.085 36.47C207.895 37.2023 210.54 43.0307 211.736 46.7672C212.933 50.5038 212.299 52.6964 211.165 53.4934C210.028 54.2904 205.742 53.5547 201.964 47.3695C198.186 41.1842 190.629 30.5362 185.523 26.0765C180.421 21.6169 172.855 18.3543 161.442 18.0101C150.029 17.67 149.021 18.0661 149.334 18.9992C149.648 19.9324 158.022 38.6251 170.187 44.2848C182.353 49.9446 193.447 50.4849 204.224 54.9488C215.002 59.4128 222.88 65.9367 226.345 70.927C229.809 75.9173 231.793 79.6626 231.618 85.5544C231.447 91.4462 230.442 92.9306 227.09 93.2759C223.738 93.6211 219.775 91.4946 217.044 86.0752C214.312 80.6559 211.411 74.3485 208.062 71.2241C204.712 68.0996 197.735 65.6188 192.094 66.0278C186.453 66.4368 187.176 71.0895 187.62 73.4466C188.065 75.8037 196.038 96.2474 200.499 102.081C204.964 107.915 209.037 113.986 216.572 117.646C224.107 121.305 226.566 121.422 228.799 124.075C231.032 126.728 230.137 129.968 228.569 130.613C227.006 131.258 224.159 130.552 220.975 128.664C217.792 126.775 215.841 126.008 213.995 125.712C212.148 125.416 211.367 128.362 211.815 130.13C212.26 131.898 214.545 138.2 215.1 143.209C215.655 148.217 215.537 162.595 214.317 165.385C213.093 168.174 209.027 169.026 206.249 163.947C203.471 158.867 203.478 147.995 202.808 141.129C202.134 134.263 198.959 119.028 195.504 111.087C192.053 103.147 187.24 95.7743 183.988 91.7702C180.736 87.7621 179.993 85.9039 177.893 82.3262C175.793 78.7486 175.522 78.1059 173.49 76.9587C171.458 75.8115 168.602 81.46 168.597 88.8985C168.592 96.337 169.057 108.281 169.799 119.079C170.536 129.877 170.03 138.739 172.501 143.663C174.973 148.588 185.566 162.462 192.703 168.658C199.837 174.85 205.772 180.223 207.112 183.284C208.452 186.342 205.269 190.218 198.133 187.304C190.997 184.389 187.535 181.404 182.166 175.958C176.797 170.512 174.184 167.376 173.405 167.453C172.629 167.526 174.593 188.255 174.16 197.052C173.731 205.849 171.686 212.263 169.025 213.374C166.363 214.485 164.421 212.143 163.206 207.17C161.987 202.198 162.441 190.906 162.054 189.973C161.667 189.035 159.33 195.997 155.779 198.45C152.228 200.902 147.182 199.028 148.63 192.826C150.077 186.625 155.242 172.942 157.464 167.739C159.687 162.537 159.797 160.372 160.077 158.732C160.354 157.095 158.68 143.236 157.702 131.938C156.725 120.644 155.26 101.482 153.09 86.3621C150.924 71.242 147.303 56.886 144.95 48.5577C142.597 40.2295 134.622 28.0714 134.168 27.6906C133.714 27.3056 128.714 45.0061 128.608 62.8045C128.507 80.6029 127.964 114.088 129.473 120.231C130.982 126.374 133.35 129.419 138.392 137.193C143.433 144.967 145.112 146.658 145.109 150.881C145.106 155.103 139.581 156.535 136.937 153.915C134.297 151.294 132.855 149.771 131.737 145.547C130.619 141.324 128.976 138.536 128.394 138.364C127.816 138.196 125.002 151.455 126.117 160.748C127.232 170.04 127.386 177.303 126.584 181.865C125.781 186.426 122.013 189.124 119.772 187.35C117.531 185.573 116.179 171.89 115.542 167.159C114.905 162.429 115.146 161.5 114.425 161.16C113.703 160.82 109.692 167.077 104.62 168.857C99.549 170.637 96.1717 168.364 98.273 164.532C100.374 160.699 106.884 154.383 108.934 151.684C110.984 148.985 111.703 146.878 112.268 143.421C112.833 139.964 112.367 129.318 114.253 122.253C116.14 115.192 117.496 111.147 117.651 105.75C117.806 100.353 112.01 101.302 107.193 105.505C102.376 109.707 97.6319 114.863 92.8133 115.731C87.9985 116.599 84.0111 115.962 84.6153 111.678C85.2195 107.395 87.4796 103.902 94.4811 99.0671C101.483 94.2321 112.621 87.4934 114.883 80.9076C117.145 74.3219 115.269 66.7019 115.048 61.0676C114.827 55.4333 116.109 52.4187 116.939 47.2599C117.768 42.101 119.353 39.4058 118.074 38.2142C116.794 37.0226 110.769 49.1619 107.903 59.2373C105.038 69.3128 102.928 74.393 96.3005 82.0024C89.6734 89.616 80.4892 98.2586 72.8826 108.727C65.2759 119.196 58.3489 128.634 55.7814 139.266C53.2177 149.898 50.5062 166.713 50.5057 167.511C50.5051 168.309 55.9255 172.437 58.2662 175.962C60.6069 179.486 59.9613 181.777 58.8471 183.073C57.7328 184.37 54.1576 182.268 52.1653 179.914C50.173 177.564 49.4716 176.323 49.002 176.695C48.5323 177.067 50.1661 187.457 47.5249 192.336C44.8837 197.22 40.6646 195.052 39.5539 191.217C38.4431 187.383 39.148 183.304 38.5628 182.559C37.9775 181.818 35.7461 188.678 33.1663 188.737C30.5866 188.797 27.5975 186.196 29.5947 181.378C31.5919 176.555 39.3925 171.864 39.9219 169.205C40.4513 166.546 43.0998 151.028 45.0995 142.56C47.0992 134.092 48.1557 132.113 48.3325 128.958C48.5092 125.804 43.4703 125.305 38.8358 129.262C34.2012 133.215 30.9168 136.985 28.0973 141.618C25.2817 146.252 22.6423 148.476 20.7651 147.918C18.888 147.36 18.3655 139.754 21.5978 132.772C24.8263 125.786 31.0456 118.806 41.0721 115.103C51.0986 111.399 60.3647 107.883 66.7596 99.4797C73.1545 91.0763 80.1415 79.0237 84.9542 69.8744C89.7668 60.7252 98.8062 42.6186 100.629 38.2296C102.447 33.8407 103.503 32.9741 101.688 32.048C99.8731 31.1219 96.6439 33.468 91.8916 39.4586C87.1393 45.4533 84.3244 49.1622 77.6369 54.288C70.9494 59.4138 68.6605 65.3491 67.836 68.3803C67.0116 71.4116 69.4134 76.2332 69.585 80.5623C69.7566 84.8913 70.461 87.3633 67.4103 89.6482C64.3596 91.9331 60.7256 90.756 60.5536 86.9834C60.3816 83.2108 61.7889 78.7602 61.0294 77.5239C60.2699 76.2877 58.1556 82.2844 55.3367 86.0507C52.5216 89.821 50.995 92.8476 47.6507 93.4629C44.3102 94.0782 40.9102 90.9209 43.6683 85.3584C46.4264 79.7959 55.2842 71.951 55.2852 70.4043C55.2863 68.8577 51.7088 70.0907 45.4358 70.3969C39.1628 70.7031 37.5226 69.7116 37.2889 65.4439C37.0551 61.1762 45.6173 60.258 51.8899 60.3855C58.1626 60.513 59.1014 60.575 60.5688 59.095C62.0361 57.6108 64.9667 55.019 65.2049 52.7934C65.4391 50.5677 56.8826 49.0146 48.615 50.244C40.3475 51.4734 36.4793 52.2765 24.3963 62.4063C12.3132 72.5362 9.9643 75.4434 8.08825 78.9035C6.21221 82.3636 1.63785 83.4117 0.525728 81.6188C-0.586396 79.8258 -0.229308 73.7664 9.80158 63.6923C19.8325 53.6223 29.1023 44.5992 41.4754 41.458C53.8485 38.3128 66.9772 42.1565 72.4872 40.0576C78.0011 37.9587 87.6209 27.5775 89.7328 25.2919C91.8447 23.0063 92.314 23.068 92.1402 21.955C91.9664 20.8419 80.8296 20.0273 74.672 21.8557C68.5143 23.6841 66.5252 27.9747 64.1415 30.747C61.7577 33.5193 59.7186 37.1306 57.1397 35.9789C54.5608 34.8231 55.1059 31.9471 56.8958 29.6449C58.6857 27.3427 59.9742 26.5049 59.5287 25.5635C59.0833 24.6221 55.9558 25.7695 56.156 22.3163C56.3562 18.8591 59.9814 15.8791 68.7693 13.844C77.5573 11.809 87.338 10.192 96.9157 10.4611C106.497 10.7303 111.956 9.31872 118.911 5.34696C125.865 1.3752 126.808 1.26952 130.482 0.539914C134.156 -0.189693 138.12 0.214278 138.12 0.214278L138.136 0.21429Z" fill="#5D917E"/>
</svg>
