<svg width="136" height="377" viewBox="0 0 136 377" fill="none" xmlns="http://www.w3.org/2000/svg">
<path d="M134.953 217.795C134.778 218.148 132.752 232.133 126.156 239.083C119.559 246.032 107.422 255.795 95.6376 259.578C84.0075 263.309 77.5733 263.991 64.1409 271.696C65.2613 270.104 66.2639 268.111 66.6699 265.659C67.3599 261.466 67.4736 255.88 67.0555 250.25C75.434 244.084 86.159 236.732 92.1019 232.007C101.093 224.863 105.932 214.564 107.625 200.579C109.314 186.595 106.241 170.305 106.241 170.305C106.241 170.305 104.089 180.908 103.322 187.979C102.555 195.046 100.403 204.805 94.7161 213.411C89.0289 222.017 77.7561 229.669 66.0001 238.847C65.8134 238.993 65.6388 239.152 65.4561 239.298C65.4561 239.294 65.4561 239.286 65.4561 239.281C64.8553 236.886 63.4427 234.439 61.6281 231.975C61.8636 226.425 61.7296 221.083 61.2871 217.799C61.1938 217.101 61.0071 216.541 60.8244 215.973C62.781 214.024 64.8269 212.506 66.5075 211.406C70.0838 209.068 74.6506 208.142 74.7074 209.254C74.7683 210.367 76.1728 212.421 77.6991 211.657C79.2214 210.894 80.0455 206.263 74.6506 206.38C69.5804 206.49 64.3722 209.266 59.7405 213.691C57.3536 210.432 53.1359 210.927 51.979 212.023C50.4689 213.456 51.3417 215.124 54.029 215.205C55.4173 215.246 56.3022 215.477 56.9923 216.931C55.6933 218.692 54.5527 220.69 53.6231 222.963C51.8369 221.164 50.0386 219.391 48.3093 217.637C49.0116 213.488 51.3823 207.858 57.857 202.966C65.7484 197.007 72.4951 196.743 82.3147 191.223C92.1303 185.702 101.162 172.464 108.697 157.915C116.235 143.367 115.796 125.485 114.745 126.183C113.694 126.885 108.169 144.414 101.069 152.216C93.9691 160.018 83.8004 165.892 69.69 174.392C55.5796 182.893 51.6177 188.365 45.5408 196.743C43.9779 198.899 42.7358 201.594 41.8143 204.537C41.7006 203.977 41.5951 203.405 41.4814 202.828C42.5287 201.225 44.4569 197.762 47.4527 190.492C49.1536 186.372 50.0143 182.174 50.4567 178.127C53.1562 176.836 55.9328 176.385 58.0599 176.475C61.7093 176.629 62.8744 177.794 62.6389 175.387C62.4157 173.053 58.5064 171.498 50.7084 175.074C50.8992 171.88 50.883 168.831 50.7937 166.038C55.6934 162.21 61.5997 158.995 66.7957 155.569C76.7655 149.001 83.2159 141.848 85.5581 128.128C87.9045 114.407 83.2118 100.922 77.1146 87.7856C71.0174 74.6495 69.2598 62.6905 69.2598 62.6905C69.2598 62.6905 67.6198 75.709 65.5049 85.9102C63.394 96.1114 67.2666 110.774 65.9757 125.197C64.6848 139.62 61.2749 143.569 51.2402 153.263C50.9966 153.499 50.7855 153.722 50.546 153.957C50.4933 151.627 50.3431 149.212 49.9412 146.452C51.6096 143.63 55.5918 135.037 56.087 130.851C56.1195 130.584 56.0871 130.308 56.1074 130.036C57.3658 129.155 58.7257 128.432 59.7852 128.059C61.8067 127.344 62.9961 128.773 64.7213 127.941C66.4466 127.109 66.0163 124.718 63.5928 124.194C61.6403 123.772 59.1073 124.49 56.0384 126.678C55.6893 123.593 54.6338 120.598 52.8314 118.43C50.2172 115.28 45.9346 116.291 45.3988 117.659C44.8629 119.027 46.4705 119.798 48.5489 119.619C50.5258 119.449 53.4931 121.909 53.7854 128.428C53.7651 128.448 53.7449 128.456 53.7246 128.477C51.297 130.628 49.2349 134.428 47.9196 137.249C47.2904 134.992 46.5638 132.581 45.5977 129.796C40.491 115.056 40.3732 101.591 43.7425 85.9264C47.1077 70.2572 52.1008 59.2319 51.1712 38.3424C50.2416 17.4529 33.8783 -1.00106 33.4114 0.0421998C32.9487 1.08546 33.6428 4.10565 34.4547 13.5031C35.2666 22.9046 33.525 33.8121 29.8107 50.0618C26.0964 66.3115 18.0873 76.9876 17.5068 91.2645C16.9263 105.541 23.194 119.351 28.7635 126.894C32.8878 132.479 41.3394 146.098 45.3013 159.405C45.2242 159.49 45.1389 159.58 45.0618 159.665C44.4529 157.193 43.365 153.864 41.522 151.826C38.3314 148.287 34.7347 147.763 32.3559 148.749C31.9744 148.908 31.7065 149.082 31.4061 149.257C30.9028 138.889 27.7324 131.708 19.4025 116.778C10.2608 100.39 0.09616 97.6255 0.152991 98.1817C0.209823 98.7378 0.871413 99.846 2.70219 102.509C4.53297 105.172 7.61812 112.463 10.1349 119.826C12.6517 127.19 11.8034 142.169 11.2919 161.983C10.7845 181.797 13.7072 191.194 23.2305 205.292C27.9109 212.218 34.3329 217.657 40.3124 221.915C40.7305 224.94 41.5221 227.716 42.7602 229.933C45.001 233.956 48.6706 238.644 51.9141 242.484C52.6245 245.963 53.554 248.391 54.2522 249.816C53.826 250.307 53.4566 250.818 53.0547 251.318C51.301 247.944 47.4243 240.779 43.6085 235.746C38.4694 228.963 36.529 226.344 33.7564 225.516C30.9839 224.684 28.2601 225.329 27.4279 226.762C26.5957 228.195 25.995 229.624 27.2453 230.777C28.4915 231.93 29.5063 229.299 31.4913 228.699C33.4764 228.098 35.368 229.299 37.7224 232.486C40.0769 235.673 43.3528 239.042 47.3716 245.135C49.7666 248.768 51.1022 251.297 51.8572 252.856C51.7192 253.043 51.5608 253.225 51.4269 253.412C49.4784 250.441 46.1619 246.162 42.3095 244.449C36.1393 241.709 33.1272 242.395 32.3722 244.79C31.6172 247.189 34.6332 246.572 37.5113 246.231C40.3894 245.89 47.5867 251.52 49.0927 255.385C49.2632 255.823 49.3525 256.055 49.4865 256.396C46.5678 261.222 44.8223 266.297 45.0699 271.545C45.3541 277.59 46.4136 282.887 47.4122 286.699C39.4558 280.809 32.0961 273.072 29.2911 262.456C25.6417 248.65 29.2912 240.365 23.2752 227.055C17.2592 213.74 12.534 209.404 8.22705 205.41C3.92005 201.416 0.798353 199.293 0.173209 199.731C-0.451935 200.169 0.611621 204.351 3.42071 209.404C6.2298 214.458 8.04029 220.702 8.10118 229.437C8.16207 238.173 7.07415 258.454 10.0253 267.474C12.9724 276.494 21.1278 283.87 29.8879 289.508C34.4669 292.455 38.6521 294.615 42.2324 296.425C40.7183 299.466 39.7075 302.092 39.4031 303.728C38.307 309.578 38.9484 316.519 39.5857 326.116C40.223 335.712 39.2204 337.539 38.579 347.772C37.9376 358.006 41.4124 376.557 41.5017 376.829C41.5017 376.829 49.109 370.099 49.2552 369.214C49.4013 368.329 49.5474 367.298 48.3702 359.78C47.7125 355.583 47.534 347.305 47.9481 339.085C50.8952 336.394 56.9923 330.398 60.7797 323.68C65.521 315.261 64.9852 300.424 56.6919 293.239C56.7893 292.78 56.8462 292.5 56.8462 292.5C56.8462 292.5 57.4673 291.522 63.4467 288.534C69.4262 285.542 76.3758 282.465 94.0544 277.716C111.733 272.966 126.245 263.467 131.876 249.219C137.502 234.97 135.131 217.466 134.953 217.82V217.795ZM65.0095 258.109C65.0095 265.846 63.0692 270.721 61.4982 273.437C60.4022 274.176 59.3062 274.898 58.2751 275.743V257.139C59.9151 255.685 62.0462 253.98 64.6117 252.048C64.8431 253.976 65.0056 255.974 65.0056 258.105L65.0095 258.109ZM53.3957 239.395C53.1765 236.821 53.2536 233.793 53.7002 230.716C54.1264 231.013 54.6338 231.337 54.9748 231.601C56.2413 232.584 57.4551 233.866 58.5795 235.38C58.2101 239.606 57.5849 243.613 57.1019 246.268C56.7934 245.744 56.5539 245.322 56.1724 244.68C55.121 242.919 54.2198 241.149 53.3917 239.395H53.3957ZM62.1802 241.981C61.5916 242.488 61.0354 243.008 60.4631 243.524C60.6904 242.237 60.8933 240.897 61.0557 239.497C61.4495 240.292 61.8351 241.104 62.1802 241.981ZM55.1696 224.538C55.8516 222.675 56.7732 221.055 57.7921 219.581C58.0843 220.957 58.3563 222.748 58.6526 225.135C58.7825 226.202 58.8434 227.359 58.8677 228.553C57.6986 227.217 56.4605 225.885 55.1656 224.554C55.1656 224.55 55.1656 224.542 55.1696 224.538ZM41.3191 202.053C40.6168 198.436 39.9713 194.588 39.8699 190.451C41.0471 188.377 42.8697 185.345 45.0374 182.438C45.5611 181.736 46.1822 181.277 46.7667 180.717C45.4799 190.325 42.7033 198.46 41.3191 202.053ZM53.2334 132.682C53.3105 132.569 53.4445 132.463 53.5338 132.349C52.8234 136.255 50.9642 140.561 49.45 143.618C49.243 142.547 48.9791 141.39 48.6909 140.192C50.0061 137.927 52.2835 134.046 53.2334 132.682ZM47.4407 172.919C47.4041 174.356 47.2701 175.756 47.1483 177.161C43.5923 179.954 41.2623 184.025 39.9267 186.997C40.0688 184.362 40.4544 181.63 41.2217 178.776C42.2203 175.058 44.4042 171.973 47.1727 169.217C47.2823 170.459 47.4691 171.729 47.4407 172.919ZM31.4913 153.625C32.4291 153.629 33.7565 153.357 35.6522 152.853C39.5979 151.81 40.5275 154.014 42.2081 158.366C42.8413 160.01 43.1904 160.903 43.434 161.54C37.9985 168.068 34.7551 174.396 34.9662 181.456C35.1773 188.633 38.6399 201.842 40.5762 208.731C36.1149 202.568 34.1583 197.125 32.5711 190.63C30.6673 182.828 31.4305 165.762 31.4873 153.621L31.4913 153.625ZM51.7151 229.377C51.4066 231.017 51.297 232.669 51.2524 234.361C50.3674 232.007 49.6854 229.783 49.178 227.769C50.1035 228.35 50.9194 228.869 51.7151 229.377ZM54.5648 245.553C55.2305 246.308 55.8151 246.954 56.3469 247.538C56.0221 247.879 55.7055 248.22 55.3929 248.565C55.1534 247.733 54.8692 246.698 54.5648 245.553ZM52.6447 262.753V281.203C51.1102 282.895 49.7017 284.629 48.4027 286.395C48.1429 284.008 47.8952 281.028 47.7613 277.492C47.4933 270.392 49.3038 266.585 52.6447 262.753ZM57.2156 317.7C56.355 325.328 51.0778 332.708 48.086 336.365C48.4595 330.808 49.1252 325.49 50.136 321.731C51.4066 317.006 52.9938 310.118 54.305 304.203C56.558 306.838 58.0031 310.69 57.2156 317.7Z" fill="#274C3D"/>
</svg>
