<svg width="349" height="217" viewBox="0 0 349 217" fill="none" xmlns="http://www.w3.org/2000/svg">
<path d="M339.143 146.034C331.649 139.786 324.387 140.57 324.152 139.396C324.152 138.227 339.455 133.539 341.952 131.822C344.453 130.027 344.919 125.42 338.907 127.45C333.05 129.402 323.214 136.429 322.743 136.429C322.897 136.039 325.244 132.682 328.13 129.869C331.02 127.06 334.844 123.934 339.451 120.89C343.978 117.768 348.118 115.816 348.354 112.771C348.512 109.727 344.217 109.256 338.826 112.458C334.454 115.036 326.957 125.108 324.225 128.854C325.321 127.291 327.269 124.405 329.693 120.423C333.598 114.098 336.719 107.539 337.889 101.372C339.062 95.2062 335.469 91.5324 331.641 92.1575C327.813 92.7827 324.066 98.0924 322.195 104.417C320.242 110.741 317.356 119.254 314.308 125.733C311.186 132.134 309.075 136.429 309.075 135.337C309.075 134.164 309.623 132.447 310.557 128.387C311.572 124.328 314.539 111.367 316.881 105.042C319.146 98.7175 322.97 88.4879 320.628 85.9914C318.286 83.4137 312.509 84.8182 309.932 90.8342C307.354 96.769 306.185 113.632 305.718 120.269C305.328 126.906 302.592 138.15 301.894 138.853C301.111 139.632 296.974 141.195 296.816 139.165C296.658 137.058 300.173 132.061 302.203 128.392C304.232 124.722 305.012 119.725 302.905 118.633C301.111 117.695 297.754 124.799 296.97 126.439C297.283 125.189 298.61 120.975 300.327 115.584C302.357 109.183 303.761 103.715 303.295 99.7364C302.905 95.8313 297.206 95.9896 297.206 95.9896L297.908 93.8057C298.687 91.5405 299.86 89.3566 299.312 87.5583C298.841 85.8412 296.422 85.9183 294.08 90.136C291.815 93.964 288.38 105.44 287.755 106.613C287.755 105.675 286.663 98.413 286.192 95.0559C285.722 91.6217 289.237 87.3269 292.204 83.4218C295.249 79.5166 292.594 75.2218 290.487 76.7076C288.38 78.1892 284.008 85.5286 282.912 85.6098C281.898 85.6098 282.287 83.3446 280.493 80.3772C278.699 77.487 275.496 73.7402 272.529 75.1447C269.561 76.4721 269.403 80.1418 270.109 84.5138C270.889 88.8857 274.717 93.8057 276.198 97.3982C277.68 100.914 278.074 105.44 277.29 107.705C276.588 109.97 275.727 118.247 275.573 121.917C275.496 125.587 272.216 131.598 271.591 129.646C270.966 127.693 271.749 121.681 271.826 118.089C271.981 114.573 272.216 104.502 272.216 99.1925C272.139 93.8057 269.326 92.0885 268.392 93.1805C267.531 94.2725 267.142 95.056 267.142 93.6473C267.142 92.2387 267.296 88.4148 266.204 87.8709C265.031 87.3229 262.457 87.5583 261.755 92.1657C261.053 96.8502 261.13 111.919 262.226 114.651C263.395 117.46 265.583 124.568 263.708 124.568C261.913 124.645 260.273 120.975 259.413 117.541C258.552 114.107 258.865 101.145 258.71 96.4605C258.475 91.7759 256.681 89.4337 254.339 91.5405C251.996 93.7285 251.919 101.847 252.151 107.08C252.386 112.231 255.508 116.372 253.945 116.213C252.776 116.136 250.665 113.323 248.871 111.371V111.293C247.697 104.421 245.668 98.0964 244.34 93.4931C241.763 84.5138 229.114 71.7876 219.667 69.5225C210.298 67.2573 199.756 69.9893 199.756 69.9893L202.021 67.4116C204.209 64.8339 215.839 53.1226 217.479 49.2175C219.042 45.3936 218.105 42.4261 215.998 42.5033C213.891 42.5804 212.251 43.985 207.485 51.2472C202.724 58.3511 197.333 69.9081 196.866 69.9081C196.553 69.5955 196.943 67.5659 198.039 63.1939C199.131 58.822 201.473 50.7803 204.518 43.6724C207.639 36.6456 214.589 27.3537 216.152 23.5298C217.715 19.7058 214.825 15.4881 211.39 17.1281C207.956 18.7681 204.83 22.8275 202.569 29.7C200.385 36.4913 196.403 56.5609 196.322 54.45C196.245 52.3432 198.274 36.0245 198.818 27.7474C199.444 19.4704 199.833 15.6464 197.645 7.29225C195.457 -0.984815 187.651 -1.92251 184.529 2.99745C181.485 7.91741 182.11 17.599 182.812 27.2806C183.515 36.8851 182.735 47.6587 182.812 57.3403C182.889 66.9448 182.423 72.3316 181.639 71.8647C180.783 71.3979 177.734 43.445 176.252 35.4806C174.771 27.5161 174.925 14.6357 173.91 7.29225C172.972 -0.124228 168.99 -1.45164 164.931 1.51577C160.871 4.5603 162.118 12.2122 162.199 21.0373C162.276 29.8583 166.494 39.0731 168.523 45.5559C170.63 51.9576 173.675 66.8717 173.208 73.7442C172.741 80.6167 169.461 85.6138 169.226 83.8927C168.99 82.1755 170.163 69.1368 170.086 64.6837C170.009 60.2346 169.461 54.5312 167.979 54.3769C166.498 54.1415 164.155 55.2375 164.31 60.9369C164.545 66.6363 164.699 76.4762 164.074 76.8659C163.449 77.2556 163.526 74.9133 163.059 67.4197C162.67 60.0032 160.871 41.8091 159.934 35.7972C158.919 29.7853 157.202 25.1007 154.076 24.9424C151.031 24.707 149.391 29.5498 149.391 29.5498L149.469 24.8653C149.627 20.1808 148.218 12.7643 146.655 12.8414C145.015 12.9186 144.313 15.2608 143.688 23.3024C142.986 31.344 143.842 45.3976 143.688 45.3976C143.534 45.3976 143.53 44.6182 142.438 42.1948C141.423 39.8525 136.349 31.4212 135.882 30.4835C135.411 29.5457 137.132 9.01343 136.897 5.57514C136.661 2.05972 134.165 1.28033 131.587 4.71456C129.009 8.14879 128.384 20.331 128.076 20.4852C127.605 20.4852 125.263 17.2053 121.905 14.1607C118.548 11.1162 112.301 9.16363 110.507 10.8036C108.631 12.4436 109.102 17.5949 110.036 20.6435C110.896 23.6881 113.941 28.9206 118.625 33.1342C123.387 37.3519 127.292 43.2827 129.712 47.7358C132.131 52.2661 135.724 70.6916 136.426 75.7658C137.205 80.84 137.051 86.5394 135.565 85.212C134.08 83.8845 131.116 74.8281 129.164 67.8784C127.134 60.9288 123.777 52.262 121.67 46.173C119.563 40.0068 115.033 40.6278 114.798 42.4261C114.639 44.2204 113.937 46.5626 113.706 45.7832C113.47 44.9227 112.378 41.8781 111.205 38.9919C110.113 36.1828 107.068 33.3697 105.818 35.3222C104.491 37.2748 106.289 43.5222 108.16 49.2215C110.036 54.9209 115.11 65.8528 119.011 72.1773C122.916 78.5018 123.854 81.7818 122.916 82.0943C121.979 82.3298 120.184 80.7669 116.125 74.207C111.988 67.647 108.083 56.8735 105.895 50.8615C103.788 44.8496 98.7142 40.7131 97.7765 43.445C96.7617 46.177 97.7765 56.5609 100.898 63.2751C104.101 69.9893 113.47 80.6858 112.845 81.0755C112.143 81.388 109.723 79.3583 107.3 77.4058C104.803 75.3761 102.148 73.659 99.8062 73.8944C97.3868 74.1299 95.7468 75.7699 97.1514 78.1121C98.4788 80.4544 102.851 83.4218 111.44 87.6395C119.953 91.9343 126.355 97.0085 126.355 97.6336C126.2 98.1816 124.869 98.1005 120.578 98.1005C116.287 98.1005 108.631 98.7256 104.105 102.16C99.5748 105.594 91.0664 113.948 90.9121 123.942C90.835 133.86 93.0961 144.479 95.9863 150.491C96.9241 152.443 97.7806 155.488 98.7183 158.845C98.7224 158.865 98.7305 158.886 98.7345 158.906C96.2137 156.929 92.9134 155.224 89.1991 154.1C82.6026 152.106 70.1768 153.409 69.2554 152.796C68.3339 152.184 68.0457 149.793 68.4435 147.763C68.8413 145.737 71.8331 143.05 74.2565 141.288C76.68 139.526 77.0778 136.486 76.0183 136.048C74.9588 135.605 72.6693 137.326 71.4352 138.601C70.2012 139.876 67.8224 141.069 68.0457 139.392C68.2649 137.72 70.0713 133.356 72.4947 130.847C74.9182 128.339 75.7544 125.164 75.6651 122.388C75.5758 119.611 71.2607 119.834 69.2351 120.581C67.2094 121.328 65.403 125.737 64.9159 125.075C64.4328 124.413 65.3056 120.943 65.2406 117.058C65.1757 113.173 64.1405 111.427 61.6806 111.817C59.2206 112.207 59.4804 116.477 59.4804 120.618C59.4804 124.758 61.6806 140.679 61.6806 143.659C61.6806 146.638 60.4506 150 59.2855 145.343C58.1205 140.683 59.0907 135.508 59.6752 129.358C60.2557 123.208 57.4669 123.427 55.7417 123.342C54.0165 123.252 51.0125 125.152 50.7 127.941C50.3914 130.726 49.815 135.37 49.1087 134.615C48.6906 134.172 46.2143 128.278 43.7747 122.652C44.0953 120.545 44.5297 119.12 45.167 117.845C46.3524 115.475 47.9071 110.583 43.8356 109.028C41.2619 108.046 39.6341 110.051 38.6558 112.109C36.2445 108.488 32.6682 105.809 30.9876 106.808C29.1325 107.912 30.4112 111.095 32.1811 112.998C32.8996 113.774 34.9618 117.151 37.304 121.109C37.2634 127.714 37.3893 137.371 36.89 137.505C36.1633 137.704 33.3867 134.728 31.7995 130.502C30.2123 126.273 29.9484 122.043 29.7495 118.475C29.5506 114.906 26.4452 112.856 25.5197 113.916C24.5941 114.971 24.9229 123.695 26.774 127.791C27.7442 129.942 29.3842 132.784 31.2393 135.629C28.7875 134.03 25.4872 133.839 25.682 135.297C25.9621 137.416 26.9526 143.2 29.3517 146.306C31.7508 149.411 32.3881 155.269 31.4707 155.058C30.5533 154.847 28.0811 153.012 26.3884 148.213C24.6956 143.415 21.9433 135.297 20.9529 132.122C19.9664 128.948 16.0126 128.948 16.0816 132.122C16.1506 135.297 21.6551 144.191 21.6551 144.191C21.6551 144.191 20.0314 142.778 17.2101 141.154C14.3888 139.53 7.68276 139.884 8.74226 142.425C9.80175 144.966 14.742 149.622 14.742 149.622C14.742 149.622 14.0357 149.269 12.6961 148.563C11.3565 147.856 6.13207 147.576 7.82483 149.902C9.51759 152.232 27.3748 162.677 27.3748 162.677C27.3748 162.677 26.4574 162.677 21.4481 163.594C16.4388 164.512 6.62732 170.158 3.80605 177.076C0.984789 183.993 -1.98261 200.579 1.76013 204.671C5.50287 208.763 14.0397 210.249 15.5214 210.602C17.0031 210.955 16.2967 212.579 18.6268 214.203C20.9569 215.826 26.2503 216.87 26.2503 216.87C26.2503 216.87 106.358 216.805 108.51 216.354C110.657 215.9 112.467 215.335 115.069 211.264C117.672 207.192 119.933 195.773 118.122 187.63C117.359 184.204 115.009 181.533 112.467 179.365C112.545 179.389 112.618 179.426 112.695 179.454C116.6 180.705 120.27 181.172 120.891 181.874C121.905 182.966 119.953 187.963 121.593 193.975C123.31 199.987 130.105 202.329 130.414 202.877C130.804 203.502 130.804 204.282 129.553 207.874C128.303 211.467 130.414 213.963 130.414 213.963C130.414 213.963 230.823 214.276 231.448 213.963C232.073 213.728 231.915 212.948 231.448 209.043C230.977 205.138 227.932 202.406 225.59 194.6C223.56 188.121 224.34 181.172 226.369 175.549C227.932 178.204 229.804 180.705 231.367 182.263C234.646 185.308 233.944 187.415 232.929 189.993C231.915 192.57 232.771 196.63 234.724 199.207C236.676 201.785 236.441 202.175 235.584 204.05C234.724 205.926 232.54 207.955 235.584 210.529C238.629 213.107 246.439 215.372 246.439 215.372C246.439 215.372 309.059 215.761 311.324 215.372C313.512 214.982 322.256 214.592 333.967 204.988C345.601 195.306 348.098 183.205 348.804 173.678C349.584 164.232 346.539 152.362 339.123 146.038L339.143 146.034ZM41.404 162.218C40.0157 161.228 36.9103 153.032 35.7858 149.533C34.7344 146.257 34.7466 143.18 33.8373 139.388C34.7344 140.626 35.6437 141.812 36.5124 142.859C40.1456 147.219 42.0616 152.573 42.5934 155.809C43.1211 159.048 42.7923 163.209 41.404 162.218ZM53.4157 162.819C51.4915 162.235 46.3037 147.402 45.1183 143.549C43.9939 139.888 43.0156 137.582 43.1739 131.136C44.4769 133.385 45.5567 135.236 46.1575 136.214C48.5282 140.066 52.6769 149.326 53.4157 152.663C54.1585 155.995 55.3439 163.404 53.4157 162.819ZM157.141 82.7926C156.67 85.3703 154.64 88.8045 153.159 87.8668C151.673 86.9291 149.956 78.8103 150.581 73.5778C151.283 68.2681 152.375 56.1671 152.375 56.1671C152.375 56.1671 155.968 65.8487 156.512 71.3939C157.06 76.8578 157.604 80.2961 157.137 82.7926H157.141ZM190.793 70.923C189.932 72.0149 187.984 72.7172 187.278 72.7172C187.278 72.7172 187.123 66.7053 187.59 63.6608C188.061 60.6162 188.605 49.2175 189.307 48.982C190.01 48.982 190.01 54.2917 190.793 57.9614C191.572 61.631 191.654 69.831 190.793 70.923ZM259.425 134.481C257.006 133.466 253.49 131.124 248.964 130.032C249.666 126.752 249.902 123.317 249.743 119.96C252.163 122.615 254.663 125.27 255.755 126.52C258.333 129.329 263.484 136.202 259.425 134.485V134.481ZM291.514 123.159C290.812 129.094 289.326 134.245 288.311 135.65C287.297 137.131 285.031 137.367 284.719 137.367C284.719 137.367 285.031 134.947 285.892 130.575C286.753 126.126 291.043 112.775 291.514 112.775C291.985 112.852 292.217 117.224 291.514 123.159ZM316.889 137.367C316.187 138.305 314.701 138.617 313.297 138.227C313.297 138.227 312.907 137.915 313.297 137.054C313.687 136.194 319.155 125.81 319.776 125.81C320.011 126.358 317.588 136.429 316.885 137.367H316.889Z" fill="#72C7F2"/>
</svg>
