<svg width="188" height="264" viewBox="0 0 188 264" fill="none" xmlns="http://www.w3.org/2000/svg">
<path d="M5.17813 122.061C13.6931 120.792 15.2985 103.985 29.0237 78.5853C38.3748 61.2763 48.7296 47.3161 54.3821 40.1697C55.1489 42.1404 56.3547 44.6812 58.0402 47.5309C51.6076 58.8724 40.6342 78.3698 33.6601 91.5356C23.3123 111.073 12.8703 148.054 10.6401 165.243C8.40995 182.433 17.4269 183.723 21.7435 178.6C26.06 173.476 26.7249 151.871 35.9139 122.22C41.4544 104.338 54.0655 82.8005 63.2342 68.379C53.1065 92.5104 42.7006 130.269 37.756 155.373C31.6835 186.218 29.1932 228.273 27.5561 246.598C25.9189 264.924 37.0333 266.981 39.6689 260.388C42.3046 253.796 41.8274 210.506 52.6337 163.645C61.0915 126.969 73.2558 84.8085 78.1413 68.2095C80.1225 69.4044 82.2707 70.451 84.5131 71.4009C83.3459 83.0072 80.4429 108.888 75.8318 130.464C69.6823 159.247 52.396 189.783 52.9769 196.082C53.5618 202.382 65.6713 206.428 71.2429 193.191C74.4852 185.492 82.2835 161.611 88.2763 142.81C86.211 152.622 84.4398 160.828 83.3831 165.344C79.0353 183.859 71.0989 225.641 71.4808 242.82C71.8628 260 83.8057 263.439 85.3046 253.255C86.8036 243.071 89.9428 215.685 93.5976 197.033C97.2533 178.377 104.289 150.206 109.119 127.191C111.019 118.15 112.074 106.91 112.663 96.5776C113.456 105.087 114.163 113.189 114.456 117.93C115.291 131.465 112.665 163.409 110.486 186.102C108.307 208.796 102.533 232.194 103.161 239.506C103.792 246.818 112.879 249.104 118.434 240.894C123.988 232.684 126.123 214.439 129.258 195.532C132.389 176.624 136.956 135.883 134.665 111.848C133.332 97.8554 129.364 81.5614 126.278 70.3562C127.931 69.4999 129.53 68.5662 131.059 67.5479C135.028 77.3463 142.144 96.1251 145.269 111.999C149.719 134.605 148.96 153.135 147.138 168.427C145.315 183.719 141.059 199.668 141.354 210.217C141.649 220.767 147.392 228.549 152.726 227.767C158.059 226.985 157.641 220.578 156.87 211.655C156.102 202.733 155.083 185.854 157.454 171.39C159.825 156.926 160.343 128.294 159.575 111.607C159.369 107.108 157.432 100.101 154.729 92.2843C157.397 97.8738 159.686 102.909 161.057 106.449C166.803 121.27 167.415 142.954 167.655 153.061C167.895 163.169 171.639 174.421 177.185 168.367C182.731 162.314 183.459 151.682 181.639 135.217C179.819 118.752 172.786 85.5605 162.225 66.1628C157.32 57.1555 153.078 51.6264 149.928 48.2548C150.552 47.3502 151.15 46.4487 151.72 45.5583C161.945 52.3683 170.208 67.9961 174.595 75.2947C179.316 83.1541 185.929 87.3765 187.329 81.9114C188.728 76.4463 188.283 69.458 180.872 57.1729C175.608 48.4446 163.237 40.9654 156.491 37.354C160.175 30.3327 161.959 25.1531 161.959 25.1531C161.959 25.1531 157.853 22.7342 140.251 17.4248C122.653 12.1162 52.0556 -1.11872 51.4716 0.344846C51.1262 1.2066 50.8333 11.1848 51.4046 21.2935C47.1453 24.4277 41.0299 29.6569 34.6185 37.7424C23.001 52.3899 9.83697 76.4786 5.50591 90.9866C1.17567 105.491 -3.33849 123.338 5.17651 122.069L5.17813 122.061Z" fill="#5D917E"/>
</svg>
