<svg width="275" height="275" viewBox="0 0 275 275" fill="none" xmlns="http://www.w3.org/2000/svg">
<path d="M0.796768 194.556C1.05815 195.549 5.60055 195.667 7.30128 195.402C9.0425 195.139 10.5852 193.378 11.3657 193.378C12.1521 193.341 13.4069 193.366 15.5392 193.79C17.6351 194.212 17.4287 192.161 19.4902 190.975C21.5113 189.787 23.0396 189.867 26.9275 189.752C30.8557 189.643 29.8566 188.453 31.6164 187.053C33.374 185.693 34.0185 185.336 36.7226 185.396C39.4265 185.459 39.4451 183.537 40.9451 183.379C42.4046 183.22 43.8745 181.373 47.5393 181.015C51.2041 180.657 53.0935 179.812 53.8716 181.422C54.6153 182.989 53.922 183.501 53.711 184.511C53.5 185.52 51.2176 185.714 50.7311 186.002C50.2446 186.29 50.1694 187.737 50.5502 188.7C50.931 189.663 51.3123 189.914 51.2754 191.327C51.2812 192.701 50.4543 192.812 49.9798 192.869C49.5075 192.885 49.4749 194.294 49.3734 195.463C49.272 196.633 49.7724 196.858 50.1129 197.112C50.4555 197.324 50.4896 199.639 50.0982 200.444C49.7008 201.285 48.3101 201.607 48.1722 202.775C47.9916 203.981 48.7437 203.902 49.0173 204.66C49.2563 205.38 48.3274 208.86 48.3029 209.33C48.2785 209.8 49.1439 210.512 49.7032 211.09C50.2199 211.706 51.2985 211.368 52.1234 210.589C52.9081 209.805 55.1276 209.412 56.046 208.322C57.005 207.234 56.3343 205.044 56.7928 203.028C57.2492 201.052 58.5969 202.26 58.8748 201.449C59.1892 200.64 58.8731 199.213 59.2404 196.684C59.6463 194.193 61.8071 193.366 62.0566 193.103C62.3404 192.882 64.1102 190.584 64.1897 189.055C64.2691 187.527 66.9712 186.062 67.0582 186.656C67.1473 187.209 68.4505 188.569 69.2245 189.475C70.0046 190.341 69.1877 191.669 69.0293 193.229C68.9095 194.752 70.9872 194.038 71.4938 194.849C72.0004 195.66 71.5522 196.775 71.2824 198.915C71.0105 201.096 71.8839 201.654 72.4534 202.037C73.0593 202.422 74.3707 202.844 74.8632 203.926C75.317 204.97 76.0082 205.279 76.9871 205.293C77.9681 205.267 78.8135 204.095 79.1868 202.233C79.5174 200.408 80.9647 200.484 81.0906 199.547C81.18 198.609 81.7172 197.267 81.0992 196.332C80.479 195.438 80.1203 194.753 80.4026 192.374C80.6848 189.994 81.3134 187.677 80.6386 187.053C79.9251 186.467 80.2176 183.108 80.457 181.474C80.7026 179.8 79.5755 179.587 78.8218 178.995C78.0699 178.367 78.8871 176.958 79.4427 175.341C79.9983 173.723 78.7722 173.147 78.8715 172.018C79.0075 170.887 81.1949 169.55 82.9097 169.013C84.661 168.478 85.7961 168.537 86.826 167.57C87.8559 166.604 87.2397 165.633 87.8582 164.291C88.5152 162.992 89.1984 162.674 90.4146 161.875C91.6735 161.038 91.4731 159.654 91.7754 157.592C92.1182 155.533 93.1623 155.075 94.1578 153.989C95.1168 152.901 95.3015 150.833 95.942 150.553C96.546 150.272 96.1871 151.155 96.1363 152.132C96.0855 153.109 96.3184 153.947 96.7256 155.106C97.1368 156.266 97.3517 156.667 97.4668 159.693C97.5879 162.679 97.0117 165.397 97.5813 166.561C98.1466 167.728 103.403 163.961 104.995 162.044C106.586 160.127 106.308 159.368 106.81 157.313C107.268 155.296 108.056 155.927 108.766 153.61C109.438 151.251 109.278 150.576 110.123 150.112C110.972 149.648 111.317 151.312 112.251 152.966C113.185 154.624 113.331 154.786 113.422 156.088C113.515 157.349 115.337 158.5 115.434 159.603C115.537 160.669 114.572 161.871 113.721 163.16C112.91 164.451 113.303 165.179 113.242 166.35C113.181 167.522 111.46 170.453 111.46 170.453C111.46 170.453 110.28 172.038 110.204 173.485C110.129 174.932 110.794 175.751 110.516 177.265C110.24 178.82 108.773 179.134 107.805 180.38C106.879 181.625 107.442 186.597 107.028 187.754C106.614 188.907 102.114 188.755 99.106 190.009C96.0957 191.303 95.3799 193.03 92.7303 195.677C90.119 198.366 87.9686 198.291 87.4779 199.363C87.0337 200.401 86.9686 202.357 86.5672 203.275C86.1292 204.195 84.3555 205.083 83.198 205.453C82.0425 205.788 82.2026 206.462 82.1395 207.675C82.0765 208.887 81.5189 209.837 80.5456 211.201C79.6131 212.563 76.5623 213.153 75.8304 214.407C75.0986 215.662 76.5558 216.327 76.8819 217.559C77.1695 218.83 76.3303 219.1 75.8437 220.172C75.3997 221.206 74.4285 222.529 74.406 223.666C74.424 224.805 75.3097 225.908 76.3068 226.354C77.306 226.76 80.6204 225.635 82.092 224.46C83.5617 223.321 84.4882 222.154 85.1756 220.974C85.865 219.754 89.0575 219.489 89.3516 218.366C89.6052 217.241 91.8472 215.634 92.954 215.456C94.0587 215.318 93.0775 216.129 92.7348 217.404C92.4327 218.681 91.9803 220.58 91.4836 221.847C90.9868 223.114 89.2941 223.225 88.7546 225.314C88.2516 227.406 89.1517 226.746 88.8513 228.693C88.5551 230.637 85.4496 230.793 85.0177 233.002C84.5896 235.215 84.452 234.814 83.7788 235.722C83.1056 236.63 81.1211 237.819 80.3567 238.918C79.5558 240.014 81.1023 240.448 80.7737 241.452C80.4836 242.497 78.5277 242.432 77.731 243.371C76.9748 244.311 77.6334 245.248 78.3588 247.167C79.082 249.128 77.5475 249.95 78.1413 251.351C78.733 252.792 81.5665 253.334 82.9408 252.543C84.3557 251.755 85.8639 251.362 87.1309 251.152C88.3552 250.979 89.4237 249.271 90.2957 246.885C91.1271 244.498 93.7909 242.283 94.695 241.468C95.6396 240.655 96.7325 238.477 96.8787 237.151C97.0675 235.787 97.9595 234.5 99.216 235.195C100.473 235.887 101.162 235.455 101.612 236.653C102.098 237.853 101.181 244.943 99.9218 245.78C98.6245 246.575 97.1444 247.912 97.6673 249.191C98.1515 250.432 97.7396 253.118 97.2387 255.169C96.7802 257.186 95.7911 256.585 95.6065 257.868C95.4219 259.151 96.1353 259.034 96.4592 261.091C96.8218 263.187 96.1928 266.216 96.6914 267.18C97.1533 268.148 97.8021 268.413 99.1135 267.347C100.385 266.275 101.344 265.187 102.809 264.913C104.275 264.636 105.783 262.755 106.485 260.592C107.188 258.393 108.847 257.382 109.836 255.706C110.826 254.03 110.416 252.049 110.804 250.695C111.187 249.341 112.691 248.322 113.356 247.653C114.056 247.023 114.705 245.098 114.569 243.168C114.399 241.2 114.736 240.746 114.947 238.952C115.115 237.197 116.076 236.068 116.765 236.421C117.414 236.767 116.796 237.325 116.949 238.902C117.061 240.517 116.347 241.419 116.823 242.818C117.34 244.218 119.003 246.931 121.239 246.929C123.515 246.93 125.77 245.006 126.747 243.569C127.722 242.169 128.084 238.265 128.244 235.883C128.411 233.461 129.098 233.066 129.842 231.572C130.586 230.083 130.345 227.912 130.345 227.912C130.345 227.912 130.147 226.491 130.5 225.725C130.853 224.958 131.645 224.097 132.004 222.429C132.363 220.761 131.703 219.942 130.422 218.152C129.141 216.362 130.542 215.061 130.625 213.455C130.709 211.85 130.101 210.721 128.946 210.348C127.79 209.975 127.624 208.633 127.894 207.98C128.202 207.289 128.47 205.185 128.462 203.851C128.416 202.475 127.09 202.329 125.426 201.889C123.762 201.449 123.337 200.565 123.383 199.665C123.43 198.765 123.445 197.001 124.061 195.7C124.716 194.442 125.758 194.727 126.161 192.984C126.567 191.201 125.783 190.493 125.838 189.439C125.892 188.385 126.509 187.08 127.178 185.55C127.847 184.015 127.049 182.799 127.461 180.113C127.875 177.391 130.194 175.077 130.498 172.19C130.805 169.345 130.971 170.605 131.839 169.004C132.705 167.439 132.286 163.459 133.202 161.624C134.161 159.751 134.565 159.577 135.173 157.65C135.743 155.757 136.138 155.659 136.518 153.679C136.893 151.699 137.906 151.125 138.255 151.928C138.567 152.729 138.692 153.284 138.617 154.731C138.542 156.178 138.706 156.776 139.342 158.927C139.974 161.078 141.145 162.708 141.344 164.21C141.544 165.671 141.658 166.462 142.811 168.445C143.966 170.387 143.797 169.87 144.207 171.773C144.656 173.678 147.327 178.915 147.215 181.067C147.103 183.22 148.897 185.703 149.624 188.29C150.313 190.915 148.916 194.411 149.345 195.921C149.738 197.433 150.234 198.439 150.242 199.773C150.216 201.064 149.697 201.98 150.477 204.333C151.257 206.687 151.854 208.015 151.325 209.906C150.83 211.839 148.296 213.825 145.391 216.146C142.486 218.466 140.633 221.662 139.609 224.003C138.587 226.304 137.283 229.492 136.141 234.883C135.038 240.236 133.523 246.003 133.275 249.282C133.061 252.605 131.468 256.131 132.236 257.228C133.04 258.327 135.065 257.847 137.735 255.514C140.446 253.184 140.474 254.913 141.177 253.417C141.879 251.961 142.133 250.133 142.621 249.02C143.108 247.948 144.981 248.123 145.383 245.713C145.744 243.301 146.328 240.352 147.469 239.509C148.611 238.666 149.037 236.493 149.817 235.082C150.555 233.71 152.585 231.657 152.856 232.456C153.127 233.254 152.756 234.373 151.953 236.214C151.191 238.056 152.202 240.503 152.033 242.181C151.828 243.857 150.868 244.982 150.756 246.35C150.644 247.718 152.312 248.862 152.36 251.689C152.447 254.555 151.32 254.342 151.036 256.051C150.752 257.764 152.724 259.082 152.537 260.405C152.393 261.691 151.838 261.82 151.706 263.577C151.539 265.296 152.425 265.615 153.247 267.853C154.111 270.092 153.533 270.652 153.715 271.682C153.859 272.669 154.685 274.126 156.088 274.276C157.491 274.427 159.38 272.801 161.055 270.771C162.729 268.74 163.95 267.86 164.444 267.418C164.939 266.973 164.964 265.015 164.615 262.643C164.265 260.312 165.352 259.035 165.923 260.085C166.494 261.135 166.427 262.424 166.593 263.766C166.759 265.108 166.285 268.221 167.123 270.147C167.966 272.073 168.919 271.809 169.896 272.645C170.873 273.48 173.994 272.232 174.591 271.397C175.183 270.566 177.453 269.115 177.859 267.331C178.265 265.548 178.77 260.359 178.077 258.595C177.384 256.832 177.847 255.445 178.459 255.79C179.067 256.135 180.129 256.897 180.563 257.546C181 258.194 181.101 260.789 180.994 262.86C180.886 264.932 181.111 265.143 182.7 266.242C184.289 267.344 185.432 266.461 186.916 268.107C188.399 269.753 189.882 271.399 191.277 271.708C192.671 272.016 194.095 268.793 194.403 267.399C194.712 266.004 195.343 259.879 194.934 257.191C194.525 254.503 192.819 252.61 193.237 250.591C193.654 248.572 194.762 245.414 192.589 243.419C190.417 241.424 190.936 237.529 189.307 235.639C187.677 233.75 185.688 229.805 186.328 229.603C186.965 229.4 187.8 229.992 188.906 231.306C190.013 232.619 192.866 233.552 195.976 232.616C199.085 231.68 199.195 232.548 202.203 233.566C205.21 234.584 205.977 233.372 204.769 230.956C203.561 228.539 203.59 226.5 203.031 223.65C202.472 220.796 199.513 220.406 197.636 218.821C195.759 217.232 195.638 213.461 193.769 213.21C191.901 212.954 190.259 212.869 189.043 212.102C187.826 211.336 185.256 211.044 182.553 210.196C179.853 209.348 177.751 205.987 176.059 204.602C174.367 203.222 173.798 201.347 173.867 200.724C173.978 200.064 173.664 197.812 173.004 196.915C172.345 195.979 171.793 190.812 171.694 187.397C171.558 183.979 171.044 182.538 169.745 180.393C168.446 178.248 168.635 174.608 167.588 172.086C166.544 169.561 165.52 169.625 165.069 166.976C164.615 164.363 163.679 162.042 162.486 160.057C161.294 158.113 161.319 155.371 161.084 153.082C160.847 150.834 159.224 150.396 158.829 148.925C158.436 147.412 159.115 145.683 158.643 143.423C158.173 141.123 155.401 139.413 155.91 137.907C156.378 136.403 155.509 134.277 155.242 132.617C154.974 130.957 155.491 130.866 156.339 129.654C157.144 128.48 158.34 128.148 161.117 128.292C163.894 128.437 164.259 128.22 164.51 126.428C164.8 124.602 165.99 123.603 167.336 124.848C168.682 126.092 168.505 127.221 168.854 130.377C169.24 133.495 172.698 136.423 173.238 140.333C173.819 144.245 172.544 146.886 172.329 148.049C172.071 149.251 173.316 150.178 173.613 152.746C173.872 155.267 173.298 158.806 172.925 159.966C172.592 161.123 172.825 161.883 173.897 163.858C174.971 165.796 174.835 167.711 174.663 169.544C174.527 171.378 175.783 172.151 177.471 175.1C179.121 178.088 178.486 178.173 178.482 180.526C178.475 182.92 180.994 184.97 182.19 187.621C183.343 190.307 182.429 190.613 182.483 191.831C182.536 193.09 183.731 194.25 185.184 195.699C186.637 197.149 186.335 198.426 187.132 199.76C187.965 201.096 190.993 201.647 192.231 199.712C193.43 197.774 194.545 195.166 194.448 193.278C194.351 191.391 195.232 186.494 196.646 188.686C198.06 190.877 198.206 191.12 198.879 193.273C199.511 195.424 200.683 195.562 202.9 197.405C205.119 199.207 204.693 200.595 206.136 202.317C207.573 204.078 210.447 205.402 211.866 204.537C213.246 203.629 212.091 202.472 212.349 198.286C212.644 194.107 211.736 191.942 210.778 190.046C209.813 188.191 210.493 186.463 209.763 184.701C209.03 182.935 207.702 182.123 207.058 180.914C206.413 179.706 206.815 176.508 208.747 176.336C210.64 176.121 213.253 178.647 214.712 180.056C216.205 181.508 218.435 181.624 221.463 182.171C224.493 182.76 223.437 184.156 224.556 185.312C225.673 186.427 227.037 185.912 229.538 186.042C232.039 186.172 234.565 186.694 235.39 186.619C236.219 186.544 236.385 184.829 235.23 182.18C234.035 179.528 231.401 175.156 229.163 172.922C226.892 170.645 224.439 167.225 221.318 166.904C218.198 166.547 218.353 165.848 215.414 164.284C212.515 162.723 210.651 162.391 207.588 161.642C204.566 160.895 205.361 159.213 206.192 159.098C207.025 158.946 206.761 159.481 208.123 160.414C209.524 161.389 211.306 161.051 213.371 160.569C215.473 160.089 217.687 160.517 219.799 159.923C221.907 159.326 221.913 157.72 220.393 155.995C218.914 154.272 214.5 151.689 212.821 150.74C211.182 149.829 209.031 148.974 206.23 149.3C203.469 149.628 198.246 149.002 196.442 148.201C194.642 147.4 192.853 143.348 192.592 140.786C192.292 138.262 191.478 135.785 190.83 133.166C190.222 130.545 187.62 126.256 186.733 123.698C185.888 121.105 186.145 120.688 187.071 120.931C188.004 121.138 189.704 122.36 191.344 123.271C193.024 124.183 194.35 122.76 195.649 122.71C196.945 122.659 200.863 123.53 202.873 125.594C204.885 127.621 209.577 133.942 211.326 136.504C213.073 139.103 212.292 140.514 213.254 142.409C214.219 144.264 215.968 144.55 217.715 146.368C219.468 148.146 221.482 150.84 224.571 153.273C227.625 155.668 231.699 158.782 233.304 158.788C234.871 158.829 235.401 156.938 235.33 154.54C235.298 152.107 234.24 149.857 233.663 148.141C233.128 146.385 230.309 142.515 230.34 141.927C230.443 141.425 231.412 140.922 232.353 141.678C233.333 142.437 234.428 143.981 235.342 145.244C236.294 146.55 239.448 146.242 241.041 147.268C242.634 148.294 243.64 148.578 246.108 149.413C248.613 150.251 248.017 152.651 250.786 153.734C253.554 154.821 253.141 152.913 254.607 152.64C256.113 152.364 259.044 152.517 259.365 150.18C259.645 147.841 256.064 142.753 254.544 140.32C253.026 137.847 250.643 135.373 247.941 133.782C245.242 132.15 241.486 128.231 241.73 128.008C241.977 127.785 244.576 126.823 247.099 127.307C249.586 127.79 250.522 127.839 254.141 127.674C257.759 127.508 256.707 125.848 258.772 126.073C260.838 126.298 265.178 125.857 267.517 124.568C269.897 123.282 273.888 121.172 274.079 119.771C274.27 118.371 269.781 114.174 268.277 113.706C266.775 113.197 266.264 112.463 264.361 111.307C262.499 110.15 259.703 110.358 258.256 111.067C256.811 111.736 254.786 110.651 252.214 110.322C249.64 110.03 249.382 111.236 246.406 111.158C243.392 111.042 242.79 109.796 239.961 109.88C237.131 109.969 235.554 109.415 235.897 108.844C236.199 108.27 238.139 107.233 241.577 105.217C244.977 103.235 245.299 101.487 245.166 100.306C245.071 99.0854 241.459 98.4261 239.363 98.7887C237.267 99.1512 236.902 99.368 235.009 98.798C233.079 98.2262 229.268 99.0484 226.87 99.9846C224.427 100.919 222.725 99.7285 219.032 100.638C215.336 101.584 209.629 107.994 208.156 107.641C206.725 107.254 204.485 105.841 202.319 105.22C200.194 104.561 199.098 103.837 195.605 103.851C192.115 103.828 194.146 104.011 190.905 103.724C187.664 103.438 187.36 101.776 185.714 100.983C184.109 100.192 184.283 100.596 183.531 99.9671C182.82 99.3408 180.991 91.5225 181.117 89.0942C181.243 86.6659 181.024 86.3456 179.271 84.6448C177.516 82.9845 179.155 77.0293 178.04 75.8738C176.926 74.7184 175.465 72.6425 175.773 71.1667C176.087 69.6547 175.508 67.9742 174.799 65.7423C174.088 63.5469 174.702 63.0707 174.952 61.3196C175.201 59.5684 174.186 57.906 173.481 54.1053C172.736 50.3024 173.754 48.8635 174.845 46.7252C175.974 44.6255 176.262 42.8398 176.55 40.3427C176.875 37.8515 178.513 38.0139 179.875 36.7515C181.272 35.5315 180.674 33.4192 180.249 31.828C179.822 30.2774 181.537 26.6798 182.685 24.9346C183.873 23.1916 183.451 21.5235 183.811 19.148C184.129 16.7703 184.554 10.0894 184.554 10.0894C184.554 10.0894 184.382 8.86506 179.768 8.62522C175.155 8.38538 165.764 7.93783 165.318 9.01213C164.872 10.0865 165.707 19.662 164.553 25.9919C163.399 32.3259 159.384 39.4096 159.106 41.7893C158.826 44.1283 157.454 44.878 157.035 48.3887C156.658 51.8973 154.584 54.0252 154.697 55.6814C154.768 57.372 155.197 57.3944 155.825 61.1138C156.457 64.8335 155.812 65.8975 155.913 67.7075C156.055 69.5197 157.941 72.4795 158.363 75.6394C158.824 78.8015 159.177 80.3888 158.684 81.5013C158.193 82.6506 158.621 82.7135 159.036 83.796C159.49 84.8399 160.507 87.9495 160.255 90.5257C160.003 93.1019 160.157 93.1872 158.899 94.0241C157.642 94.8205 156.119 94.7048 155.037 94.4128C153.953 94.1613 153.756 93.4032 152.145 91.9495C150.497 90.4899 149.76 87.3135 150.007 85.5257C150.219 83.7318 149.878 81.9907 147.969 80.2411C146.06 78.4956 145.497 76.503 145.84 74.4436C146.142 72.3822 145.539 68.8998 144.375 67.8963C143.212 66.8928 142.574 64.0751 142.947 62.2125C143.319 60.3904 142.38 59.5165 141.422 58.4057C140.461 57.2583 140.867 53.9828 141.733 50.9304C142.599 47.878 143.803 47.3105 144.586 45.8635C145.371 44.3759 143.774 43.3498 144.307 41.4549C144.838 39.5232 146.947 38.2183 147.596 36.2928C148.283 34.4058 148.501 28.6532 149.517 27.2548C150.53 25.897 149.908 25.0395 150.804 22.8911C151.743 20.7042 152.678 19.3016 152.642 16.9462C152.608 14.5502 153.557 12.9533 155.31 10.1056C157.028 7.25192 157.249 2.99125 156.889 1.63925C156.53 0.246693 154.367 0.333487 148.402 0.454234C142.433 0.574741 123.693 1.21018 122.282 1.92134C120.871 2.63252 121.455 4.23184 120.133 7.84992C118.772 11.4253 117.395 12.9635 116.291 13.8857C115.143 14.8463 115.735 14.7186 115.256 17.2058C114.771 19.7292 113.668 21.3181 113.461 25.3072C113.254 29.2962 112.85 31.7466 112.363 32.8189C111.879 33.8546 112.428 35.3343 113.04 37.1668C113.688 39.0053 112.984 44.2612 112.211 46.3022C111.477 48.3818 112.134 49.2777 112.224 50.5792C112.275 51.8744 111.567 57.2113 111.662 58.3544C111.759 59.5342 111.148 61.4251 110.481 62.9188C109.857 64.3782 111.778 67.3804 111.52 70.8546C111.26 74.3694 110.593 77.3549 110.296 79.3028C109.961 81.2081 111.9 85.4266 111.549 88.4285C111.158 91.4283 110.494 94.414 108.631 96.2398C106.73 98.1002 103.036 101.282 99.8126 103.704C96.5892 106.126 93.5259 109.925 91.8961 111.174C90.2195 112.461 90.487 113.414 89.7793 115.69C89.0734 117.929 86.0715 119.143 84.9745 120.619C83.9201 122.056 84.8766 123.987 84.0189 125.394C83.1634 126.76 83.2562 128.728 82.5062 129.628C81.754 130.491 78.4542 129.848 76.9478 131.693C75.399 133.571 74.724 132.951 73.2765 134.445C71.8228 135.979 70.1081 135.808 70.124 136.988C70.1381 138.204 72.0818 138.582 73.971 139.147C75.864 139.717 76.7031 140.936 76.6603 141.759C76.6175 142.581 75.4701 144.245 74.1422 145.705C72.8122 147.127 71.4157 147.64 70.9147 148.911C70.418 150.178 69.9596 151.41 68.5486 152.905C67.1781 154.403 66.5476 154.411 65.678 156.049C64.8102 157.65 62.6513 158.44 61.372 159.67C60.1334 160.898 57.4982 161.782 54.644 162.341C51.788 162.936 50.8678 162.575 48.5043 162.765C46.1814 162.957 45.5345 164.847 43.7143 165.142C41.8556 165.476 37.5831 163.136 34.409 163.049C31.2368 163.002 29.6214 161.625 29.4937 161.814C29.4066 162.004 27.8559 162.354 26.2464 162.429C24.6329 162.504 22.6427 160.831 21.8135 161.691C20.9864 162.509 18.8601 161.891 16.8717 161.67C14.8406 161.487 14.0462 160.974 13.3732 161.801C12.7021 162.668 10.5275 161.494 8.66446 161.832C6.84218 162.168 5.72314 162.582 5.54644 164.495C5.40622 166.411 6.04471 166.952 7.57686 167.662C9.10918 168.367 8.75651 168.349 9.00142 169.658C9.24657 170.964 10.7385 170.18 11.2227 170.717C11.7031 171.25 14.4699 170.886 15.6271 171.222C16.827 171.52 15.4343 172.663 15.7098 173.385C15.9834 174.143 15.7623 174.644 15.6688 175.659C15.541 176.632 12.9726 177.011 12.1091 176.966C11.2457 176.921 10.8785 179.528 9.75737 180.685C8.67473 181.885 7.10801 181.137 6.57073 182.401C6.03346 183.666 6.24601 184.112 5.16544 185.271C4.04648 186.388 3.89833 186.266 4.00771 187.134C4.12303 187.965 3.93213 190.073 2.93878 191.119C1.94137 192.164 0.499993 193.54 0.759263 194.574L0.796768 194.556ZM121.157 115.358C122.357 114.164 123.985 113.741 126.156 112.715C128.286 111.688 129.77 111.842 130.968 112.965C132.123 114.123 132.589 115.716 133.17 118.141C133.788 120.567 132.906 122.44 133.21 124.183C133.511 125.886 130.807 126.607 129.471 127.44C128.095 128.271 128.03 128.739 127.784 130.49C127.498 132.239 126.898 133.229 126.085 134.479C125.276 135.729 124.832 135.983 124.255 135.758C123.716 135.571 123.465 132.814 123.59 131.959C123.751 131.142 123.696 128.436 123.696 128.436C123.37 127.911 122.071 126.547 121.351 126.001C120.636 125.456 119.959 123.38 120.203 120.962C120.449 118.504 119.961 116.556 121.161 115.366L121.157 115.358Z" fill="#161423"/>
</svg>
