<svg width="229" height="328" viewBox="0 0 229 328" fill="none" xmlns="http://www.w3.org/2000/svg">
<path d="M201.173 325.061C201.173 325.061 200.885 321.468 201.604 312.128C202.322 302.787 200.528 291.794 197.004 285.039C193.485 278.285 188.382 270.312 183.28 267.223C178.177 264.134 171.321 260.496 169.871 258.012C168.422 255.532 169.043 252.118 167.286 249.95C165.528 247.778 161.444 247.47 154.466 246.747C147.488 246.025 142.938 240.029 140.717 236.769C138.493 233.514 138.651 231.236 134.153 231.703C129.655 232.17 128.62 234.236 123.4 234.959C118.179 235.681 115.338 234.285 111.977 231.959C108.616 229.633 103.809 228.289 98.5889 230.77C93.3685 233.25 92.2319 236.144 86.3377 237.232C80.4435 238.316 77.7562 232.065 75.3287 231.545C72.9012 231.029 70.3681 231.598 67.2667 233.457C64.1654 235.316 59.4078 234.801 55.9452 232.008C52.4825 229.215 49.0686 225.184 44.1608 225.496C39.253 225.809 38.9932 227.408 34.2884 229.889C29.5836 232.369 25.7597 232.162 22.3457 229.527C18.9358 226.893 17.4339 225.444 13.7114 226.426C9.98897 227.408 7.97551 229.268 4.40731 227.924C0.839124 226.58 -0.297481 221.254 0.0638034 217.329C0.425088 213.4 2.69834 209.421 5.7997 208.492C8.90106 207.562 12.725 209.527 15.465 212.06C18.2051 214.593 20.6327 215.368 22.8044 215.263C24.9762 215.161 27.1479 212.214 25.9585 210.505C24.7691 208.8 22.1833 206.267 18.0996 204.51C14.0158 202.752 11.1215 199.289 11.5356 194.532C11.9497 189.774 13.8088 189.62 15.051 187.862C16.2932 186.104 14.9982 183.778 13.139 181.659C11.2798 179.54 6.93634 175.095 6.31525 171.373C5.69417 167.65 8.27995 163.928 12.3109 163.619C16.3419 163.311 16.8615 168.324 21.5622 170.338C26.2671 172.355 31.4346 173.078 31.6944 178.558C31.9542 184.038 30.5051 186.932 31.4874 189.774C32.4698 192.616 36.448 193.135 39.5006 193.237C42.5492 193.338 46.1174 196.492 46.4787 201.972C46.84 207.453 45.9631 208.228 48.5977 212.259C51.2322 216.29 56.7124 214.276 62.3995 212.259C68.0867 210.241 71.3424 210.708 73.7211 214.686C76.0999 218.669 78.5275 220.735 82.4569 220.581C86.3864 220.426 89.642 217.171 93.3117 213.911C96.9814 210.651 102.823 209.88 105.823 211.378C108.823 212.876 112.748 217.528 116.625 219.545C120.501 221.563 125.462 218.356 125.567 215.977C125.669 213.598 124.691 211.171 120.814 211.171C116.937 211.171 114.506 207.448 113.836 203.572C113.162 199.695 113.682 195.51 109.237 194.268C104.792 193.026 100.655 193.44 96.8312 195.818C93.0073 198.197 85.6679 198.351 81.4258 194.215C77.1878 190.078 78.016 183.206 73.7739 180.981C69.5359 178.757 68.448 179.431 62.9719 178.554C57.4918 177.677 52.584 172.505 51.1348 167.646C49.6856 162.787 50.1524 155.809 47.9806 151.88C45.8089 147.95 42.6548 146.452 38.8836 143.765C35.1084 141.078 31.9583 136.84 30.7161 131.774C29.474 126.708 31.8 120.659 36.6104 119.575C41.4207 118.491 46.7953 119.267 48.4475 123.557C50.0996 127.848 50.4122 132.809 56.2536 135.602C62.0951 138.394 67.3155 141.029 68.3993 148.267C69.4832 155.505 69.7957 160.518 72.7428 163.672C75.6899 166.826 82.0997 166.619 86.7517 166.567C91.4038 166.514 93.3685 169.822 95.4875 172.769C97.6065 175.716 102.364 179.54 107.893 176.593C113.426 173.646 112.184 166.668 109.598 163.774C107.012 160.879 105.413 156.487 106.03 152.144C106.651 147.8 108.096 145.632 107.735 141.703C107.373 137.773 105.875 136.121 100.188 134.518C94.5011 132.914 88.3512 126.091 86.1794 119.888C84.0076 113.685 84.99 106.24 87.7828 103.09C90.5757 99.936 96.9855 100.042 100.034 104.02C103.083 108.002 104.219 112.808 111.303 119.681C118.386 126.557 121.898 131.932 120.505 138.443C119.109 144.954 116.369 148.884 116.73 154.263C117.092 159.637 121.744 161.655 124.017 168.373C126.29 175.091 125.36 179.228 125.153 184.087C124.946 188.946 126.55 195.408 130.065 199.699C133.581 203.99 139.783 203.316 144.643 205.386C149.502 207.453 152.189 212.157 153.894 216.448C155.599 220.739 159.942 222.805 165.678 223.633C171.414 224.461 175.863 226.012 178.084 233.453C180.308 240.898 183.718 245.189 186.819 246.581C189.921 247.973 191.057 246.272 190.595 243.788C190.128 241.308 188.942 234.123 191.471 226.783C194.004 219.444 195.141 215.721 194.626 211.792C194.11 207.863 193.383 205.122 188.423 203.986C183.462 202.849 184.96 196.439 178.652 194.889C172.344 193.338 166.762 197.889 160.458 191.682C154.15 185.479 156.735 177.726 159.63 174.933C162.524 172.14 172.758 171.417 176.533 176.585C180.308 181.753 179.533 182.427 183.203 182.995C186.872 183.563 190.079 177.62 189.304 173.845C188.528 170.07 186.101 164.074 179.379 162.682C172.66 161.285 163.718 156.373 161.079 152.809C158.444 149.241 157.823 141.439 154.101 139.576C150.378 137.717 143.348 134.769 141.643 130.166C139.938 125.567 141.541 115.329 139.938 111.712C138.334 108.095 135.854 107.421 133.061 103.752C130.268 100.082 131.044 96.2054 131.612 92.897C132.18 89.5886 133.836 85.2978 131.872 83.1261C129.907 80.9543 125.462 78.9408 120.757 77.4917C116.052 76.0424 115.845 70.4081 116.105 67.4122C116.365 64.4124 119.105 60.4342 117.449 57.073C115.797 53.7119 107.317 53.3506 103.44 51.0773C99.5632 48.8041 96.9773 43.6852 97.0301 37.5353C97.0829 31.3853 104.783 29.1607 110.625 31.227C116.466 33.2932 121.739 31.6938 125.616 33.1917C129.493 34.6896 132.127 36.2403 132.18 44.355C132.233 52.4697 130.938 57.8483 134.352 63.5842C137.762 69.3201 147.017 76.8178 149.806 82.2452C152.599 87.6726 151.718 93.6155 151.097 100.131C150.476 106.642 153.524 112.589 158.436 114.241C163.348 115.893 166.344 116.62 166.551 122.51C166.758 128.404 166.652 131.193 168.41 133.519C170.168 135.845 172.648 137.035 173.683 136.828C174.718 136.621 176.371 130.885 176.269 123.854C176.168 116.823 175.08 109.329 172.031 103.074C168.983 96.8183 166.758 90.9769 167.74 84.3601C168.723 77.7433 173.943 70.8668 175.132 64.5626C176.322 58.2543 174.824 55.8795 172.445 52.5711C170.066 49.2628 169.242 43.2143 171.101 37.5271C172.961 31.8399 175.185 29.2582 173.996 25.3815C172.806 21.5048 170.428 19.6943 165.776 15.7689C161.124 11.8394 159.005 8.73804 160.04 4.55283C161.075 0.367613 169.965 -1.49565 176.168 1.39869C182.37 4.29302 186.556 7.18733 185.419 16.6984C184.282 26.2096 182.37 30.7602 183.401 37.994C184.437 45.2318 191.001 48.5889 191.93 57.6373C192.86 66.6816 189.551 72.523 186.71 77.6418C183.868 82.7607 182.472 88.5494 184.591 96.3556C186.71 104.162 189.551 107.316 187.639 114.655C185.727 121.995 185.622 129.541 189.499 135.589C193.375 141.638 199.269 149.651 200.715 158.488C202.164 167.326 200.922 174.048 202.679 175.858C204.437 177.669 208.16 169.81 207.072 162.523C205.988 155.237 203.97 148.673 206.917 143.655C209.864 138.642 212.345 138.898 213.38 132.025C214.415 125.149 213.226 120.083 215.19 117.554C217.155 115.021 224.442 113.47 226.926 122.567C229.406 131.664 227.803 138.642 224.653 145.726C221.499 152.809 220.415 156.272 220.723 164.334C221.032 172.396 221.86 176.325 217.622 183.255C213.384 190.18 208.732 196.021 208.111 203.933C207.49 211.841 208.151 224.474 205.521 231.829C202.886 239.189 199.984 242.631 200.053 254.103C200.122 265.579 204.709 270.235 205.927 285.356C207.141 300.477 207.344 310.601 206.873 316.272C206.402 321.943 206.199 326.534 203.767 327.074C201.336 327.614 201.157 325.049 201.157 325.049L201.173 325.061Z" fill="#2881B5"/>
</svg>
