<svg width="1440" height="1024" viewBox="0 0 1440 1024" fill="none" xmlns="http://www.w3.org/2000/svg">
<g clip-path="url(#clip0_95_3)">
<rect width="1440" height="1024" fill="#F3FBFE"/>
<path d="M1282.14 847.034C1274.65 840.786 1267.39 841.57 1267.15 840.396C1267.15 839.227 1282.46 834.539 1284.95 832.822C1287.45 831.027 1287.92 826.42 1281.91 828.45C1276.05 830.402 1266.21 837.429 1265.74 837.429C1265.9 837.039 1268.24 833.682 1271.13 830.869C1274.02 828.06 1277.84 824.934 1282.45 821.89C1286.98 818.768 1291.12 816.816 1291.35 813.771C1291.51 810.727 1287.22 810.256 1281.83 813.458C1277.45 816.036 1269.96 826.108 1267.22 829.854C1268.32 828.291 1270.27 825.405 1272.69 821.423C1276.6 815.098 1279.72 808.539 1280.89 802.372C1282.06 796.206 1278.47 792.532 1274.64 793.158C1270.81 793.783 1267.07 799.092 1265.2 805.417C1263.24 811.741 1260.36 820.254 1257.31 826.733C1254.19 833.134 1252.08 837.429 1252.08 836.337C1252.08 835.164 1252.62 833.447 1253.56 829.387C1254.57 825.328 1257.54 812.367 1259.88 806.042C1262.15 799.717 1265.97 789.488 1263.63 786.991C1261.29 784.414 1255.51 785.818 1252.93 791.834C1250.35 797.769 1249.18 814.632 1248.72 821.269C1248.33 827.906 1245.59 839.15 1244.89 839.853C1244.11 840.632 1239.97 842.195 1239.82 840.165C1239.66 838.058 1243.17 833.061 1245.2 829.392C1247.23 825.722 1248.01 820.725 1245.9 819.633C1244.11 818.695 1240.75 825.799 1239.97 827.439C1240.28 826.189 1241.61 821.975 1243.33 816.584C1245.36 810.183 1246.76 804.715 1246.29 800.736C1245.9 796.831 1240.21 796.99 1240.21 796.99L1240.91 794.806C1241.69 792.541 1242.86 790.357 1242.31 788.558C1241.84 786.841 1239.42 786.918 1237.08 791.136C1234.81 794.964 1231.38 806.44 1230.76 807.613C1230.76 806.675 1229.66 799.413 1229.19 796.056C1228.72 792.622 1232.24 788.327 1235.2 784.422C1238.25 780.517 1235.59 776.222 1233.49 777.708C1231.38 779.189 1227.01 786.529 1225.91 786.61C1224.9 786.61 1225.29 784.345 1223.49 781.377C1221.7 778.487 1218.5 774.74 1215.53 776.145C1212.56 777.472 1212.4 781.142 1213.11 785.514C1213.89 789.886 1217.72 794.806 1219.2 798.398C1220.68 801.914 1221.07 806.44 1220.29 808.705C1219.59 810.97 1218.73 819.247 1218.57 822.917C1218.5 826.587 1215.22 832.598 1214.59 830.646C1213.97 828.693 1214.75 822.681 1214.83 819.089C1214.98 815.573 1215.22 805.502 1215.22 800.192C1215.14 794.806 1212.33 793.089 1211.39 794.181C1210.53 795.272 1210.14 796.056 1210.14 794.647C1210.14 793.239 1210.3 789.415 1209.2 788.871C1208.03 788.323 1205.46 788.558 1204.75 793.166C1204.05 797.85 1204.13 812.919 1205.23 815.651C1206.39 818.46 1208.58 825.568 1206.71 825.568C1204.91 825.645 1203.27 821.975 1202.41 818.541C1201.55 815.107 1201.86 802.145 1201.71 797.46C1201.48 792.776 1199.68 790.434 1197.34 792.541C1195 794.729 1194.92 802.847 1195.15 808.08C1195.39 813.231 1198.51 817.372 1196.94 817.213C1195.78 817.136 1193.66 814.323 1191.87 812.371V812.293C1190.7 805.421 1188.67 799.096 1187.34 794.493C1184.76 785.514 1172.11 772.788 1162.67 770.522C1153.3 768.257 1142.76 770.989 1142.76 770.989L1145.02 768.412C1147.21 765.834 1158.84 754.123 1160.48 750.217C1162.04 746.394 1161.1 743.426 1159 743.503C1156.89 743.58 1155.25 744.985 1150.49 752.247C1145.72 759.351 1140.33 770.908 1139.87 770.908C1139.55 770.596 1139.94 768.566 1141.04 764.194C1142.13 759.822 1144.47 751.78 1147.52 744.672C1150.64 737.646 1157.59 728.354 1159.15 724.53C1160.71 720.706 1157.82 716.488 1154.39 718.128C1150.96 719.768 1147.83 723.827 1145.57 730.7C1143.39 737.491 1139.4 757.561 1139.32 755.45C1139.24 753.343 1141.27 737.025 1141.82 728.747C1142.44 720.47 1142.83 716.646 1140.65 708.292C1138.46 700.015 1130.65 699.077 1127.53 703.997C1124.48 708.917 1125.11 718.599 1125.81 728.281C1126.51 737.885 1125.74 748.659 1125.81 758.34C1125.89 767.945 1125.42 773.332 1124.64 772.865C1123.78 772.398 1120.73 744.445 1119.25 736.481C1117.77 728.516 1117.92 715.636 1116.91 708.292C1115.97 700.876 1111.99 699.548 1107.93 702.516C1103.87 705.56 1105.12 713.212 1105.2 722.037C1105.28 730.858 1109.49 740.073 1111.52 746.556C1113.63 752.958 1116.67 767.872 1116.21 774.744C1115.74 781.617 1112.46 786.614 1112.23 784.893C1111.99 783.176 1113.16 770.137 1113.09 765.684C1113.01 761.235 1112.46 755.531 1110.98 755.377C1109.5 755.141 1107.16 756.238 1107.31 761.937C1107.55 767.636 1107.7 777.476 1107.07 777.866C1106.45 778.256 1106.53 775.913 1106.06 768.42C1105.67 761.003 1103.87 742.809 1102.93 736.797C1101.92 730.785 1100.2 726.101 1097.08 725.942C1094.03 725.707 1092.39 730.55 1092.39 730.55L1092.47 725.865C1092.63 721.181 1091.22 713.764 1089.66 713.841C1088.02 713.919 1087.31 716.261 1086.69 724.302C1085.99 732.344 1086.84 746.398 1086.69 746.398C1086.53 746.398 1086.53 745.618 1085.44 743.195C1084.42 740.853 1079.35 732.421 1078.88 731.483C1078.41 730.546 1080.13 710.013 1079.9 706.575C1079.66 703.06 1077.16 702.28 1074.59 705.715C1072.01 709.149 1071.38 721.331 1071.08 721.485C1070.6 721.485 1068.26 718.205 1064.91 715.161C1061.55 712.116 1055.3 710.164 1053.51 711.804C1051.63 713.444 1052.1 718.595 1053.04 721.644C1053.9 724.688 1056.94 729.921 1061.63 734.134C1066.39 738.352 1070.29 744.283 1072.71 748.736C1075.13 753.266 1078.72 771.692 1079.43 776.766C1080.21 781.84 1080.05 787.539 1078.57 786.212C1077.08 784.885 1074.12 775.828 1072.16 768.878C1070.13 761.929 1066.78 753.262 1064.67 747.173C1062.56 741.007 1058.03 741.628 1057.8 743.426C1057.64 745.22 1056.94 747.563 1056.71 746.783C1056.47 745.923 1055.38 742.878 1054.2 739.992C1053.11 737.183 1050.07 734.37 1048.82 736.322C1047.49 738.275 1049.29 744.522 1051.16 750.222C1053.04 755.921 1058.11 766.853 1062.01 773.177C1065.92 779.502 1066.85 782.782 1065.92 783.094C1064.98 783.33 1063.18 781.767 1059.12 775.207C1054.99 768.647 1051.08 757.873 1048.9 751.862C1046.79 745.85 1041.71 741.713 1040.78 744.445C1039.76 747.177 1040.78 757.561 1043.9 764.275C1047.1 770.989 1056.47 781.686 1055.84 782.075C1055.14 782.388 1052.72 780.358 1050.3 778.406C1047.8 776.376 1045.15 774.659 1042.81 774.894C1040.39 775.13 1038.75 776.77 1040.15 779.112C1041.48 781.454 1045.85 784.422 1054.44 788.639C1062.95 792.934 1069.35 798.008 1069.35 798.634C1069.2 799.182 1067.87 799.1 1063.58 799.1C1059.29 799.1 1051.63 799.726 1047.11 803.16C1042.57 806.594 1034.07 814.948 1033.91 824.942C1033.83 834.86 1036.1 845.479 1038.99 851.491C1039.92 853.443 1040.78 856.488 1041.72 859.845C1041.72 859.865 1041.73 859.886 1041.73 859.906C1039.21 857.929 1035.91 856.224 1032.2 855.1C1025.6 853.106 1013.18 854.409 1012.26 853.796C1011.33 853.184 1011.05 850.793 1011.44 848.763C1011.84 846.737 1014.83 844.05 1017.26 842.288C1019.68 840.526 1020.08 837.486 1019.02 837.048C1017.96 836.605 1015.67 838.326 1014.44 839.601C1013.2 840.876 1010.82 842.069 1011.05 840.392C1011.26 838.72 1013.07 834.356 1015.49 831.847C1017.92 829.339 1018.75 826.164 1018.67 823.388C1018.58 820.611 1014.26 820.834 1012.24 821.581C1010.21 822.328 1008.4 826.737 1007.92 826.075C1007.43 825.413 1008.31 821.943 1008.24 818.058C1008.18 814.173 1007.14 812.427 1004.68 812.817C1002.22 813.207 1002.48 817.477 1002.48 821.618C1002.48 825.758 1004.68 841.679 1004.68 844.659C1004.68 847.638 1003.45 851 1002.29 846.343C1001.12 841.683 1002.09 836.508 1002.68 830.358C1003.26 824.208 1000.47 824.427 998.742 824.342C997.016 824.252 994.013 826.152 993.7 828.941C993.391 831.726 992.815 836.37 992.109 835.615C991.691 835.172 989.214 829.278 986.775 823.652C987.095 821.545 987.53 820.12 988.167 818.845C989.352 816.475 990.907 811.583 986.836 810.028C984.262 809.046 982.634 811.051 981.656 813.109C979.245 809.488 975.668 806.809 973.988 807.808C972.132 808.912 973.411 812.095 975.181 813.998C975.9 814.774 977.962 818.151 980.304 822.109C980.263 828.714 980.389 838.371 979.89 838.505C979.163 838.704 976.387 835.728 974.8 831.502C973.212 827.273 972.948 823.043 972.75 819.475C972.551 815.906 969.445 813.856 968.52 814.916C967.594 815.971 967.923 824.695 969.774 828.791C970.744 830.942 972.384 833.784 974.239 836.629C971.787 835.03 968.487 834.839 968.682 836.297C968.962 838.416 969.953 844.2 972.352 847.306C974.751 850.411 975.388 856.269 974.471 856.058C973.553 855.847 971.081 854.012 969.388 849.213C967.696 844.415 964.943 836.297 963.953 833.122C962.966 829.948 959.013 829.948 959.082 833.122C959.151 836.297 964.655 845.191 964.655 845.191C964.655 845.191 963.031 843.778 960.21 842.154C957.389 840.53 950.683 840.884 951.742 843.425C952.802 845.966 957.742 850.622 957.742 850.622C957.742 850.622 957.036 850.269 955.696 849.563C954.356 848.856 949.132 848.576 950.825 850.902C952.518 853.232 970.375 863.677 970.375 863.677C970.375 863.677 969.457 863.677 964.448 864.594C959.439 865.512 949.627 871.158 946.806 878.076C943.985 884.993 941.017 901.579 944.76 905.671C948.503 909.763 957.04 911.249 958.521 911.602C960.003 911.955 959.297 913.579 961.627 915.203C963.957 916.826 969.25 917.87 969.25 917.87C969.25 917.87 1049.36 917.805 1051.51 917.354C1053.66 916.9 1055.47 916.335 1058.07 912.264C1060.67 908.192 1062.93 896.773 1061.12 888.63C1060.36 885.204 1058.01 882.533 1055.47 880.365C1055.54 880.389 1055.62 880.426 1055.69 880.454C1059.6 881.705 1063.27 882.172 1063.89 882.874C1064.91 883.966 1062.95 888.963 1064.59 894.975C1066.31 900.987 1073.11 903.329 1073.41 903.877C1073.8 904.502 1073.8 905.282 1072.55 908.874C1071.3 912.467 1073.41 914.963 1073.41 914.963C1073.41 914.963 1173.82 915.276 1174.45 914.963C1175.07 914.728 1174.91 913.948 1174.45 910.043C1173.98 906.138 1170.93 903.406 1168.59 895.6C1166.56 889.121 1167.34 882.172 1169.37 876.549C1170.93 879.204 1172.8 881.705 1174.37 883.263C1177.65 886.308 1176.94 888.415 1175.93 890.993C1174.91 893.57 1175.77 897.63 1177.72 900.207C1179.68 902.785 1179.44 903.175 1178.58 905.05C1177.72 906.926 1175.54 908.955 1178.58 911.529C1181.63 914.107 1189.44 916.372 1189.44 916.372C1189.44 916.372 1252.06 916.761 1254.32 916.372C1256.51 915.982 1265.26 915.592 1276.97 905.988C1288.6 896.306 1291.1 884.205 1291.8 874.678C1292.58 865.232 1289.54 853.362 1282.12 847.038L1282.14 847.034ZM984.404 863.218C983.016 862.228 979.91 854.032 978.786 850.533C977.734 847.257 977.747 844.18 976.837 840.388C977.734 841.626 978.644 842.812 979.512 843.859C983.146 848.219 985.062 853.573 985.593 856.809C986.121 860.048 985.792 864.209 984.404 863.218ZM996.416 863.819C994.492 863.235 989.304 848.402 988.118 844.549C986.994 840.888 986.016 838.582 986.174 832.136C987.477 834.385 988.557 836.236 989.158 837.214C991.528 841.066 995.677 850.326 996.416 853.663C997.159 856.995 998.344 864.404 996.416 863.819ZM1100.14 783.793C1099.67 786.37 1097.64 789.805 1096.16 788.867C1094.67 787.929 1092.96 779.81 1093.58 774.578C1094.28 769.268 1095.38 757.167 1095.38 757.167C1095.38 757.167 1098.97 766.849 1099.51 772.394C1100.06 777.858 1100.6 781.296 1100.14 783.793H1100.14ZM1133.79 771.923C1132.93 773.015 1130.98 773.717 1130.28 773.717C1130.28 773.717 1130.12 767.705 1130.59 764.661C1131.06 761.616 1131.61 750.217 1132.31 749.982C1133.01 749.982 1133.01 755.292 1133.79 758.961C1134.57 762.631 1134.65 770.831 1133.79 771.923ZM1202.42 835.481C1200.01 834.466 1196.49 832.124 1191.96 831.032C1192.67 827.752 1192.9 824.317 1192.74 820.96C1195.16 823.615 1197.66 826.27 1198.76 827.52C1201.33 830.329 1206.48 837.202 1202.42 835.485V835.481ZM1234.51 824.159C1233.81 830.094 1232.33 835.245 1231.31 836.65C1230.3 838.131 1228.03 838.367 1227.72 838.367C1227.72 838.367 1228.03 835.947 1228.89 831.575C1229.75 827.126 1234.04 813.775 1234.51 813.775C1234.99 813.852 1235.22 818.224 1234.51 824.159ZM1259.89 838.367C1259.19 839.305 1257.7 839.617 1256.3 839.227C1256.3 839.227 1255.91 838.915 1256.3 838.054C1256.69 837.194 1262.15 826.81 1262.78 826.81C1263.01 827.358 1260.59 837.429 1259.89 838.367H1259.89Z" fill="#72C7F2"/>
<path d="M1318.17 942.476C1316.9 941.888 1313.28 939.736 1309.36 931.033C1305.45 922.33 1304.08 916.362 1296.85 915.287C1289.61 914.211 1284.91 916.07 1279.73 909.908C1274.54 903.746 1273.47 901.205 1268.87 901.497C1264.28 901.789 1260.27 906.388 1255.86 910.886C1251.46 915.384 1245.79 910.497 1244.13 904.334C1242.46 898.172 1243.44 892.108 1238.16 892.599C1232.88 893.086 1228.96 900.425 1222.02 904.14C1215.07 907.858 1210.96 896.902 1206.95 892.01C1202.94 887.119 1195.41 886.238 1192.09 891.032C1188.76 895.826 1190.42 900.226 1189.06 905.215C1187.69 910.204 1182.6 910.789 1177.02 910.302C1171.45 909.815 1160.88 908.934 1160.4 916.853C1159.91 924.777 1162.26 926.048 1161.57 927.907C1160.88 929.766 1152.57 923.507 1151.2 915.778C1149.83 908.053 1155.9 905.702 1154.14 896.707C1152.38 887.707 1150.42 883.599 1158.25 878.513C1166.07 873.426 1171.55 871.665 1172.23 865.502C1172.92 859.34 1175.75 850.832 1183.58 848.778C1191.41 846.724 1199.42 852.594 1206.27 852.2C1213.12 851.81 1219.38 842.811 1224.76 837.919C1230.14 833.027 1244.03 832.443 1249.6 837.822C1255.18 843.2 1254.88 844.67 1256.65 845.059C1258.41 845.449 1259.58 836.843 1258.01 833.519C1256.45 830.194 1254.39 826.476 1244.61 824.227C1234.83 821.978 1229.75 813.567 1228.28 803.491C1226.81 793.416 1228.38 787.453 1223 784.222C1217.62 780.994 1208.81 781.384 1203.82 772.876C1198.84 764.367 1202.46 756.248 1198.84 748.519C1195.22 740.794 1191.5 736.686 1187.39 732.676C1183.28 728.665 1183.67 716.832 1184.65 714.482C1185.63 712.135 1186.51 719.47 1189.64 724.163C1192.77 728.86 1196.29 728.957 1200.6 728.957C1204.9 728.957 1217.13 734.336 1220.65 740.498C1224.17 746.66 1226.12 748.422 1233.17 750.277C1240.21 752.136 1240.7 759.082 1240.7 764.753C1240.7 770.424 1242.36 771.698 1248.52 772.38C1254.68 773.066 1264.27 775.413 1264.56 786.17C1264.86 796.927 1263.78 797.613 1267.21 799.862C1270.63 802.111 1277.61 803.646 1279.34 810.928C1281.07 818.211 1281.79 820.443 1284.68 823.906C1287.56 827.369 1290.66 829.098 1293.18 829.386C1295.71 829.674 1300.32 820.374 1300.75 817.707C1301.19 815.04 1299.6 811.797 1293.47 806.605C1287.34 801.413 1290.95 792.689 1295.49 787.859C1300.03 783.028 1307.17 779.277 1308.54 774.881C1309.91 770.485 1307.39 766.519 1302.7 762.553C1298.01 758.587 1286.91 750.151 1285.39 742.438C1283.88 734.726 1288.28 727.585 1291.16 723.619C1294.04 719.653 1294.41 715.257 1292.46 712.371C1290.51 709.488 1284.31 703.935 1283.95 695.642C1283.59 687.349 1287.48 682.088 1294.98 675.528C1302.48 668.968 1306.66 665.144 1306.88 660.386C1307.1 655.629 1306.59 654.691 1307.38 653.319C1308.17 651.951 1311.71 654.906 1312.07 663.703C1312.43 672.499 1310.91 677.257 1309.47 680.647C1308.03 684.036 1307.02 688.002 1314.74 694.059C1322.45 700.115 1325.05 703.144 1325.55 709.342C1326.06 715.541 1324.9 723.546 1332.55 732.343C1340.19 741.139 1347.4 747.05 1346.25 756.569C1345.09 766.084 1340.34 770.27 1344.23 778.92C1348.12 787.571 1351.94 793.124 1350.36 801.486C1348.77 809.848 1346.68 811.724 1342.07 817.058C1337.45 822.392 1336.73 830.973 1339.54 838.183C1342.35 845.392 1343.43 854.55 1340.55 861.471C1337.67 868.393 1333.92 872.432 1329.09 878.127C1324.26 883.822 1321.01 889.014 1320.94 895.213C1320.87 901.412 1323.03 912.445 1325.56 914.247C1328.08 916.05 1330.6 911.004 1331.61 906.1C1332.62 901.196 1330.31 885.552 1333.2 878.777C1336.08 871.997 1346.11 865.007 1349.86 854.985C1353.61 844.962 1353.56 834.809 1352.6 825.716C1351.65 816.619 1370.97 792.19 1385.18 785.346C1399.39 778.502 1405.83 780.073 1412.74 781.717C1419.66 783.361 1425.86 782.509 1429.81 778.49C1433.76 774.471 1437.45 775.064 1439.03 778.689C1440.62 782.314 1440.88 789.495 1430.2 799.444C1419.53 809.394 1408.59 811.371 1405.96 820.659C1403.32 829.95 1404.9 836.34 1408.2 839.701C1411.49 843.062 1411.75 851.23 1407.28 855.318C1402.79 859.401 1378.57 872.846 1372.41 884.31C1366.24 895.773 1366.89 901.939 1359.54 905.398C1352.19 908.861 1340.65 908.662 1336.55 916.054C1332.45 923.446 1331.47 933.603 1327.55 938.945C1323.64 944.291 1318.18 942.476 1318.18 942.476H1318.17Z" fill="#46846A"/>
<path d="M257.173 929.061C257.173 929.061 256.885 925.468 257.604 916.128C258.322 906.787 256.528 895.794 253.004 889.039C249.485 882.285 244.382 874.312 239.28 871.223C234.177 868.134 227.321 864.496 225.871 862.012C224.422 859.532 225.043 856.118 223.286 853.95C221.528 851.778 217.444 851.47 210.466 850.747C203.488 850.025 198.938 844.029 196.717 840.769C194.493 837.514 194.651 835.236 190.153 835.703C185.655 836.17 184.62 838.236 179.4 838.959C174.179 839.681 171.338 838.285 167.977 835.959C164.616 833.633 159.809 832.289 154.589 834.77C149.369 837.25 148.232 840.144 142.338 841.232C136.443 842.316 133.756 836.065 131.329 835.545C128.901 835.029 126.368 835.598 123.267 837.457C120.165 839.316 115.408 838.801 111.945 836.008C108.483 833.215 105.069 829.184 100.161 829.496C95.253 829.809 94.9932 831.408 90.2884 833.889C85.5836 836.369 81.7597 836.162 78.3457 833.527C74.9358 830.893 73.4339 829.444 69.7114 830.426C65.989 831.408 63.9755 833.268 60.4073 831.924C56.8391 830.58 55.7025 825.254 56.0638 821.329C56.4251 817.4 58.6983 813.421 61.7997 812.492C64.9011 811.562 68.725 813.527 71.465 816.06C74.2051 818.593 76.6327 819.368 78.8044 819.263C80.9762 819.161 83.1479 816.214 81.9585 814.505C80.7691 812.8 78.1833 810.267 74.0996 808.51C70.0158 806.752 67.1215 803.289 67.5356 798.532C67.9497 793.774 69.8088 793.62 71.051 791.862C72.2932 790.104 70.9982 787.778 69.139 785.659C67.2798 783.54 62.9363 779.095 62.3153 775.373C61.6942 771.65 64.2799 767.928 68.3109 767.619C72.3419 767.311 72.8615 772.324 77.5622 774.338C82.2671 776.355 87.4346 777.078 87.6944 782.558C87.9542 788.038 86.5051 790.932 87.4874 793.774C88.4698 796.616 92.448 797.135 95.5006 797.237C98.5492 797.338 102.117 800.492 102.479 805.972C102.84 811.453 101.963 812.228 104.598 816.259C107.232 820.29 112.712 818.276 118.4 816.259C124.087 814.241 127.342 814.708 129.721 818.686C132.1 822.669 134.527 824.735 138.457 824.581C142.386 824.426 145.642 821.171 149.312 817.911C152.981 814.651 158.823 813.88 161.823 815.378C164.823 816.876 168.748 821.528 172.625 823.545C176.501 825.563 181.462 822.356 181.567 819.977C181.669 817.598 180.691 815.171 176.814 815.171C172.937 815.171 170.506 811.448 169.836 807.572C169.162 803.695 169.682 799.51 165.237 798.268C160.792 797.026 156.655 797.44 152.831 799.818C149.007 802.197 141.668 802.351 137.426 798.215C133.188 794.078 134.016 787.206 129.774 784.981C125.536 782.757 124.448 783.431 118.972 782.554C113.492 781.677 108.584 776.505 107.135 771.646C105.686 766.787 106.152 759.809 103.981 755.88C101.809 751.95 98.6548 750.452 94.8836 747.765C91.1084 745.078 87.9583 740.84 86.7161 735.774C85.474 730.708 87.8 724.659 92.6104 723.575C97.4207 722.491 102.795 723.267 104.447 727.557C106.1 731.848 106.412 736.809 112.254 739.602C118.095 742.394 123.315 745.029 124.399 752.267C125.483 759.505 125.796 764.518 128.743 767.672C131.69 770.826 138.1 770.619 142.752 770.567C147.404 770.514 149.369 773.822 151.488 776.769C153.607 779.716 158.364 783.54 163.893 780.593C169.426 777.646 168.184 770.668 165.598 767.774C163.012 764.879 161.413 760.487 162.03 756.144C162.651 751.8 164.096 749.632 163.735 745.703C163.373 741.773 161.875 740.121 156.188 738.518C150.501 736.914 144.351 730.091 142.179 723.888C140.008 717.685 140.99 710.24 143.783 707.09C146.576 703.936 152.985 704.042 156.034 708.02C159.083 712.002 160.219 716.808 167.303 723.681C174.386 730.557 177.898 735.932 176.505 742.443C175.109 748.954 172.369 752.884 172.73 758.263C173.092 763.637 177.744 765.655 180.017 772.373C182.29 779.091 181.36 783.228 181.153 788.087C180.946 792.946 182.55 799.408 186.065 803.699C189.581 807.99 195.783 807.316 200.643 809.386C205.502 811.453 208.189 816.157 209.894 820.448C211.599 824.739 215.942 826.805 221.678 827.633C227.414 828.461 231.863 830.012 234.084 837.453C236.308 844.898 239.718 849.189 242.819 850.581C245.921 851.973 247.057 850.272 246.595 847.788C246.128 845.308 244.942 838.123 247.471 830.783C250.004 823.444 251.141 819.721 250.626 815.792C250.11 811.863 249.383 809.122 244.423 807.986C239.462 806.849 240.96 800.439 234.652 798.889C228.344 797.338 222.762 801.889 216.458 795.682C210.15 789.479 212.735 781.726 215.63 778.933C218.524 776.14 228.758 775.417 232.533 780.585C236.308 785.753 235.533 786.427 239.203 786.995C242.872 787.563 246.079 781.62 245.304 777.845C244.528 774.07 242.101 768.074 235.379 766.682C228.66 765.285 219.718 760.373 217.079 756.809C214.444 753.241 213.823 745.439 210.101 743.576C206.378 741.717 199.348 738.769 197.643 734.166C195.938 729.567 197.541 719.329 195.938 715.712C194.334 712.095 191.854 711.421 189.061 707.752C186.268 704.082 187.044 700.205 187.612 696.897C188.18 693.589 189.836 689.298 187.872 687.126C185.907 684.954 181.462 682.941 176.757 681.492C172.052 680.042 171.845 674.408 172.105 671.412C172.365 668.412 175.105 664.434 173.449 661.073C171.797 657.712 163.317 657.351 159.44 655.077C155.563 652.804 152.977 647.685 153.03 641.535C153.083 635.385 160.783 633.161 166.625 635.227C172.466 637.293 177.739 635.694 181.616 637.192C185.493 638.69 188.127 640.24 188.18 648.355C188.233 656.47 186.938 661.848 190.352 667.584C193.762 673.32 203.017 680.818 205.806 686.245C208.599 691.673 207.718 697.615 207.097 704.131C206.476 710.642 209.524 716.589 214.436 718.241C219.348 719.893 222.344 720.62 222.551 726.51C222.758 732.404 222.652 735.193 224.41 737.519C226.168 739.845 228.648 741.035 229.683 740.828C230.718 740.621 232.371 734.885 232.269 727.854C232.168 720.823 231.08 713.329 228.031 707.074C224.983 700.818 222.758 694.977 223.74 688.36C224.723 681.743 229.943 674.867 231.132 668.563C232.322 662.254 230.824 659.88 228.445 656.571C226.066 653.263 225.242 647.214 227.101 641.527C228.961 635.84 231.185 633.258 229.996 629.381C228.806 625.505 226.428 623.694 221.776 619.769C217.124 615.839 215.005 612.738 216.04 608.553C217.075 604.368 225.965 602.504 232.168 605.399C238.37 608.293 242.556 611.187 241.419 620.698C240.282 630.21 238.37 634.76 239.401 641.994C240.437 649.232 247.001 652.589 247.93 661.637C248.86 670.682 245.551 676.523 242.71 681.642C239.868 686.761 238.472 692.549 240.591 700.356C242.71 708.162 245.551 711.316 243.639 718.655C241.727 725.995 241.622 733.541 245.499 739.589C249.375 745.638 255.269 753.651 256.715 762.488C258.164 771.326 256.922 778.048 258.679 779.858C260.437 781.669 264.16 773.81 263.072 766.523C261.988 759.237 259.97 752.673 262.917 747.655C265.864 742.642 268.345 742.898 269.38 736.025C270.415 729.149 269.226 724.083 271.19 721.554C273.155 719.021 280.442 717.47 282.926 726.567C285.406 735.664 283.803 742.642 280.653 749.726C277.499 756.809 276.415 760.272 276.723 768.334C277.032 776.396 277.86 780.325 273.622 787.255C269.384 794.18 264.732 800.021 264.111 807.933C263.49 815.841 264.151 828.474 261.521 835.829C258.886 843.189 255.984 846.631 256.053 858.103C256.122 869.579 260.709 874.235 261.927 889.356C263.141 904.477 263.344 914.601 262.873 920.272C262.402 925.943 262.199 930.534 259.767 931.074C257.336 931.614 257.157 929.049 257.157 929.049L257.173 929.061Z" fill="#2881B5"/>
<path d="M265.787 928.793C265.787 928.793 267.017 880.287 268.195 868.868C269.372 857.449 271.73 851.742 276.622 844.126C281.517 836.515 283.689 831.348 283.6 824.37C283.511 817.391 285.946 812.334 288.183 807.856C290.424 803.379 290.347 798.528 289.454 794.046C288.556 789.569 286.916 785.164 291.244 779.12C295.571 773.075 297.885 768.521 297.365 765.683C296.842 762.846 294.231 759.009 290.753 754.605C287.274 750.201 284.785 741.855 286.174 734.495C287.566 727.135 288.203 722.094 285.885 718.44C283.567 714.787 278.12 711.137 278.294 704.009C278.469 696.881 282.496 692.728 282.565 686.948C282.634 681.167 279.849 679.149 279.5 673.714C279.151 668.278 281.103 662.782 285.768 656.514C290.432 650.247 291.199 647.811 289.6 642.518C287.996 637.224 292.595 631.026 299.139 632.629C305.687 634.232 304.782 641.405 302.622 647.113C300.463 652.82 298.79 657.7 300.743 665.567C302.691 673.438 303.945 679.214 299.699 686.529C295.453 693.84 292.039 699.763 294.962 706.794C297.889 713.829 302.135 715.152 300.95 724.554C299.764 733.955 299.488 739.736 302.691 742.171C305.894 744.607 309.028 740.15 308.192 733.188C307.355 726.222 305.894 723.23 308.61 716.613C311.325 709.997 314.597 704.565 314.39 695.164C314.183 685.762 314.041 679.844 320.033 675.106C326.02 670.369 328.878 672.46 333.542 665.498C338.207 658.532 337.862 653.45 345.034 651.988C352.207 650.527 358.406 656.794 354.156 665.429C349.91 674.063 343.569 674.063 342.944 684.439C342.319 694.815 340.853 700.039 334.586 704.285C328.318 708.531 326.576 714.73 327.344 724.411C328.111 734.093 326.857 742.447 323.723 747.047C320.589 751.642 315.438 756.655 316.132 768.078C316.83 779.497 318.36 784.027 315.295 789.248C312.231 794.472 309.166 799.835 310.664 808.538C312.162 817.241 313.554 823.371 307.704 828.177C301.855 832.983 295.936 835.768 290.294 844.472C284.651 853.175 279.22 860.072 276.922 873.93C274.625 887.789 273.439 909.588 272.676 919.684C271.909 929.783 270.728 932.568 268.637 932.917C266.546 933.266 265.787 930.916 265.787 929.852V928.789V928.793Z" fill="#2881B5"/>
<path d="M275.952 926.162C275.952 926.162 276.809 890.866 280.706 876.005C284.603 861.143 289.486 856.938 296.326 852.635C303.166 848.332 312.011 848.978 315.961 842.552C319.911 836.126 321.149 831.583 327.815 830.109C334.476 828.636 339.079 832.586 344.324 826.748C349.573 820.911 347.332 816.961 347.214 811.124C347.097 805.286 348.923 801.393 350.576 798.446C352.228 795.499 353.23 791.075 352.699 785.355C352.167 779.635 351.4 774.212 353.937 768.017C356.474 761.827 363.785 756.46 363.196 751.151C362.608 745.841 359.421 742.305 361.016 738.12C362.608 733.935 367.621 730.748 373.044 732.754C378.468 734.759 378.411 737.471 378.585 741.599C378.764 745.727 382.535 747.022 382.478 752.153C382.417 757.284 381.593 759.935 375.224 767.132C368.855 774.326 368.563 777.687 370.154 783.114C371.745 788.537 372.042 793.494 370.215 798.978C368.388 804.462 367.325 810.121 367.974 812.955C368.624 815.784 373.872 810.361 375.346 804.406C376.819 798.45 376.88 788.529 381.301 782.672C385.722 776.81 390.796 773.981 395.216 767.258C399.637 760.536 400.997 755.819 406.952 752.929C412.907 750.038 419.337 751.808 420.161 757.528C420.985 763.248 418.392 766.609 412.968 771.443C407.545 776.278 401.411 782.412 400.173 791.61C398.935 800.809 398.346 805.351 393.629 810.361C388.912 815.37 385.787 817.907 383.664 823.391C381.54 828.875 378.297 831.587 370.572 832.768C362.847 833.95 356.92 837.368 355.548 840.14C354.176 842.913 355.65 845.389 359.129 844.683C362.608 843.976 367.325 840.554 374.282 842.028C381.24 843.501 388.612 845.568 396.041 844.208C403.469 842.852 408.543 836.012 410.545 831.469C412.546 826.927 416.029 820.915 422.28 823.627C428.532 826.338 429.064 831.94 427.058 835.184C425.053 838.427 420.515 840.018 420.275 842.848C420.04 845.677 426.997 845.206 433.188 840.842C439.378 836.479 438.968 833.532 446.162 831.644C453.355 829.756 459.96 832.943 460.43 839.901C460.901 846.859 459.428 852.164 450.168 854.762C440.909 857.356 426.876 858.42 416.971 862.84C407.066 867.261 398.574 869.266 387.488 866.851C376.401 864.431 359.831 862.84 347.332 864.078C334.829 865.317 326.106 864.963 317.849 863.372C309.592 861.781 296.03 862.073 291.43 871.276C286.831 880.474 284.53 891.029 283.291 899.935C282.053 908.837 281.404 928.415 280.344 930.538C279.285 932.662 276.687 930.656 276.216 929.239C275.745 927.823 275.948 926.171 275.948 926.171L275.952 926.162Z" fill="#2881B5"/>
<path d="M207.953 791.795C207.778 792.148 205.752 806.133 199.156 813.083C192.559 820.032 180.422 829.795 168.638 833.578C157.007 837.309 150.573 837.991 137.141 845.696C138.261 844.104 139.264 842.111 139.67 839.659C140.36 835.466 140.474 829.88 140.055 824.25C148.434 818.084 159.159 810.732 165.102 806.007C174.093 798.863 178.932 788.564 180.625 774.579C182.314 760.595 179.241 744.305 179.241 744.305C179.241 744.305 177.089 754.908 176.322 761.979C175.555 769.046 173.403 778.805 167.716 787.411C162.029 796.017 150.756 803.669 139 812.847C138.813 812.993 138.639 813.152 138.456 813.298C138.456 813.294 138.456 813.286 138.456 813.281C137.855 810.886 136.443 808.439 134.628 805.975C134.864 800.425 134.73 795.083 134.287 791.799C134.194 791.101 134.007 790.541 133.824 789.973C135.781 788.024 137.827 786.506 139.508 785.406C143.084 783.068 147.651 782.142 147.707 783.254C147.768 784.367 149.173 786.421 150.699 785.657C152.221 784.894 153.045 780.263 147.651 780.38C142.58 780.49 137.372 783.266 132.74 787.691C130.354 784.432 126.136 784.927 124.979 786.023C123.469 787.456 124.342 789.124 127.029 789.205C128.417 789.246 129.302 789.477 129.992 790.931C128.693 792.692 127.553 794.69 126.623 796.963C124.837 795.164 123.039 793.391 121.309 791.637C122.012 787.488 124.382 781.858 130.857 776.966C138.748 771.007 145.495 770.743 155.315 765.223C165.13 759.702 174.162 746.464 181.697 731.915C189.235 717.367 188.796 699.485 187.745 700.183C186.694 700.885 181.169 718.414 174.069 726.216C166.969 734.018 156.8 739.892 142.69 748.392C128.58 756.893 124.618 762.365 118.541 770.743C116.978 772.899 115.736 775.594 114.814 778.537C114.701 777.977 114.595 777.405 114.481 776.828C115.529 775.225 117.457 771.762 120.453 764.492C122.154 760.372 123.014 756.174 123.457 752.127C126.156 750.836 128.933 750.385 131.06 750.475C134.709 750.629 135.874 751.794 135.639 749.387C135.416 747.053 131.506 745.498 123.708 749.074C123.899 745.88 123.883 742.831 123.794 740.038C128.693 736.21 134.6 732.995 139.796 729.569C149.766 723.001 156.216 715.848 158.558 702.128C160.904 688.407 156.212 674.922 150.115 661.786C144.017 648.649 142.26 636.691 142.26 636.691C142.26 636.691 140.62 649.709 138.505 659.91C136.394 670.111 140.267 684.774 138.976 699.197C137.685 713.62 134.275 717.569 124.24 727.263C123.997 727.499 123.786 727.722 123.546 727.957C123.493 725.627 123.343 723.212 122.941 720.452C124.61 717.63 128.592 709.037 129.087 704.851C129.12 704.584 129.087 704.308 129.107 704.036C130.366 703.155 131.726 702.432 132.785 702.059C134.807 701.344 135.996 702.773 137.721 701.941C139.447 701.109 139.016 698.718 136.593 698.194C134.64 697.772 132.107 698.49 129.038 700.678C128.689 697.593 127.634 694.598 125.831 692.43C123.217 689.28 118.935 690.291 118.399 691.659C117.863 693.027 119.47 693.798 121.549 693.619C123.526 693.449 126.493 695.909 126.785 702.428C126.765 702.448 126.745 702.456 126.725 702.477C124.297 704.628 122.235 708.428 120.92 711.249C120.29 708.992 119.564 706.581 118.598 703.796C113.491 689.056 113.373 675.591 116.743 659.926C120.108 644.257 125.101 633.232 124.171 612.342C123.242 591.453 106.878 572.999 106.411 574.042C105.949 575.085 106.643 578.106 107.455 587.503C108.267 596.905 106.525 607.812 102.811 624.062C99.0964 640.311 91.0873 650.988 90.5068 665.264C89.9263 679.541 96.194 693.351 101.763 700.894C105.888 706.479 114.339 720.098 118.301 733.405C118.224 733.49 118.139 733.58 118.062 733.665C117.453 731.193 116.365 727.864 114.522 725.826C111.331 722.287 107.735 721.763 105.356 722.749C104.974 722.908 104.707 723.082 104.406 723.257C103.903 712.889 100.732 705.708 92.4025 690.778C83.2608 674.39 73.0962 671.626 73.153 672.182C73.2098 672.738 73.8714 673.846 75.7022 676.509C77.533 679.172 80.6181 686.463 83.1349 693.826C85.6517 701.19 84.8034 716.169 84.2919 735.983C83.7845 755.797 86.7072 765.194 96.2305 779.292C100.911 786.218 107.333 791.657 113.312 795.915C113.73 798.94 114.522 801.716 115.76 803.933C118.001 807.956 121.671 812.644 124.914 816.484C125.624 819.963 126.554 822.391 127.252 823.816C126.826 824.307 126.457 824.818 126.055 825.318C124.301 821.944 120.424 814.779 116.609 809.746C111.469 802.963 109.529 800.344 106.756 799.516C103.984 798.684 101.26 799.329 100.428 800.762C99.5957 802.195 98.995 803.624 100.245 804.777C101.491 805.93 102.506 803.299 104.491 802.699C106.476 802.098 108.368 803.299 110.722 806.486C113.077 809.673 116.353 813.042 120.372 819.135C122.767 822.768 124.102 825.297 124.857 826.856C124.719 827.043 124.561 827.225 124.427 827.412C122.478 824.441 119.162 820.162 115.31 818.449C109.139 815.709 106.127 816.395 105.372 818.79C104.617 821.189 107.633 820.572 110.511 820.231C113.389 819.89 120.587 825.52 122.093 829.385C122.263 829.823 122.353 830.055 122.486 830.396C119.568 835.222 117.822 840.297 118.07 845.545C118.354 851.59 119.414 856.887 120.412 860.699C112.456 854.809 105.096 847.072 102.291 836.456C98.6417 822.65 102.291 814.365 96.2752 801.055C90.2592 787.74 85.534 783.404 81.227 779.41C76.92 775.416 73.7984 773.293 73.1732 773.731C72.5481 774.169 73.6116 778.351 76.4207 783.404C79.2298 788.458 81.0403 794.702 81.1012 803.437C81.1621 812.173 80.0742 832.454 83.0253 841.474C85.9724 850.494 94.1278 857.87 102.888 863.508C107.467 866.455 111.652 868.615 115.232 870.425C113.718 873.466 112.708 876.092 112.403 877.728C111.307 883.578 111.948 890.519 112.586 900.116C113.223 909.712 112.22 911.539 111.579 921.772C110.938 932.006 114.412 950.557 114.502 950.829C114.502 950.829 122.109 944.099 122.255 943.214C122.401 942.329 122.547 941.298 121.37 933.78C120.713 929.583 120.534 921.305 120.948 913.085C123.895 910.394 129.992 904.398 133.78 897.68C138.521 889.261 137.985 874.424 129.692 867.239C129.789 866.78 129.846 866.5 129.846 866.5C129.846 866.5 130.467 865.522 136.447 862.534C142.426 859.542 149.376 856.465 167.054 851.716C184.733 846.966 199.245 837.467 204.876 823.219C210.502 808.97 208.131 791.466 207.953 791.82V791.795ZM138.01 832.109C138.01 839.846 136.069 844.721 134.498 847.437C133.402 848.176 132.306 848.898 131.275 849.743V831.139C132.915 829.685 135.046 827.98 137.612 826.048C137.843 827.976 138.006 829.974 138.006 832.105L138.01 832.109ZM126.396 813.395C126.177 810.821 126.254 807.793 126.7 804.716C127.126 805.013 127.634 805.337 127.975 805.601C129.241 806.584 130.455 807.866 131.58 809.38C131.21 813.606 130.585 817.613 130.102 820.268C129.793 819.744 129.554 819.322 129.172 818.68C128.121 816.919 127.22 815.149 126.392 813.395H126.396ZM135.18 815.981C134.592 816.488 134.035 817.008 133.463 817.524C133.69 816.237 133.893 814.897 134.056 813.497C134.449 814.292 134.835 815.104 135.18 815.981ZM128.17 798.538C128.852 796.675 129.773 795.055 130.792 793.581C131.084 794.957 131.356 796.748 131.653 799.135C131.782 800.202 131.843 801.359 131.868 802.553C130.699 801.217 129.46 799.885 128.166 798.554C128.166 798.55 128.166 798.542 128.17 798.538ZM114.319 776.053C113.617 772.436 112.971 768.588 112.87 764.451C114.047 762.377 115.87 759.345 118.037 756.438C118.561 755.736 119.182 755.277 119.767 754.717C118.48 764.325 115.703 772.46 114.319 776.053ZM126.233 706.682C126.311 706.569 126.444 706.463 126.534 706.349C125.823 710.255 123.964 714.561 122.45 717.618C122.243 716.547 121.979 715.39 121.691 714.192C123.006 711.927 125.283 708.046 126.233 706.682ZM120.441 746.919C120.404 748.356 120.27 749.756 120.148 751.161C116.592 753.954 114.262 758.025 112.927 760.997C113.069 758.362 113.454 755.63 114.222 752.776C115.22 749.058 117.404 745.973 120.173 743.217C120.282 744.459 120.469 745.729 120.441 746.919ZM104.491 727.625C105.429 727.629 106.756 727.357 108.652 726.853C112.598 725.81 113.527 728.014 115.208 732.366C115.841 734.01 116.19 734.903 116.434 735.54C110.998 742.068 107.755 748.396 107.966 755.456C108.177 762.633 111.64 775.842 113.576 782.731C109.115 776.568 107.158 771.125 105.571 764.63C103.667 756.828 104.43 739.762 104.487 727.621L104.491 727.625ZM124.715 803.377C124.407 805.017 124.297 806.669 124.252 808.361C123.367 806.007 122.685 803.783 122.178 801.769C123.104 802.35 123.919 802.869 124.715 803.377ZM127.565 819.553C128.231 820.308 128.815 820.954 129.347 821.538C129.022 821.879 128.705 822.22 128.393 822.565C128.153 821.733 127.869 820.698 127.565 819.553ZM125.645 836.753V855.203C124.11 856.895 122.702 858.629 121.403 860.395C121.143 858.008 120.895 855.028 120.761 851.492C120.493 844.392 122.304 840.585 125.645 836.753ZM130.216 891.7C129.355 899.328 124.078 906.708 121.086 910.365C121.459 904.808 122.125 899.49 123.136 895.731C124.407 891.006 125.994 884.118 127.305 878.203C129.558 880.838 131.003 884.69 130.216 891.7Z" fill="#274C3D"/>
<path d="M258.55 85.2126C258.55 85.2126 279.763 86.4498 298.077 89.6658C316.39 92.8859 325.128 95.7743 328.48 97.6481C331.831 99.5259 331.896 99.3393 332.493 99.0109C333.086 98.6825 337.182 93.4732 352.423 90.1839C367.664 86.8946 373.802 87.4836 381.779 92.2754C389.76 97.0712 399.712 111.461 401.228 114.827C402.743 118.193 402.477 121.952 400.365 123.205C398.253 124.458 391.986 124.055 387.503 119.964C383.021 115.869 378.733 111.182 370.82 107.547C362.907 103.912 354.263 105.424 351.356 106.94C348.452 108.456 347.132 110.238 347.594 110.831C348.056 111.424 355.903 117.632 367.708 121.663C379.514 125.695 388.415 133.95 393.821 141.147C399.227 148.344 400.145 153.025 399.153 154.94C398.161 156.852 390.376 155.989 384.973 149.588C379.567 143.186 377.522 141.468 375.347 139.883C373.173 138.298 371.917 140.542 372.771 143.311C373.626 146.085 376.458 153.475 380.745 158.556C385.028 163.638 387.734 165.227 388.852 169.315C389.969 173.408 388.981 176.44 386.67 177.363C384.36 178.287 376.381 176.037 371.83 169.965C367.284 163.893 362.537 155.511 359.176 149.504C355.815 143.498 347.379 132.475 344.146 129.306C340.917 126.138 337.157 122.705 335.376 121.648C333.594 120.591 331.946 120.456 331.747 121.183C331.547 121.909 334.316 127.692 335.567 131.399C336.819 135.106 336.156 137.281 334.97 138.072C333.78 138.863 329.295 138.133 325.341 131.996C321.388 125.86 313.48 115.296 308.137 110.871C302.798 106.447 294.88 103.21 282.938 102.868C270.995 102.531 269.94 102.924 270.268 103.85C270.596 104.775 279.359 123.321 292.089 128.936C304.819 134.551 316.429 135.087 327.707 139.516C338.984 143.945 347.229 150.417 350.854 155.368C354.48 160.319 356.555 164.035 356.372 169.88C356.194 175.726 355.141 177.199 351.634 177.541C348.126 177.884 343.979 175.774 341.121 170.397C338.263 165.021 335.227 158.763 331.722 155.663C328.217 152.563 320.916 150.102 315.013 150.508C309.111 150.913 309.866 155.53 310.332 157.868C310.797 160.207 319.14 180.489 323.808 186.277C328.481 192.065 332.743 198.088 340.628 201.719C348.512 205.35 351.086 205.465 353.422 208.097C355.758 210.729 354.823 213.944 353.182 214.584C351.546 215.224 348.567 214.524 345.235 212.65C341.904 210.776 339.862 210.016 337.93 209.722C335.998 209.428 335.18 212.351 335.65 214.105C336.116 215.859 338.506 222.112 339.087 227.081C339.668 232.05 339.544 246.314 338.267 249.082C336.987 251.85 332.732 252.695 329.825 247.655C326.918 242.615 326.926 231.83 326.224 225.018C325.519 218.205 322.197 203.09 318.582 195.212C314.97 187.334 309.934 180.02 306.531 176.047C303.128 172.071 302.35 170.227 300.152 166.678C297.955 163.128 297.671 162.491 295.545 161.353C293.418 160.214 290.431 165.818 290.425 173.198C290.42 180.578 290.907 192.428 291.683 203.141C292.454 213.854 291.924 222.647 294.511 227.532C297.097 232.417 308.181 246.182 315.65 252.33C323.115 258.473 329.326 263.803 330.729 266.84C332.131 269.874 328.799 273.72 321.332 270.828C313.865 267.937 310.242 264.975 304.624 259.572C299.006 254.169 296.272 251.057 295.456 251.134C294.644 251.206 296.699 271.772 296.246 280.5C295.798 289.227 293.658 295.591 290.872 296.693C288.087 297.795 286.055 295.472 284.784 290.539C283.509 285.605 283.983 274.402 283.578 273.476C283.173 272.546 280.728 279.454 277.012 281.887C273.296 284.319 268.016 282.461 269.531 276.308C271.045 270.155 276.45 256.58 278.776 251.418C281.101 246.256 281.216 244.109 281.51 242.481C281.799 240.858 280.047 227.107 279.024 215.899C278.001 204.694 276.468 185.683 274.198 170.682C271.931 155.681 268.142 141.438 265.68 133.175C263.218 124.913 254.872 112.85 254.398 112.472C253.923 112.091 248.69 129.652 248.58 147.31C248.474 164.968 247.906 198.19 249.485 204.284C251.063 210.378 253.541 213.4 258.817 221.113C264.093 228.825 265.849 230.503 265.846 234.692C265.843 238.882 260.062 240.302 257.295 237.702C254.533 235.102 253.024 233.591 251.853 229.401C250.683 225.211 248.964 222.445 248.355 222.274C247.751 222.107 244.806 235.262 245.973 244.481C247.139 253.701 247.3 260.907 246.461 265.432C245.622 269.958 241.678 272.634 239.333 270.875C236.988 269.111 235.573 255.536 234.906 250.843C234.24 246.149 234.492 245.228 233.737 244.891C232.983 244.553 228.785 250.761 223.478 252.527C218.171 254.293 214.637 252.038 216.836 248.236C219.035 244.434 225.847 238.167 227.992 235.489C230.137 232.811 230.89 230.721 231.481 227.292C232.072 223.862 231.584 213.299 233.558 206.29C235.532 199.285 236.952 195.271 237.114 189.917C237.276 184.563 231.211 185.504 226.17 189.674C221.129 193.843 216.165 198.958 211.123 199.819C206.084 200.68 201.912 200.048 202.544 195.798C203.176 191.549 205.541 188.084 212.868 183.287C220.194 178.49 231.85 171.804 234.217 165.27C236.584 158.736 234.621 151.176 234.389 145.587C234.158 139.997 235.5 137.006 236.368 131.888C237.236 126.769 238.895 124.095 237.556 122.913C236.217 121.731 229.912 133.775 226.913 143.771C223.914 153.767 221.707 158.807 214.772 166.357C207.837 173.91 198.226 182.485 190.267 192.871C182.307 203.257 175.058 212.621 172.371 223.169C169.689 233.718 166.851 250.4 166.851 251.191C166.85 251.983 172.522 256.079 174.972 259.576C177.421 263.073 176.745 265.345 175.579 266.631C174.413 267.917 170.672 265.832 168.587 263.497C166.503 261.165 165.769 259.934 165.277 260.303C164.786 260.673 166.495 270.981 163.732 275.821C160.968 280.666 156.553 278.516 155.39 274.711C154.228 270.907 154.966 266.86 154.353 266.121C153.741 265.386 151.406 272.192 148.706 272.251C146.007 272.309 142.879 269.73 144.969 264.949C147.059 260.165 155.221 255.51 155.775 252.872C156.329 250.234 159.101 234.839 161.193 226.437C163.286 218.036 164.392 216.072 164.577 212.942C164.761 209.813 159.489 209.318 154.639 213.244C149.789 217.166 146.352 220.906 143.402 225.503C140.456 230.1 137.694 232.306 135.729 231.753C133.765 231.2 133.218 223.653 136.601 216.726C139.979 209.795 146.487 202.87 156.979 199.196C167.471 195.522 177.167 192.033 183.859 183.696C190.551 175.359 197.863 163.401 202.899 154.324C207.935 145.247 217.394 127.283 219.301 122.929C221.204 118.574 222.308 117.714 220.409 116.796C218.51 115.877 215.131 118.204 210.158 124.148C205.185 130.095 202.24 133.775 195.242 138.86C188.244 143.946 185.848 149.834 184.986 152.842C184.123 155.849 186.636 160.633 186.816 164.928C186.995 169.223 187.732 171.675 184.54 173.942C181.348 176.209 177.545 175.041 177.365 171.298C177.185 167.555 178.658 163.14 177.863 161.913C177.068 160.687 174.856 166.636 171.906 170.373C168.96 174.113 167.363 177.116 163.863 177.727C160.368 178.337 156.81 175.205 159.696 169.686C162.582 164.167 171.851 156.384 171.852 154.85C171.853 153.315 168.11 154.539 161.545 154.842C154.981 155.146 153.265 154.162 153.02 149.928C152.776 145.694 161.735 144.783 168.299 144.91C174.863 145.036 175.845 145.098 177.381 143.63C178.916 142.157 181.983 139.586 182.232 137.378C182.478 135.169 173.524 133.629 164.872 134.848C156.221 136.068 152.173 136.865 139.529 146.915C126.885 156.965 124.427 159.849 122.464 163.282C120.501 166.715 115.714 167.755 114.55 165.976C113.386 164.197 113.76 158.185 124.257 148.191C134.753 138.2 144.454 129.248 157.401 126.131C170.349 123.011 184.087 126.824 189.853 124.742C195.623 122.66 205.689 112.36 207.899 110.093C210.109 107.825 210.6 107.886 210.418 106.782C210.236 105.678 198.583 104.87 192.139 106.684C185.696 108.498 183.614 112.754 181.12 115.505C178.625 118.255 176.491 121.838 173.793 120.696C171.094 119.549 171.664 116.695 173.537 114.411C175.411 112.127 176.759 111.296 176.293 110.362C175.827 109.428 172.554 110.567 172.763 107.141C172.973 103.711 176.766 100.754 185.962 98.735C195.158 96.716 205.393 95.1117 215.416 95.3787C225.442 95.6458 231.155 94.2453 238.432 90.3048C245.709 86.3644 246.696 86.2595 250.54 85.5357C254.385 84.8118 258.533 85.2126 258.533 85.2126L258.55 85.2126Z" fill="#5D917E"/>
<path d="M67.2362 102.707C67.2362 102.707 71.2646 97.8754 79.3363 93.362C87.4113 88.8459 88.6687 89.2174 96.4192 83.1132C104.17 77.009 105.856 75.2699 106.896 75.6961C107.935 76.1223 109.198 82.7648 111.685 84.9966C114.169 87.2311 138.208 91.2027 141.119 93.466C144.029 95.7293 140.329 99.9006 136.523 103.492C132.717 107.082 129.169 107.914 127.305 107.004C125.441 106.094 122.993 104.36 120.353 104.399C117.714 104.432 115.992 105.671 115.687 105.937C115.382 106.203 125.119 117.102 128.696 118.692C132.273 120.282 136.199 122.076 141.07 119.167C145.94 116.257 147.433 115.462 150.93 115.607C154.427 115.752 157.61 117.856 158.181 118.703C158.751 119.55 155.133 123.893 154.631 126.017C154.128 128.141 156.774 130.205 158.372 130.494C159.97 130.783 161.641 129.996 162.573 128.17C163.505 126.344 161.301 120.353 161.125 118.992C160.948 117.631 167.717 113.233 167.658 111.43C167.598 109.627 163.129 105.282 158.275 103.965C153.421 102.648 147.947 95.8063 145.084 92.9186C142.222 90.0309 140.434 88.1329 140.202 87.2331C139.967 86.3361 153.621 79.7277 155.683 79.8819C157.746 80.036 156.427 82.1499 158.553 85.5282C160.679 88.9064 166.598 92.5495 167.65 92.874C168.703 93.1984 168.216 86.1827 166.849 84.618C165.482 83.0532 164.02 80.7517 163.925 80.009C163.83 79.2663 178.167 77.0705 181.121 77.9335C184.077 78.7937 181.815 104.744 182.415 105.593C183.022 106.443 190.745 98.7282 192.233 94.121C193.72 89.5138 194.418 82.4302 193.551 80.021C192.685 77.6118 191.114 76.9145 191.876 75.4238C192.637 73.9331 209.259 73.874 211.523 75.2035C213.788 76.5331 208.651 91.6279 209.977 92.674C211.304 93.72 219.547 86.1342 221.226 82.8465C222.905 79.5589 223.63 78.6934 225.777 78.4127C227.923 78.1319 236.061 80.0174 243.534 83.6204C251.008 87.2234 252.436 91.3302 252.907 92.394C253.381 93.461 242.845 100.162 231.2 105.213C219.558 110.261 201.293 114.38 195.922 116.568C190.547 118.758 182.467 126.841 181.062 128.753C179.656 130.665 179.784 134.195 181.565 134.804C183.35 135.41 195.133 130.006 203.846 122.513C212.554 115.018 223.601 108.895 233.394 107.853C243.187 106.812 259.248 106.479 264.763 104.884C270.278 103.294 271.449 101.864 273.289 102.275C275.129 102.686 281.358 112.436 282.137 115.787C282.913 119.141 280.94 121.808 279.847 122.09C278.751 122.376 273.371 120.217 269.341 119.3C265.311 118.382 251.007 117.705 242.982 119.605C234.96 121.502 231.574 123.788 231.215 124.91C230.852 126.035 242.163 130.673 249.243 130C256.322 129.328 270.684 126.992 275.52 126.063C280.357 125.133 281.703 124.364 283.538 124.775C285.378 125.185 289.687 131.502 290.911 135.679C292.135 139.851 288.627 141.841 287.342 141.755C286.056 141.668 283.398 140.626 276.104 139.202C268.81 137.777 263.856 137.802 263.892 139.383C263.927 140.964 267.88 144.103 271.83 145.084C275.783 146.069 282.188 147.394 285.809 145.876C289.432 144.361 291.25 143.542 292.4 144.736C293.551 145.93 296.568 153.409 296.506 157.868C296.444 162.327 294.639 164.668 293.556 165.066C292.473 165.463 288.401 163.191 282.791 161.935C277.185 160.676 263.744 156.248 256.309 151.639C248.873 147.031 241.124 142.691 234.624 140.669C228.128 138.643 218.031 137.791 215.551 138.855C213.072 139.919 214.708 144.432 217.252 147.597C219.797 150.762 224.686 155.73 224.592 158.011C224.499 160.292 217.593 161.706 214.814 159.406C212.036 157.107 207.359 149.863 204.872 149.288C202.388 148.71 197.964 154.221 198.37 156.071C198.776 157.921 207.824 168.154 212.476 169.699C217.128 171.244 224.1 170.54 228.497 167.14C232.894 163.74 233.682 161.62 236.084 161.722C238.482 161.826 250.376 175.187 251.003 176.404C251.624 177.619 249.723 179.721 242.319 180.688C234.915 181.656 232.922 182.52 232.774 183.859C232.627 185.198 237.454 189.338 241.012 189.638C244.574 189.936 247.419 189.542 254.222 183.486C261.031 177.43 267.934 173.378 270.652 173.971C273.37 174.565 284.275 189.565 284.958 191.608C285.641 193.652 279.718 195.305 274.945 194.748C270.169 194.193 266.435 194.702 263.475 196.853C260.512 199.001 267.752 205.651 269.888 207.087C272.025 208.522 278.034 209.492 281.952 208.618C285.874 207.748 288.685 208.436 290.041 209.891C291.398 211.347 291.427 221.702 290.566 225.688C289.706 229.673 287.175 228.821 285.223 227.461C283.272 226.101 279.862 223.466 277.552 222.674C275.243 221.881 275.855 226.283 276.964 228.039C278.074 229.794 276.009 230.744 272.707 231.249C269.405 231.754 263.371 230.982 262.104 229.532C260.838 228.083 259.524 219.958 257.701 216.021C255.879 212.084 251.52 208.655 249.111 208.04C246.699 207.421 242.148 207.57 240.846 208.708C239.544 209.845 239.991 213.282 241.262 216.005C242.53 218.725 248.545 225.214 250.98 226.151C253.415 227.088 258.38 228.195 259.019 229.508C259.658 230.822 257.541 238.631 256.587 239.973C255.634 241.314 252.93 237.638 249.399 236.126C245.868 234.615 243.53 233.621 239.993 234.342C236.456 235.063 232.53 232.635 231.296 229.546C230.062 226.458 229.671 214.4 226.626 208.727C223.58 203.047 218.053 195.821 210.381 187.428C202.709 179.035 194.348 171.011 191.981 169.59C189.612 168.166 188.798 166.853 185.974 167.743C183.147 168.636 182.388 170.084 183.118 172.602C183.85 175.117 182.794 178.296 181.98 178.781C181.166 179.266 176.129 178.148 174.205 177.234C172.284 176.322 175.44 172.072 175.407 167.776C175.374 163.479 172.727 156.327 169.264 152.364C165.802 148.401 158.362 141.84 150.884 140.316C143.407 138.791 136.733 139.805 133.766 140.402C130.798 140.998 129.426 142.949 129.868 143.642C130.311 144.336 138.652 153.411 140.746 154.572C142.841 155.733 146.407 156.107 150.487 152.791C154.567 149.475 155.962 147.176 157.57 147.683C159.177 148.189 169.276 160.467 170.402 162.203C171.529 163.938 166.968 166.498 164.095 168.166C161.218 169.837 159.848 170.191 159.748 171.189C159.644 172.184 168.456 180.645 173.318 183.725C178.18 186.805 183.82 187.916 189.51 192.765C195.197 197.618 205.567 206.691 213.775 216.494C221.983 226.296 231.15 233.915 238.562 238.911C245.975 243.907 252.915 252.007 257.695 254.553C262.476 257.099 262.922 259.028 262.659 260.416C262.4 261.802 248.671 274.006 246.233 273.507C243.798 273.004 243.398 270.624 239.35 264.904C235.303 259.19 231.182 253.749 229.359 252.504C227.536 251.258 225.931 253.395 225.932 255.079C225.934 256.763 230.144 262.385 234.304 267.023C238.466 271.664 243.118 276.42 245.49 277.684C247.861 278.948 250.098 280.669 250.837 281.358C251.575 282.048 250.368 284.64 246.36 288.006C242.355 291.369 241.239 292.078 239.936 291.351C238.633 290.623 235.923 285.307 234.127 282.941C232.325 280.575 231.527 279.202 230.624 278.855C229.721 278.507 227.915 281.487 227.324 283.943C226.73 286.396 226.651 289.67 227.413 291.611C228.176 293.551 229.325 295.482 229.292 296.511C229.259 297.541 225.67 300.009 219.385 299.694C213.099 299.379 211.601 299.347 210.138 297.821C208.672 296.298 209.167 293.196 210.439 289.682C211.711 286.168 214.47 277.482 215.259 274.185C216.049 270.889 216.555 268.711 216.044 266.754C215.533 264.798 214.182 263.174 213.282 262.292C212.382 261.411 209.32 266.087 208.329 270.227C207.338 274.366 207.419 275.76 206.122 277.097C204.819 278.433 199.537 277.507 197.433 275.941C195.33 274.375 194.398 273.385 194.168 272.585C193.939 271.785 202.172 259.051 204.325 250.357C206.477 241.663 206.661 237.901 205.928 235.534C205.197 233.17 204.143 231.349 202.657 230.645C201.172 229.941 199.369 232.919 198.899 239.339C198.43 245.759 196.034 257.532 194.916 259.844C193.797 262.155 189.564 259.911 186.823 256.697C184.083 253.483 181.455 251.775 183.176 247.863C184.9 243.954 191.742 222.597 190.582 217.154C189.425 211.707 187.122 207.511 184.95 205.31C182.778 203.108 180.949 201.727 179.175 201.541C177.401 201.355 175.554 209.052 175.455 213.481C175.355 217.917 174.256 239.808 176.705 255.722C179.156 271.639 183.25 282.616 187.277 288.15C191.3 293.681 193.475 295.983 193.829 297.132C194.183 298.281 186.748 303.64 185.283 304.921C183.818 306.201 178.115 292.276 176.022 291.363C173.926 290.446 172.799 300.805 172.614 303.55C172.429 306.296 169.245 307.461 166.876 306.788C164.508 306.109 161.408 304.78 160.113 303.486C158.818 302.192 161.481 294.697 164.153 288.32C166.825 281.949 170.696 278.239 169.842 274.304C168.985 270.365 167.274 263.78 166.026 261.801C164.777 259.821 160.782 265.415 159.665 270.428C158.549 275.44 157.862 280.569 156.739 280.578C155.618 280.59 149.818 274.508 149.556 271.988C149.295 269.469 153.185 257.833 156.257 253.209C159.327 248.587 161.344 246.825 162.588 238.632C163.831 230.438 164.615 218.762 163.544 216.791C162.473 214.821 161.826 216.675 159.34 221.595C156.853 226.516 154.32 228.243 152.535 229.158C150.75 230.072 145.338 224.188 145.522 222.393C145.703 220.601 153.537 213.407 154.024 205.286C154.508 197.162 152.573 189.873 146.355 184.225C140.136 178.576 129.103 170.037 126.544 169.491C123.983 168.947 119.83 176.923 120.059 180.369C120.289 183.816 121.459 184.36 121.335 186.204C121.21 188.049 110.048 187.205 105.555 185.047C101.062 182.888 101.593 181.904 103.283 177.476C104.976 173.046 113.664 158.326 111.636 154.019C109.606 149.709 107.554 148.55 104.626 147.982C101.698 147.413 96.8902 155.436 95.641 161.565C94.3919 167.694 99.1211 184.245 100.729 189.269C102.336 194.293 106.052 198.346 110.092 198.989C114.131 199.633 118.845 199.857 122.872 197.905C126.9 195.952 129.238 194.254 132.339 197.804C135.441 201.353 140.699 209.961 140.031 215.758C139.362 221.555 134.742 218.654 129.715 218.868C124.688 219.081 118.239 218.462 115.296 219.468C112.352 220.473 114.32 225.709 116.471 228.171C118.623 230.634 123.053 232.327 125.441 232.672C127.829 233.017 130.477 232.269 131.387 233.906C132.297 235.542 130.32 244.314 129.157 247.145C127.998 249.973 124.217 249.799 121.526 247.762C118.836 245.725 115.431 243.555 113.48 243.749C111.527 243.94 112.606 250.715 114.705 254.327C116.803 257.939 114.968 259.994 110.818 262.867C106.669 265.735 101.693 267.663 99.8939 266.814C98.0953 265.966 97.7568 255.366 99.0097 246.407C100.259 237.45 99.5375 229 98.606 227.241C97.6744 225.483 91.9028 235.67 90.7576 247.866C89.6124 260.062 91.2085 273.492 90.5869 275.55C89.9653 277.609 83.9061 278.815 78.3369 277.63C72.7645 276.449 71.3523 274.658 71.7283 272.661C72.1043 270.665 74.5819 266.233 76.2179 257.544C77.8539 248.855 78.5978 245.027 77.5254 244.149C76.453 243.271 72.4222 248.003 70.7934 248.216C69.1646 248.429 63.8419 242.336 63.91 240.162C63.9781 237.988 69.8613 238.14 76.2103 232.594C82.5592 227.047 83.841 221.24 86.9221 212.645C90.006 204.053 88.2082 198.359 86.8396 193.504C85.4709 188.65 84.5751 186.408 83.2648 185.433C81.9577 184.454 71.3507 194.479 67.6054 202.139C63.86 209.798 66.3411 216.101 67.9368 220.004C69.5296 223.905 71.0608 225.14 69.5832 226.736C68.1055 228.332 66.4301 230.401 64.78 228.513C63.13 226.624 62.4983 223.998 61.5261 224.096C60.5538 224.193 58.2181 231.221 58.2034 237.436C58.1887 243.651 61.8534 259.967 63.2518 263.127C64.6529 266.291 64.8661 266.71 61.695 268.27C58.5206 269.834 52.0673 270.931 49.5826 269.472C47.0979 268.013 46.6036 266.93 46.8314 262.343C47.0592 257.757 45.6118 242.076 44.4451 241.433C43.2783 240.79 37.9483 244.384 35.6732 246.976C33.3981 249.569 32.0327 251.067 29.2328 246.853C26.4389 242.639 25.3453 238.449 26.1539 236.081C26.9623 233.712 30.8595 234.542 36.2115 229.414C41.5636 224.286 47.8912 217.847 49.5237 212.791C51.1561 207.735 50.019 206.608 48.4658 206.908C46.9126 207.207 37.9999 213.631 36.1798 213.101C34.3565 212.574 33.9227 208.266 34.2013 205.297C34.48 202.328 34.0751 201.172 36.1122 199.692C38.1521 198.215 49.4164 195.182 54.5523 190.842C59.6911 186.505 69.7641 171.197 71.9851 166.989C74.2062 162.781 75.9003 160.391 74.2207 158.986C72.541 157.581 69.999 158.134 63.296 165.353C56.5929 172.572 51.2373 181.333 43.8482 187.941C36.459 194.55 24.888 203.296 21.6524 202.188C18.4168 201.079 13.953 194.242 13.3466 188.869C12.7399 183.502 14.9501 181.871 18.6774 181.639C22.408 181.405 29.1756 175.645 37.9373 165.417C46.6991 155.19 53.2027 148.603 60.3719 145.212C67.5444 141.818 83.5355 139.347 84.8356 136.849C86.1324 134.353 78.8664 134.346 75.1607 133.049C71.4521 131.749 69.6316 131.225 69.9457 128.983C70.2567 126.744 73.4058 117.185 76.3312 116.896C79.2567 116.608 81.6108 122.421 86.1974 122.649C90.7839 122.877 93.4634 122.656 94.3662 120.053C95.269 117.449 94.3161 113.588 91.1996 110.714C88.0831 107.839 67.0143 105.371 66.3177 104.917C65.6207 104.469 67.223 102.724 67.223 102.724L67.2362 102.707Z" fill="#2881B5"/>
<path d="M1042.8 217.556C1043.06 218.549 1047.6 218.667 1049.3 218.402C1051.04 218.139 1052.59 216.378 1053.37 216.378C1054.15 216.341 1055.41 216.366 1057.54 216.79C1059.64 217.212 1059.43 215.161 1061.49 213.975C1063.51 212.788 1065.04 212.867 1068.93 212.752C1072.86 212.643 1071.86 211.453 1073.62 210.053C1075.37 208.693 1076.02 208.336 1078.72 208.396C1081.43 208.459 1081.45 206.537 1082.95 206.379C1084.4 206.22 1085.87 204.373 1089.54 204.015C1093.2 203.657 1095.09 202.812 1095.87 204.422C1096.62 205.989 1095.92 206.501 1095.71 207.511C1095.5 208.52 1093.22 208.714 1092.73 209.002C1092.24 209.29 1092.17 210.737 1092.55 211.7C1092.93 212.663 1093.31 212.914 1093.28 214.327C1093.28 215.701 1092.45 215.812 1091.98 215.869C1091.51 215.885 1091.47 217.294 1091.37 218.463C1091.27 219.633 1091.77 219.858 1092.11 220.112C1092.46 220.325 1092.49 222.639 1092.1 223.444C1091.7 224.285 1090.31 224.607 1090.17 225.775C1089.99 226.981 1090.74 226.902 1091.02 227.66C1091.26 228.38 1090.33 231.86 1090.3 232.33C1090.28 232.8 1091.14 233.512 1091.7 234.09C1092.22 234.706 1093.3 234.368 1094.12 233.59C1094.91 232.805 1097.13 232.412 1098.05 231.322C1099 230.234 1098.33 228.044 1098.79 226.028C1099.25 224.052 1100.6 225.26 1100.87 224.449C1101.19 223.64 1100.87 222.213 1101.24 219.684C1101.65 217.193 1103.81 216.366 1104.06 216.103C1104.34 215.882 1106.11 213.584 1106.19 212.055C1106.27 210.527 1108.97 209.062 1109.06 209.656C1109.15 210.209 1110.45 211.569 1111.22 212.475C1112 213.341 1111.19 214.669 1111.03 216.229C1110.91 217.752 1112.99 217.038 1113.49 217.849C1114 218.66 1113.55 219.775 1113.28 221.915C1113.01 224.096 1113.88 224.654 1114.45 225.037C1115.06 225.422 1116.37 225.844 1116.86 226.927C1117.32 227.97 1118.01 228.279 1118.99 228.293C1119.97 228.267 1120.81 227.095 1121.19 225.233C1121.52 223.409 1122.96 223.484 1123.09 222.547C1123.18 221.609 1123.72 220.267 1123.1 219.332C1122.48 218.438 1122.12 217.753 1122.4 215.374C1122.68 212.994 1123.31 210.677 1122.64 210.053C1121.93 209.467 1122.22 206.108 1122.46 204.474C1122.7 202.8 1121.58 202.587 1120.82 201.995C1120.07 201.367 1120.89 199.958 1121.44 198.341C1122 196.723 1120.77 196.147 1120.87 195.018C1121.01 193.887 1123.19 192.55 1124.91 192.013C1126.66 191.478 1127.8 191.537 1128.83 190.57C1129.86 189.604 1129.24 188.633 1129.86 187.291C1130.52 185.992 1131.2 185.674 1132.41 184.875C1133.67 184.038 1133.47 182.654 1133.78 180.592C1134.12 178.533 1135.16 178.075 1136.16 176.989C1137.12 175.901 1137.3 173.833 1137.94 173.553C1138.55 173.272 1138.19 174.155 1138.14 175.132C1138.09 176.109 1138.32 176.947 1138.73 178.106C1139.14 179.266 1139.35 179.667 1139.47 182.693C1139.59 185.679 1139.01 188.397 1139.58 189.561C1140.15 190.728 1145.4 186.961 1146.99 185.044C1148.59 183.127 1148.31 182.368 1148.81 180.313C1149.27 178.296 1150.06 178.927 1150.77 176.61C1151.44 174.251 1151.28 173.576 1152.12 173.112C1152.97 172.648 1153.32 174.312 1154.25 175.966C1155.18 177.624 1155.33 177.786 1155.42 179.088C1155.51 180.349 1157.34 181.5 1157.43 182.603C1157.54 183.669 1156.57 184.871 1155.72 186.16C1154.91 187.451 1155.3 188.179 1155.24 189.35C1155.18 190.522 1153.46 193.453 1153.46 193.453C1153.46 193.453 1152.28 195.038 1152.2 196.485C1152.13 197.932 1152.79 198.751 1152.52 200.265C1152.24 201.82 1150.77 202.134 1149.81 203.38C1148.88 204.625 1149.44 209.597 1149.03 210.754C1148.61 211.907 1144.11 211.755 1141.11 213.009C1138.1 214.303 1137.38 216.03 1134.73 218.677C1132.12 221.366 1129.97 221.291 1129.48 222.363C1129.03 223.401 1128.97 225.357 1128.57 226.275C1128.13 227.195 1126.36 228.083 1125.2 228.453C1124.04 228.788 1124.2 229.462 1124.14 230.675C1124.08 231.887 1123.52 232.837 1122.55 234.201C1121.61 235.563 1118.56 236.153 1117.83 237.407C1117.1 238.662 1118.56 239.327 1118.88 240.559C1119.17 241.83 1118.33 242.1 1117.84 243.172C1117.4 244.206 1116.43 245.529 1116.41 246.666C1116.42 247.805 1117.31 248.908 1118.31 249.354C1119.31 249.76 1122.62 248.635 1124.09 247.46C1125.56 246.321 1126.49 245.154 1127.18 243.974C1127.86 242.754 1131.06 242.489 1131.35 241.366C1131.61 240.241 1133.85 238.634 1134.95 238.456C1136.06 238.318 1135.08 239.129 1134.73 240.404C1134.43 241.681 1133.98 243.58 1133.48 244.847C1132.99 246.114 1131.29 246.225 1130.75 248.314C1130.25 250.406 1131.15 249.746 1130.85 251.693C1130.56 253.637 1127.45 253.793 1127.02 256.002C1126.59 258.215 1126.45 257.814 1125.78 258.722C1125.11 259.63 1123.12 260.819 1122.36 261.918C1121.56 263.014 1123.1 263.448 1122.77 264.452C1122.48 265.498 1120.53 265.432 1119.73 266.371C1118.97 267.311 1119.63 268.248 1120.36 270.167C1121.08 272.128 1119.55 272.95 1120.14 274.351C1120.73 275.792 1123.57 276.334 1124.94 275.544C1126.36 274.755 1127.86 274.362 1129.13 274.152C1130.36 273.98 1131.42 272.271 1132.3 269.886C1133.13 267.498 1135.79 265.283 1136.7 264.468C1137.64 263.655 1138.73 261.477 1138.88 260.151C1139.07 258.787 1139.96 257.5 1141.22 258.195C1142.47 258.887 1143.16 258.455 1143.61 259.653C1144.1 260.853 1143.18 267.943 1141.92 268.78C1140.62 269.575 1139.14 270.912 1139.67 272.191C1140.15 273.432 1139.74 276.118 1139.24 278.169C1138.78 280.186 1137.79 279.585 1137.61 280.868C1137.42 282.151 1138.14 282.034 1138.46 284.091C1138.82 286.187 1138.19 289.216 1138.69 290.181C1139.15 291.148 1139.8 291.413 1141.11 290.347C1142.38 289.275 1143.34 288.187 1144.81 287.913C1146.27 287.636 1147.78 285.755 1148.48 283.592C1149.19 281.393 1150.85 280.382 1151.84 278.706C1152.83 277.03 1152.42 275.049 1152.8 273.695C1153.19 272.341 1154.69 271.322 1155.36 270.654C1156.06 270.023 1156.7 268.098 1156.57 266.168C1156.4 264.2 1156.74 263.746 1156.95 261.952C1157.12 260.197 1158.08 259.068 1158.77 259.421C1159.41 259.767 1158.8 260.325 1158.95 261.902C1159.06 263.517 1158.35 264.419 1158.82 265.818C1159.34 267.218 1161 269.931 1163.24 269.929C1165.52 269.93 1167.77 268.006 1168.75 266.569C1169.72 265.169 1170.08 261.265 1170.24 258.883C1170.41 256.461 1171.1 256.066 1171.84 254.572C1172.59 253.083 1172.35 250.912 1172.35 250.912C1172.35 250.912 1172.15 249.491 1172.5 248.725C1172.85 247.958 1173.65 247.097 1174 245.429C1174.36 243.761 1173.7 242.942 1172.42 241.152C1171.14 239.362 1172.54 238.061 1172.63 236.455C1172.71 234.85 1172.1 233.721 1170.95 233.348C1169.79 232.975 1169.62 231.633 1169.89 230.98C1170.2 230.289 1170.47 228.185 1170.46 226.851C1170.42 225.475 1169.09 225.329 1167.43 224.889C1165.76 224.449 1165.34 223.565 1165.38 222.665C1165.43 221.765 1165.44 220.001 1166.06 218.7C1166.72 217.442 1167.76 217.727 1168.16 215.984C1168.57 214.201 1167.78 213.493 1167.84 212.439C1167.89 211.385 1168.51 210.08 1169.18 208.55C1169.85 207.015 1169.05 205.799 1169.46 203.113C1169.87 200.391 1172.19 198.077 1172.5 195.19C1172.8 192.345 1172.97 193.605 1173.84 192.004C1174.7 190.44 1174.29 186.459 1175.2 184.624C1176.16 182.751 1176.56 182.577 1177.17 180.65C1177.74 178.757 1178.14 178.659 1178.52 176.679C1178.89 174.699 1179.91 174.125 1180.25 174.928C1180.57 175.729 1180.69 176.284 1180.62 177.731C1180.54 179.178 1180.71 179.776 1181.34 181.927C1181.97 184.078 1183.15 185.708 1183.34 187.21C1183.54 188.672 1183.66 189.462 1184.81 191.445C1185.97 193.387 1185.8 192.87 1186.21 194.773C1186.66 196.678 1189.33 201.915 1189.22 204.067C1189.1 206.22 1190.9 208.703 1191.62 211.29C1192.31 213.915 1190.92 217.411 1191.35 218.921C1191.74 220.433 1192.23 221.439 1192.24 222.773C1192.22 224.064 1191.7 224.98 1192.48 227.333C1193.26 229.687 1193.85 231.015 1193.33 232.906C1192.83 234.839 1190.3 236.825 1187.39 239.146C1184.49 241.466 1182.63 244.662 1181.61 247.003C1180.59 249.304 1179.28 252.492 1178.14 257.883C1177.04 263.236 1175.52 269.003 1175.27 272.282C1175.06 275.605 1173.47 279.131 1174.24 280.228C1175.04 281.327 1177.07 280.847 1179.74 278.514C1182.45 276.184 1182.47 277.913 1183.18 276.417C1183.88 274.961 1184.13 273.133 1184.62 272.02C1185.11 270.948 1186.98 271.123 1187.38 268.713C1187.74 266.301 1188.33 263.352 1189.47 262.509C1190.61 261.666 1191.04 259.493 1191.82 258.082C1192.56 256.71 1194.58 254.657 1194.86 255.456C1195.13 256.254 1194.76 257.373 1193.95 259.214C1193.19 261.056 1194.2 263.503 1194.03 265.181C1193.83 266.857 1192.87 267.982 1192.76 269.35C1192.64 270.718 1194.31 271.862 1194.36 274.689C1194.45 277.556 1193.32 277.342 1193.04 279.051C1192.75 280.764 1194.72 282.082 1194.54 283.405C1194.39 284.691 1193.84 284.82 1193.71 286.578C1193.54 288.296 1194.42 288.615 1195.25 290.853C1196.11 293.092 1195.53 293.652 1195.71 294.682C1195.86 295.669 1196.69 297.126 1198.09 297.276C1199.49 297.427 1201.38 295.801 1203.05 293.771C1204.73 291.74 1205.95 290.86 1206.44 290.418C1206.94 289.973 1206.96 288.015 1206.62 285.643C1206.26 283.312 1207.35 282.035 1207.92 283.085C1208.49 284.135 1208.43 285.424 1208.59 286.766C1208.76 288.108 1208.28 291.221 1209.12 293.147C1209.97 295.073 1210.92 294.809 1211.9 295.645C1212.87 296.48 1215.99 295.232 1216.59 294.397C1217.18 293.566 1219.45 292.115 1219.86 290.331C1220.26 288.548 1220.77 283.359 1220.08 281.595C1219.38 279.832 1219.85 278.445 1220.46 278.79C1221.07 279.135 1222.13 279.897 1222.56 280.546C1223 281.194 1223.1 283.789 1222.99 285.86C1222.89 287.932 1223.11 288.143 1224.7 289.242C1226.29 290.345 1227.43 289.461 1228.92 291.107C1230.4 292.753 1231.88 294.399 1233.28 294.708C1234.67 295.016 1236.1 291.793 1236.4 290.399C1236.71 289.004 1237.34 282.879 1236.93 280.191C1236.52 277.503 1234.82 275.61 1235.24 273.591C1235.65 271.572 1236.76 268.414 1234.59 266.419C1232.42 264.424 1232.94 260.529 1231.31 258.639C1229.68 256.75 1227.69 252.805 1228.33 252.603C1228.96 252.4 1229.8 252.992 1230.91 254.306C1232.01 255.619 1234.87 256.552 1237.98 255.616C1241.09 254.681 1241.19 255.548 1244.2 256.566C1247.21 257.584 1247.98 256.372 1246.77 253.956C1245.56 251.539 1245.59 249.5 1245.03 246.65C1244.47 243.796 1241.51 243.406 1239.64 241.821C1237.76 240.232 1237.64 236.461 1235.77 236.21C1233.9 235.954 1232.26 235.869 1231.04 235.102C1229.83 234.336 1227.26 234.044 1224.55 233.196C1221.85 232.348 1219.75 228.987 1218.06 227.602C1216.37 226.222 1215.8 224.347 1215.87 223.724C1215.98 223.064 1215.66 220.812 1215 219.915C1214.35 218.979 1213.79 213.812 1213.69 210.397C1213.56 206.979 1213.04 205.538 1211.74 203.393C1210.45 201.248 1210.64 197.608 1209.59 195.086C1208.54 192.561 1207.52 192.625 1207.07 189.976C1206.62 187.363 1205.68 185.042 1204.49 183.057C1203.29 181.113 1203.32 178.371 1203.08 176.082C1202.85 173.834 1201.22 173.396 1200.83 171.925C1200.44 170.412 1201.12 168.684 1200.64 166.423C1200.17 164.123 1197.4 162.413 1197.91 160.907C1198.38 159.403 1197.51 157.277 1197.24 155.617C1196.97 153.957 1197.49 153.866 1198.34 152.654C1199.14 151.48 1200.34 151.148 1203.12 151.292C1205.89 151.437 1206.26 151.22 1206.51 149.428C1206.8 147.602 1207.99 146.603 1209.34 147.848C1210.68 149.092 1210.51 150.221 1210.85 153.378C1211.24 156.495 1214.7 159.423 1215.24 163.333C1215.82 167.245 1214.54 169.886 1214.33 171.049C1214.07 172.251 1215.32 173.178 1215.61 175.746C1215.87 178.267 1215.3 181.806 1214.92 182.966C1214.59 184.123 1214.83 184.883 1215.9 186.858C1216.97 188.796 1216.84 190.711 1216.66 192.544C1216.53 194.378 1217.78 195.151 1219.47 198.1C1221.12 201.088 1220.49 201.173 1220.48 203.526C1220.48 205.92 1222.99 207.97 1224.19 210.621C1225.34 213.307 1224.43 213.613 1224.48 214.831C1224.54 216.09 1225.73 217.25 1227.18 218.699C1228.64 220.149 1228.34 221.426 1229.13 222.76C1229.96 224.096 1232.99 224.647 1234.23 222.712C1235.43 220.774 1236.54 218.166 1236.45 216.278C1236.35 214.391 1237.23 209.494 1238.65 211.686C1240.06 213.877 1240.21 214.12 1240.88 216.273C1241.51 218.424 1242.68 218.562 1244.9 220.405C1247.12 222.207 1246.69 223.595 1248.14 225.317C1249.57 227.078 1252.45 228.402 1253.87 227.537C1255.25 226.629 1254.09 225.472 1254.35 221.286C1254.64 217.107 1253.74 214.942 1252.78 213.046C1251.81 211.191 1252.49 209.463 1251.76 207.701C1251.03 205.935 1249.7 205.123 1249.06 203.914C1248.41 202.706 1248.82 199.508 1250.75 199.336C1252.64 199.121 1255.25 201.647 1256.71 203.056C1258.21 204.508 1260.43 204.624 1263.46 205.171C1266.49 205.76 1265.44 207.156 1266.56 208.312C1267.67 209.427 1269.04 208.912 1271.54 209.042C1274.04 209.172 1276.56 209.694 1277.39 209.619C1278.22 209.544 1278.39 207.829 1277.23 205.18C1276.04 202.528 1273.4 198.156 1271.16 195.922C1268.89 193.645 1266.44 190.225 1263.32 189.904C1260.2 189.547 1260.35 188.848 1257.41 187.284C1254.52 185.723 1252.65 185.391 1249.59 184.642C1246.57 183.895 1247.36 182.213 1248.19 182.098C1249.03 181.946 1248.76 182.481 1250.12 183.414C1251.52 184.389 1253.31 184.051 1255.37 183.569C1257.47 183.089 1259.69 183.517 1261.8 182.923C1263.91 182.326 1263.91 180.72 1262.39 178.995C1260.91 177.272 1256.5 174.689 1254.82 173.74C1253.18 172.829 1251.03 171.974 1248.23 172.3C1245.47 172.628 1240.25 172.002 1238.44 171.201C1236.64 170.4 1234.85 166.348 1234.59 163.786C1234.29 161.262 1233.48 158.785 1232.83 156.166C1232.22 153.545 1229.62 149.256 1228.73 146.698C1227.89 144.105 1228.15 143.688 1229.07 143.931C1230 144.138 1231.7 145.36 1233.34 146.271C1235.02 147.183 1236.35 145.76 1237.65 145.71C1238.94 145.659 1242.86 146.53 1244.87 148.594C1246.89 150.621 1251.58 156.942 1253.33 159.504C1255.07 162.103 1254.29 163.514 1255.25 165.409C1256.22 167.264 1257.97 167.55 1259.72 169.368C1261.47 171.146 1263.48 173.84 1266.57 176.273C1269.63 178.668 1273.7 181.782 1275.3 181.788C1276.87 181.829 1277.4 179.938 1277.33 177.54C1277.3 175.107 1276.24 172.857 1275.66 171.141C1275.13 169.385 1272.31 165.515 1272.34 164.927C1272.44 164.425 1273.41 163.922 1274.35 164.678C1275.33 165.437 1276.43 166.981 1277.34 168.244C1278.29 169.55 1281.45 169.242 1283.04 170.268C1284.63 171.294 1285.64 171.578 1288.11 172.414C1290.61 173.251 1290.02 175.651 1292.79 176.734C1295.55 177.821 1295.14 175.913 1296.61 175.64C1298.11 175.364 1301.04 175.517 1301.36 173.18C1301.64 170.841 1298.06 165.753 1296.54 163.32C1295.03 160.847 1292.64 158.374 1289.94 156.782C1287.24 155.15 1283.49 151.231 1283.73 151.008C1283.98 150.785 1286.58 149.823 1289.1 150.307C1291.59 150.79 1292.52 150.839 1296.14 150.674C1299.76 150.508 1298.71 148.848 1300.77 149.073C1302.84 149.298 1307.18 148.857 1309.52 147.568C1311.9 146.282 1315.89 144.172 1316.08 142.772C1316.27 141.371 1311.78 137.174 1310.28 136.706C1308.77 136.197 1308.26 135.463 1306.36 134.307C1304.5 133.15 1301.7 133.358 1300.26 134.067C1298.81 134.736 1296.79 133.651 1294.21 133.322C1291.64 133.03 1291.38 134.236 1288.41 134.158C1285.39 134.042 1284.79 132.796 1281.96 132.88C1279.13 132.969 1277.55 132.415 1277.9 131.844C1278.2 131.27 1280.14 130.233 1283.58 128.217C1286.98 126.235 1287.3 124.487 1287.17 123.306C1287.07 122.085 1283.46 121.426 1281.36 121.789C1279.27 122.151 1278.9 122.368 1277.01 121.798C1275.08 121.226 1271.27 122.048 1268.87 122.985C1266.43 123.919 1264.73 122.729 1261.03 123.638C1257.34 124.584 1251.63 130.994 1250.16 130.641C1248.72 130.254 1246.49 128.841 1244.32 128.22C1242.19 127.561 1241.1 126.837 1237.61 126.851C1234.11 126.828 1236.15 127.011 1232.9 126.724C1229.66 126.438 1229.36 124.776 1227.71 123.983C1226.11 123.192 1226.28 123.596 1225.53 122.967C1224.82 122.341 1222.99 114.522 1223.12 112.094C1223.24 109.666 1223.02 109.346 1221.27 107.645C1219.52 105.985 1221.16 100.029 1220.04 98.8739C1218.93 97.7184 1217.46 95.6425 1217.77 94.1667C1218.09 92.6547 1217.51 90.9743 1216.8 88.7424C1216.09 86.547 1216.7 86.0708 1216.95 84.3196C1217.2 82.5684 1216.19 80.906 1215.48 77.1053C1214.74 73.3025 1215.75 71.8636 1216.84 69.7252C1217.97 67.6255 1218.26 65.8398 1218.55 63.3427C1218.88 60.8516 1220.51 61.0139 1221.88 59.7515C1223.27 58.5315 1222.67 56.4192 1222.25 54.8281C1221.82 53.2775 1223.54 49.6798 1224.68 47.9347C1225.87 46.1916 1225.45 44.5235 1225.81 42.148C1226.13 39.7704 1226.55 33.0894 1226.55 33.0894C1226.55 33.0894 1226.38 31.8651 1221.77 31.6253C1217.16 31.3854 1207.76 30.9379 1207.32 32.0122C1206.87 33.0865 1207.71 42.662 1206.55 48.992C1205.4 55.326 1201.38 62.4096 1201.11 64.7893C1200.83 67.1283 1199.45 67.8781 1199.04 71.3887C1198.66 74.8974 1196.58 77.0253 1196.7 78.6815C1196.77 80.372 1197.2 80.3944 1197.83 84.1138C1198.46 87.8335 1197.81 88.8975 1197.91 90.7075C1198.05 92.5197 1199.94 95.4795 1200.36 98.6394C1200.82 101.802 1201.18 103.389 1200.68 104.501C1200.19 105.651 1200.62 105.714 1201.04 106.796C1201.49 107.84 1202.51 110.95 1202.26 113.526C1202 116.102 1202.16 116.187 1200.9 117.024C1199.64 117.821 1198.12 117.705 1197.04 117.413C1195.95 117.161 1195.76 116.403 1194.14 114.95C1192.5 113.49 1191.76 110.314 1192.01 108.526C1192.22 106.732 1191.88 104.991 1189.97 103.241C1188.06 101.496 1187.5 99.503 1187.84 97.4437C1188.14 95.3822 1187.54 91.8998 1186.38 90.8963C1185.21 89.8928 1184.57 87.0752 1184.95 85.2125C1185.32 83.3905 1184.38 82.5165 1183.42 81.4057C1182.46 80.2583 1182.87 76.9828 1183.73 73.9304C1184.6 70.878 1185.8 70.3105 1186.59 68.8635C1187.37 67.3759 1185.77 66.3499 1186.31 64.4549C1186.84 62.5233 1188.95 61.2183 1189.6 59.2928C1190.28 57.4058 1190.5 51.6532 1191.52 50.2549C1192.53 48.8971 1191.91 48.0395 1192.8 45.8911C1193.74 43.7042 1194.68 42.3016 1194.64 39.9462C1194.61 37.5503 1195.56 35.9534 1197.31 33.1056C1199.03 30.2519 1199.25 25.9913 1198.89 24.6393C1198.53 23.2467 1196.37 23.3335 1190.4 23.4543C1184.43 23.5748 1165.69 24.2102 1164.28 24.9214C1162.87 25.6326 1163.45 27.2319 1162.13 30.85C1160.77 34.4254 1159.4 35.9635 1158.29 36.8857C1157.14 37.8463 1157.74 37.7186 1157.26 40.2058C1156.77 42.7293 1155.67 44.3182 1155.46 48.3072C1155.25 52.2962 1154.85 54.7467 1154.36 55.8189C1153.88 56.8546 1154.43 58.3343 1155.04 60.1669C1155.69 62.0053 1154.98 67.2612 1154.21 69.3022C1153.48 71.3819 1154.13 72.2778 1154.22 73.5792C1154.27 74.8744 1153.57 80.2113 1153.66 81.3544C1153.76 82.5342 1153.15 84.4252 1152.48 85.9189C1151.86 87.3782 1153.78 90.3804 1153.52 93.8547C1153.26 97.3694 1152.59 100.355 1152.3 102.303C1151.96 104.208 1153.9 108.427 1153.55 111.429C1153.16 114.428 1152.49 117.414 1150.63 119.24C1148.73 121.1 1145.04 124.282 1141.81 126.704C1138.59 129.126 1135.53 132.925 1133.9 134.174C1132.22 135.461 1132.49 136.414 1131.78 138.69C1131.07 140.929 1128.07 142.143 1126.97 143.619C1125.92 145.056 1126.88 146.987 1126.02 148.394C1125.16 149.76 1125.26 151.728 1124.51 152.628C1123.75 153.491 1120.45 152.848 1118.95 154.693C1117.4 156.571 1116.72 155.951 1115.28 157.445C1113.82 158.979 1112.11 158.808 1112.12 159.988C1112.14 161.204 1114.08 161.582 1115.97 162.147C1117.86 162.717 1118.7 163.936 1118.66 164.759C1118.62 165.582 1117.47 167.245 1116.14 168.705C1114.81 170.127 1113.42 170.64 1112.91 171.911C1112.42 173.178 1111.96 174.41 1110.55 175.905C1109.18 177.403 1108.55 177.411 1107.68 179.049C1106.81 180.65 1104.65 181.44 1103.37 182.67C1102.13 183.898 1099.5 184.782 1096.64 185.341C1093.79 185.936 1092.87 185.575 1090.5 185.765C1088.18 185.958 1087.53 187.847 1085.71 188.142C1083.86 188.476 1079.58 186.136 1076.41 186.049C1073.24 186.002 1071.62 184.625 1071.49 184.814C1071.41 185.004 1069.86 185.354 1068.25 185.429C1066.63 185.504 1064.64 183.831 1063.81 184.691C1062.99 185.509 1060.86 184.891 1058.87 184.67C1056.84 184.487 1056.05 183.974 1055.37 184.801C1054.7 185.668 1052.53 184.494 1050.66 184.832C1048.84 185.168 1047.72 185.582 1047.55 187.495C1047.41 189.411 1048.04 189.952 1049.58 190.662C1051.11 191.367 1050.76 191.349 1051 192.658C1051.25 193.964 1052.74 193.18 1053.22 193.717C1053.7 194.25 1056.47 193.886 1057.63 194.222C1058.83 194.52 1057.43 195.663 1057.71 196.385C1057.98 197.143 1057.76 197.644 1057.67 198.659C1057.54 199.632 1054.97 200.011 1054.11 199.966C1053.25 199.921 1052.88 202.528 1051.76 203.685C1050.67 204.885 1049.11 204.137 1048.57 205.401C1048.03 206.666 1048.25 207.112 1047.17 208.271C1046.05 209.388 1045.9 209.266 1046.01 210.134C1046.12 210.965 1045.93 213.073 1044.94 214.119C1043.94 215.164 1042.5 216.54 1042.76 217.574L1042.8 217.556ZM1163.16 138.358C1164.36 137.164 1165.98 136.741 1168.16 135.715C1170.29 134.688 1171.77 134.842 1172.97 135.965C1174.12 137.123 1174.59 138.716 1175.17 141.141C1175.79 143.567 1174.91 145.44 1175.21 147.183C1175.51 148.886 1172.81 149.607 1171.47 150.44C1170.09 151.271 1170.03 151.739 1169.78 153.49C1169.5 155.24 1168.9 156.229 1168.09 157.479C1167.28 158.73 1166.83 158.983 1166.25 158.758C1165.72 158.571 1165.46 155.814 1165.59 154.959C1165.75 154.142 1165.7 151.436 1165.7 151.436C1165.37 150.911 1164.07 149.547 1163.35 149.001C1162.64 148.456 1161.96 146.38 1162.2 143.962C1162.45 141.504 1161.96 139.556 1163.16 138.366L1163.16 138.358Z" fill="#161423"/>
<path d="M1237.18 212.061C1245.69 210.792 1247.3 193.985 1261.02 168.585C1270.37 151.276 1280.73 137.316 1286.38 130.17C1287.15 132.14 1288.35 134.681 1290.04 137.531C1283.61 148.872 1272.63 168.37 1265.66 181.536C1255.31 201.073 1244.87 238.054 1242.64 255.243C1240.41 272.433 1249.43 273.723 1253.74 268.6C1258.06 263.476 1258.72 241.87 1267.91 212.22C1273.45 194.338 1286.07 172.8 1295.23 158.379C1285.11 182.51 1274.7 220.269 1269.76 245.373C1263.68 276.218 1261.19 318.273 1259.56 336.598C1257.92 354.924 1269.03 356.981 1271.67 350.388C1274.3 343.795 1273.83 300.506 1284.63 253.645C1293.09 216.968 1305.26 174.808 1310.14 158.209C1312.12 159.404 1314.27 160.451 1316.51 161.401C1315.35 173.007 1312.44 198.888 1307.83 220.464C1301.68 249.247 1284.4 279.783 1284.98 286.082C1285.56 292.382 1297.67 296.428 1303.24 283.191C1306.49 275.492 1314.28 251.611 1320.28 232.81C1318.21 242.622 1316.44 250.828 1315.38 255.344C1311.04 273.859 1303.1 315.641 1303.48 332.82C1303.86 350 1315.81 353.439 1317.3 343.255C1318.8 333.071 1321.94 305.685 1325.6 287.033C1329.25 268.377 1336.29 240.206 1341.12 217.191C1343.02 208.15 1344.07 196.91 1344.66 186.578C1345.46 195.087 1346.16 203.189 1346.46 207.93C1347.29 221.465 1344.66 253.409 1342.49 276.102C1340.31 298.796 1334.53 322.194 1335.16 329.506C1335.79 336.818 1344.88 339.104 1350.43 330.894C1355.99 322.684 1358.12 304.439 1361.26 285.532C1364.39 266.624 1368.96 225.883 1366.67 201.848C1365.33 187.855 1361.36 171.561 1358.28 160.356C1359.93 159.5 1361.53 158.566 1363.06 157.548C1367.03 167.346 1374.14 186.125 1377.27 201.999C1381.72 224.605 1380.96 243.134 1379.14 258.427C1377.31 273.719 1373.06 289.668 1373.35 300.217C1373.65 310.767 1379.39 318.549 1384.73 317.767C1390.06 316.985 1389.64 310.578 1388.87 301.655C1388.1 292.733 1387.08 275.854 1389.45 261.39C1391.83 246.926 1392.34 218.293 1391.57 201.607C1391.37 197.108 1389.43 190.101 1386.73 182.284C1389.4 187.874 1391.69 192.909 1393.06 196.449C1398.8 211.27 1399.42 232.954 1399.66 243.061C1399.9 253.169 1403.64 264.421 1409.18 258.367C1414.73 252.314 1415.46 241.682 1413.64 225.217C1411.82 208.752 1404.79 175.56 1394.23 156.163C1389.32 147.155 1385.08 141.626 1381.93 138.255C1382.55 137.35 1383.15 136.449 1383.72 135.558C1393.95 142.368 1402.21 157.996 1406.6 165.295C1411.32 173.154 1417.93 177.376 1419.33 171.911C1420.73 166.446 1420.28 159.458 1412.87 147.173C1407.61 138.445 1395.24 130.965 1388.49 127.354C1392.17 120.333 1393.96 115.153 1393.96 115.153C1393.96 115.153 1389.85 112.734 1372.25 107.425C1354.65 102.116 1284.06 88.8813 1283.47 90.3448C1283.13 91.2066 1282.83 101.185 1283.4 111.293C1279.15 114.428 1273.03 119.657 1266.62 127.742C1255 142.39 1241.84 166.479 1237.51 180.987C1233.18 195.491 1228.66 213.338 1237.18 212.069L1237.18 212.061Z" fill="#5D917E"/>
</g>
<defs>
<clipPath id="clip0_95_3">
<rect width="1440" height="1024" fill="white"/>
</clipPath>
</defs>
</svg>
