<svg width="437" height="1024" viewBox="0 0 437 1024" fill="none" xmlns="http://www.w3.org/2000/svg">
<path d="M8.64089 1161L13.8687 1126.07C19.0964 1091.35 29.552 1021.49 63.428 951.833C97.0949 882.181 154.391 812.319 133.48 742.667C112.569 673.014 13.4504 603.152 1.322 533.5C-10.8064 463.848 63.6371 393.986 97.0949 324.333C130.553 254.681 123.025 184.819 106.296 115.167C89.5669 45.5142 63.6371 -24.3475 50.8814 -59.0692L37.9164 -94H514.69V-59.0692C514.69 -24.3475 514.69 45.5142 514.69 115.167C514.69 184.819 514.69 254.681 514.69 324.333C514.69 393.986 514.69 463.848 514.69 533.5C514.69 603.152 514.69 673.014 514.69 742.667C514.69 812.319 514.69 882.181 514.69 951.833C514.69 1021.49 514.69 1091.35 514.69 1126.07V1161H8.64089Z" fill="#064469"/>
</svg>
